<?xml version="1.0" encoding="utf-8" standalone="no"?>
<!DOCTYPE svg PUBLIC "-//W3C//DTD SVG 1.1//EN"
  "http://www.w3.org/Graphics/SVG/1.1/DTD/svg11.dtd">
<svg xmlns:xlink="http://www.w3.org/1999/xlink" width="576pt" height="360pt" viewBox="0 0 576 360" xmlns="http://www.w3.org/2000/svg" version="1.1">
 <metadata>
  <rdf:RDF xmlns:dc="http://purl.org/dc/elements/1.1/" xmlns:cc="http://creativecommons.org/ns#" xmlns:rdf="http://www.w3.org/1999/02/22-rdf-syntax-ns#">
   <cc:Work>
    <dc:type rdf:resource="http://purl.org/dc/dcmitype/StillImage"/>
    <dc:date>2024-05-13T08:43:02.904284</dc:date>
    <dc:format>image/svg+xml</dc:format>
    <dc:creator>
     <cc:Agent>
      <dc:title>Matplotlib v3.8.0, https://matplotlib.org/</dc:title>
     </cc:Agent>
    </dc:creator>
   </cc:Work>
  </rdf:RDF>
 </metadata>
 <defs>
  <style type="text/css">*{stroke-linejoin: round; stroke-linecap: butt}</style>
 </defs>
 <g id="figure_1">
  <g id="patch_1">
   <path d="M 0 360 
L 576 360 
L 576 0 
L 0 0 
z
" style="fill: #ffffff"/>
  </g>
  <g id="axes_1">
   <g id="patch_2">
    <path d="M 101.534 321.32 
L 564.430909 321.32 
L 564.430909 36.24 
L 101.534 36.24 
z
" style="fill: #ffffff"/>
   </g>
   <g id="matplotlib.axis_1">
    <g id="xtick_1">
     <g id="line2d_1">
      <defs>
       <path id="m916cb63480" d="M 0 0 
L 0 3.5 
" style="stroke: #000000; stroke-width: 0.8"/>
      </defs>
      <g>
       <use xlink:href="#m916cb63480" x="122.574769" y="321.32" style="stroke: #000000; stroke-width: 0.8"/>
      </g>
     </g>
     <g id="text_1">
      <!-- 1 -->
      <g transform="translate(115.576019 345.036563) scale(0.22 -0.22)">
       <defs>
        <path id="DejaVuSans-31" d="M 794 531 
L 1825 531 
L 1825 4091 
L 703 3866 
L 703 4441 
L 1819 4666 
L 2450 4666 
L 2450 531 
L 3481 531 
L 3481 0 
L 794 0 
L 794 531 
z
" transform="scale(0.015625)"/>
       </defs>
       <use xlink:href="#DejaVuSans-31"/>
      </g>
     </g>
    </g>
    <g id="xtick_2">
     <g id="line2d_2">
      <g>
       <use xlink:href="#m916cb63480" x="160.830711" y="321.32" style="stroke: #000000; stroke-width: 0.8"/>
      </g>
     </g>
     <g id="text_2">
      <!-- 10 -->
      <g transform="translate(146.833211 345.036563) scale(0.22 -0.22)">
       <defs>
        <path id="DejaVuSans-30" d="M 2034 4250 
Q 1547 4250 1301 3770 
Q 1056 3291 1056 2328 
Q 1056 1369 1301 889 
Q 1547 409 2034 409 
Q 2525 409 2770 889 
Q 3016 1369 3016 2328 
Q 3016 3291 2770 3770 
Q 2525 4250 2034 4250 
z
M 2034 4750 
Q 2819 4750 3233 4129 
Q 3647 3509 3647 2328 
Q 3647 1150 3233 529 
Q 2819 -91 2034 -91 
Q 1250 -91 836 529 
Q 422 1150 422 2328 
Q 422 3509 836 4129 
Q 1250 4750 2034 4750 
z
" transform="scale(0.015625)"/>
       </defs>
       <use xlink:href="#DejaVuSans-31"/>
       <use xlink:href="#DejaVuSans-30" x="63.623047"/>
      </g>
     </g>
    </g>
    <g id="xtick_3">
     <g id="line2d_3">
      <g>
       <use xlink:href="#m916cb63480" x="203.337315" y="321.32" style="stroke: #000000; stroke-width: 0.8"/>
      </g>
     </g>
     <g id="text_3">
      <!-- 20 -->
      <g transform="translate(189.339815 345.036563) scale(0.22 -0.22)">
       <defs>
        <path id="DejaVuSans-32" d="M 1228 531 
L 3431 531 
L 3431 0 
L 469 0 
L 469 531 
Q 828 903 1448 1529 
Q 2069 2156 2228 2338 
Q 2531 2678 2651 2914 
Q 2772 3150 2772 3378 
Q 2772 3750 2511 3984 
Q 2250 4219 1831 4219 
Q 1534 4219 1204 4116 
Q 875 4013 500 3803 
L 500 4441 
Q 881 4594 1212 4672 
Q 1544 4750 1819 4750 
Q 2544 4750 2975 4387 
Q 3406 4025 3406 3419 
Q 3406 3131 3298 2873 
Q 3191 2616 2906 2266 
Q 2828 2175 2409 1742 
Q 1991 1309 1228 531 
z
" transform="scale(0.015625)"/>
       </defs>
       <use xlink:href="#DejaVuSans-32"/>
       <use xlink:href="#DejaVuSans-30" x="63.623047"/>
      </g>
     </g>
    </g>
    <g id="xtick_4">
     <g id="line2d_4">
      <g>
       <use xlink:href="#m916cb63480" x="245.843918" y="321.32" style="stroke: #000000; stroke-width: 0.8"/>
      </g>
     </g>
     <g id="text_4">
      <!-- 30 -->
      <g transform="translate(231.846418 345.036563) scale(0.22 -0.22)">
       <defs>
        <path id="DejaVuSans-33" d="M 2597 2516 
Q 3050 2419 3304 2112 
Q 3559 1806 3559 1356 
Q 3559 666 3084 287 
Q 2609 -91 1734 -91 
Q 1441 -91 1130 -33 
Q 819 25 488 141 
L 488 750 
Q 750 597 1062 519 
Q 1375 441 1716 441 
Q 2309 441 2620 675 
Q 2931 909 2931 1356 
Q 2931 1769 2642 2001 
Q 2353 2234 1838 2234 
L 1294 2234 
L 1294 2753 
L 1863 2753 
Q 2328 2753 2575 2939 
Q 2822 3125 2822 3475 
Q 2822 3834 2567 4026 
Q 2313 4219 1838 4219 
Q 1578 4219 1281 4162 
Q 984 4106 628 3988 
L 628 4550 
Q 988 4650 1302 4700 
Q 1616 4750 1894 4750 
Q 2613 4750 3031 4423 
Q 3450 4097 3450 3541 
Q 3450 3153 3228 2886 
Q 3006 2619 2597 2516 
z
" transform="scale(0.015625)"/>
       </defs>
       <use xlink:href="#DejaVuSans-33"/>
       <use xlink:href="#DejaVuSans-30" x="63.623047"/>
      </g>
     </g>
    </g>
    <g id="xtick_5">
     <g id="line2d_5">
      <g>
       <use xlink:href="#m916cb63480" x="288.350521" y="321.32" style="stroke: #000000; stroke-width: 0.8"/>
      </g>
     </g>
     <g id="text_5">
      <!-- 40 -->
      <g transform="translate(274.353021 345.036563) scale(0.22 -0.22)">
       <defs>
        <path id="DejaVuSans-34" d="M 2419 4116 
L 825 1625 
L 2419 1625 
L 2419 4116 
z
M 2253 4666 
L 3047 4666 
L 3047 1625 
L 3713 1625 
L 3713 1100 
L 3047 1100 
L 3047 0 
L 2419 0 
L 2419 1100 
L 313 1100 
L 313 1709 
L 2253 4666 
z
" transform="scale(0.015625)"/>
       </defs>
       <use xlink:href="#DejaVuSans-34"/>
       <use xlink:href="#DejaVuSans-30" x="63.623047"/>
      </g>
     </g>
    </g>
    <g id="xtick_6">
     <g id="line2d_6">
      <g>
       <use xlink:href="#m916cb63480" x="330.857124" y="321.32" style="stroke: #000000; stroke-width: 0.8"/>
      </g>
     </g>
     <g id="text_6">
      <!-- 50 -->
      <g transform="translate(316.859624 345.036563) scale(0.22 -0.22)">
       <defs>
        <path id="DejaVuSans-35" d="M 691 4666 
L 3169 4666 
L 3169 4134 
L 1269 4134 
L 1269 2991 
Q 1406 3038 1543 3061 
Q 1681 3084 1819 3084 
Q 2600 3084 3056 2656 
Q 3513 2228 3513 1497 
Q 3513 744 3044 326 
Q 2575 -91 1722 -91 
Q 1428 -91 1123 -41 
Q 819 9 494 109 
L 494 744 
Q 775 591 1075 516 
Q 1375 441 1709 441 
Q 2250 441 2565 725 
Q 2881 1009 2881 1497 
Q 2881 1984 2565 2268 
Q 2250 2553 1709 2553 
Q 1456 2553 1204 2497 
Q 953 2441 691 2322 
L 691 4666 
z
" transform="scale(0.015625)"/>
       </defs>
       <use xlink:href="#DejaVuSans-35"/>
       <use xlink:href="#DejaVuSans-30" x="63.623047"/>
      </g>
     </g>
    </g>
    <g id="xtick_7">
     <g id="line2d_7">
      <g>
       <use xlink:href="#m916cb63480" x="373.363728" y="321.32" style="stroke: #000000; stroke-width: 0.8"/>
      </g>
     </g>
     <g id="text_7">
      <!-- 60 -->
      <g transform="translate(359.366228 345.036563) scale(0.22 -0.22)">
       <defs>
        <path id="DejaVuSans-36" d="M 2113 2584 
Q 1688 2584 1439 2293 
Q 1191 2003 1191 1497 
Q 1191 994 1439 701 
Q 1688 409 2113 409 
Q 2538 409 2786 701 
Q 3034 994 3034 1497 
Q 3034 2003 2786 2293 
Q 2538 2584 2113 2584 
z
M 3366 4563 
L 3366 3988 
Q 3128 4100 2886 4159 
Q 2644 4219 2406 4219 
Q 1781 4219 1451 3797 
Q 1122 3375 1075 2522 
Q 1259 2794 1537 2939 
Q 1816 3084 2150 3084 
Q 2853 3084 3261 2657 
Q 3669 2231 3669 1497 
Q 3669 778 3244 343 
Q 2819 -91 2113 -91 
Q 1303 -91 875 529 
Q 447 1150 447 2328 
Q 447 3434 972 4092 
Q 1497 4750 2381 4750 
Q 2619 4750 2861 4703 
Q 3103 4656 3366 4563 
z
" transform="scale(0.015625)"/>
       </defs>
       <use xlink:href="#DejaVuSans-36"/>
       <use xlink:href="#DejaVuSans-30" x="63.623047"/>
      </g>
     </g>
    </g>
    <g id="xtick_8">
     <g id="line2d_8">
      <g>
       <use xlink:href="#m916cb63480" x="415.870331" y="321.32" style="stroke: #000000; stroke-width: 0.8"/>
      </g>
     </g>
     <g id="text_8">
      <!-- 70 -->
      <g transform="translate(401.872831 345.036563) scale(0.22 -0.22)">
       <defs>
        <path id="DejaVuSans-37" d="M 525 4666 
L 3525 4666 
L 3525 4397 
L 1831 0 
L 1172 0 
L 2766 4134 
L 525 4134 
L 525 4666 
z
" transform="scale(0.015625)"/>
       </defs>
       <use xlink:href="#DejaVuSans-37"/>
       <use xlink:href="#DejaVuSans-30" x="63.623047"/>
      </g>
     </g>
    </g>
    <g id="xtick_9">
     <g id="line2d_9">
      <g>
       <use xlink:href="#m916cb63480" x="458.376934" y="321.32" style="stroke: #000000; stroke-width: 0.8"/>
      </g>
     </g>
     <g id="text_9">
      <!-- 80 -->
      <g transform="translate(444.379434 345.036563) scale(0.22 -0.22)">
       <defs>
        <path id="DejaVuSans-38" d="M 2034 2216 
Q 1584 2216 1326 1975 
Q 1069 1734 1069 1313 
Q 1069 891 1326 650 
Q 1584 409 2034 409 
Q 2484 409 2743 651 
Q 3003 894 3003 1313 
Q 3003 1734 2745 1975 
Q 2488 2216 2034 2216 
z
M 1403 2484 
Q 997 2584 770 2862 
Q 544 3141 544 3541 
Q 544 4100 942 4425 
Q 1341 4750 2034 4750 
Q 2731 4750 3128 4425 
Q 3525 4100 3525 3541 
Q 3525 3141 3298 2862 
Q 3072 2584 2669 2484 
Q 3125 2378 3379 2068 
Q 3634 1759 3634 1313 
Q 3634 634 3220 271 
Q 2806 -91 2034 -91 
Q 1263 -91 848 271 
Q 434 634 434 1313 
Q 434 1759 690 2068 
Q 947 2378 1403 2484 
z
M 1172 3481 
Q 1172 3119 1398 2916 
Q 1625 2713 2034 2713 
Q 2441 2713 2670 2916 
Q 2900 3119 2900 3481 
Q 2900 3844 2670 4047 
Q 2441 4250 2034 4250 
Q 1625 4250 1398 4047 
Q 1172 3844 1172 3481 
z
" transform="scale(0.015625)"/>
       </defs>
       <use xlink:href="#DejaVuSans-38"/>
       <use xlink:href="#DejaVuSans-30" x="63.623047"/>
      </g>
     </g>
    </g>
    <g id="xtick_10">
     <g id="line2d_10">
      <g>
       <use xlink:href="#m916cb63480" x="500.883537" y="321.32" style="stroke: #000000; stroke-width: 0.8"/>
      </g>
     </g>
     <g id="text_10">
      <!-- 90 -->
      <g transform="translate(486.886037 345.036563) scale(0.22 -0.22)">
       <defs>
        <path id="DejaVuSans-39" d="M 703 97 
L 703 672 
Q 941 559 1184 500 
Q 1428 441 1663 441 
Q 2288 441 2617 861 
Q 2947 1281 2994 2138 
Q 2813 1869 2534 1725 
Q 2256 1581 1919 1581 
Q 1219 1581 811 2004 
Q 403 2428 403 3163 
Q 403 3881 828 4315 
Q 1253 4750 1959 4750 
Q 2769 4750 3195 4129 
Q 3622 3509 3622 2328 
Q 3622 1225 3098 567 
Q 2575 -91 1691 -91 
Q 1453 -91 1209 -44 
Q 966 3 703 97 
z
M 1959 2075 
Q 2384 2075 2632 2365 
Q 2881 2656 2881 3163 
Q 2881 3666 2632 3958 
Q 2384 4250 1959 4250 
Q 1534 4250 1286 3958 
Q 1038 3666 1038 3163 
Q 1038 2656 1286 2365 
Q 1534 2075 1959 2075 
z
" transform="scale(0.015625)"/>
       </defs>
       <use xlink:href="#DejaVuSans-39"/>
       <use xlink:href="#DejaVuSans-30" x="63.623047"/>
      </g>
     </g>
    </g>
    <g id="xtick_11">
     <g id="line2d_11">
      <g>
       <use xlink:href="#m916cb63480" x="543.39014" y="321.32" style="stroke: #000000; stroke-width: 0.8"/>
      </g>
     </g>
     <g id="text_11">
      <!-- 100 -->
      <g transform="translate(522.39389 345.036563) scale(0.22 -0.22)">
       <use xlink:href="#DejaVuSans-31"/>
       <use xlink:href="#DejaVuSans-30" x="63.623047"/>
       <use xlink:href="#DejaVuSans-30" x="127.246094"/>
      </g>
     </g>
    </g>
   </g>
   <g id="matplotlib.axis_2">
    <g id="ytick_1">
     <g id="line2d_12">
      <defs>
       <path id="m1f6af6811c" d="M 0 0 
L -3.5 0 
" style="stroke: #000000; stroke-width: 0.8"/>
      </defs>
      <g>
       <use xlink:href="#m1f6af6811c" x="101.534" y="311.938843" style="stroke: #000000; stroke-width: 0.8"/>
      </g>
     </g>
     <g id="text_12">
      <!-- 0.00 -->
      <g transform="translate(45.549625 320.297124) scale(0.22 -0.22)">
       <defs>
        <path id="DejaVuSans-2e" d="M 684 794 
L 1344 794 
L 1344 0 
L 684 0 
L 684 794 
z
" transform="scale(0.015625)"/>
       </defs>
       <use xlink:href="#DejaVuSans-30"/>
       <use xlink:href="#DejaVuSans-2e" x="63.623047"/>
       <use xlink:href="#DejaVuSans-30" x="95.410156"/>
       <use xlink:href="#DejaVuSans-30" x="159.033203"/>
      </g>
     </g>
    </g>
    <g id="ytick_2">
     <g id="line2d_13">
      <g>
       <use xlink:href="#m1f6af6811c" x="101.534" y="268.183275" style="stroke: #000000; stroke-width: 0.8"/>
      </g>
     </g>
     <g id="text_13">
      <!-- 0.05 -->
      <g transform="translate(45.549625 276.541556) scale(0.22 -0.22)">
       <use xlink:href="#DejaVuSans-30"/>
       <use xlink:href="#DejaVuSans-2e" x="63.623047"/>
       <use xlink:href="#DejaVuSans-30" x="95.410156"/>
       <use xlink:href="#DejaVuSans-35" x="159.033203"/>
      </g>
     </g>
    </g>
    <g id="ytick_3">
     <g id="line2d_14">
      <g>
       <use xlink:href="#m1f6af6811c" x="101.534" y="224.427706" style="stroke: #000000; stroke-width: 0.8"/>
      </g>
     </g>
     <g id="text_14">
      <!-- 0.10 -->
      <g transform="translate(45.549625 232.785988) scale(0.22 -0.22)">
       <use xlink:href="#DejaVuSans-30"/>
       <use xlink:href="#DejaVuSans-2e" x="63.623047"/>
       <use xlink:href="#DejaVuSans-31" x="95.410156"/>
       <use xlink:href="#DejaVuSans-30" x="159.033203"/>
      </g>
     </g>
    </g>
    <g id="ytick_4">
     <g id="line2d_15">
      <g>
       <use xlink:href="#m1f6af6811c" x="101.534" y="180.672138" style="stroke: #000000; stroke-width: 0.8"/>
      </g>
     </g>
     <g id="text_15">
      <!-- 0.15 -->
      <g transform="translate(45.549625 189.030419) scale(0.22 -0.22)">
       <use xlink:href="#DejaVuSans-30"/>
       <use xlink:href="#DejaVuSans-2e" x="63.623047"/>
       <use xlink:href="#DejaVuSans-31" x="95.410156"/>
       <use xlink:href="#DejaVuSans-35" x="159.033203"/>
      </g>
     </g>
    </g>
    <g id="ytick_5">
     <g id="line2d_16">
      <g>
       <use xlink:href="#m1f6af6811c" x="101.534" y="136.91657" style="stroke: #000000; stroke-width: 0.8"/>
      </g>
     </g>
     <g id="text_16">
      <!-- 0.20 -->
      <g transform="translate(45.549625 145.274851) scale(0.22 -0.22)">
       <use xlink:href="#DejaVuSans-30"/>
       <use xlink:href="#DejaVuSans-2e" x="63.623047"/>
       <use xlink:href="#DejaVuSans-32" x="95.410156"/>
       <use xlink:href="#DejaVuSans-30" x="159.033203"/>
      </g>
     </g>
    </g>
    <g id="ytick_6">
     <g id="line2d_17">
      <g>
       <use xlink:href="#m1f6af6811c" x="101.534" y="93.161001" style="stroke: #000000; stroke-width: 0.8"/>
      </g>
     </g>
     <g id="text_17">
      <!-- 0.25 -->
      <g transform="translate(45.549625 101.519283) scale(0.22 -0.22)">
       <use xlink:href="#DejaVuSans-30"/>
       <use xlink:href="#DejaVuSans-2e" x="63.623047"/>
       <use xlink:href="#DejaVuSans-32" x="95.410156"/>
       <use xlink:href="#DejaVuSans-35" x="159.033203"/>
      </g>
     </g>
    </g>
    <g id="ytick_7">
     <g id="line2d_18">
      <g>
       <use xlink:href="#m1f6af6811c" x="101.534" y="49.405433" style="stroke: #000000; stroke-width: 0.8"/>
      </g>
     </g>
     <g id="text_18">
      <!-- 0.30 -->
      <g transform="translate(45.549625 57.763714) scale(0.22 -0.22)">
       <use xlink:href="#DejaVuSans-30"/>
       <use xlink:href="#DejaVuSans-2e" x="63.623047"/>
       <use xlink:href="#DejaVuSans-33" x="95.410156"/>
       <use xlink:href="#DejaVuSans-30" x="159.033203"/>
      </g>
     </g>
    </g>
    <g id="text_19">
     <!-- $\overline{A_{-S}}$ -->
     <g transform="translate(36.558375 199.78) rotate(-90) scale(0.24 -0.24)">
      <defs>
       <path id="DejaVuSans-Oblique-41" d="M 2356 4666 
L 3072 4666 
L 3938 0 
L 3278 0 
L 3084 1197 
L 984 1197 
L 325 0 
L -341 0 
L 2356 4666 
z
M 2584 4044 
L 1275 1722 
L 2988 1722 
L 2584 4044 
z
" transform="scale(0.015625)"/>
       <path id="DejaVuSans-2212" d="M 678 2272 
L 4684 2272 
L 4684 1741 
L 678 1741 
L 678 2272 
z
" transform="scale(0.015625)"/>
       <path id="DejaVuSans-Oblique-53" d="M 3859 4513 
L 3738 3897 
Q 3422 4066 3111 4152 
Q 2800 4238 2509 4238 
Q 1944 4238 1609 3991 
Q 1275 3744 1275 3334 
Q 1275 3109 1398 2989 
Q 1522 2869 2034 2731 
L 2413 2638 
Q 3053 2472 3303 2217 
Q 3553 1963 3553 1503 
Q 3553 797 2998 353 
Q 2444 -91 1538 -91 
Q 1166 -91 791 -17 
Q 416 56 38 206 
L 166 856 
Q 513 641 861 531 
Q 1209 422 1556 422 
Q 2147 422 2503 684 
Q 2859 947 2859 1369 
Q 2859 1650 2717 1795 
Q 2575 1941 2106 2059 
L 1728 2156 
Q 1081 2325 845 2545 
Q 609 2766 609 3163 
Q 609 3859 1145 4304 
Q 1681 4750 2541 4750 
Q 2875 4750 3203 4690 
Q 3531 4631 3859 4513 
z
" transform="scale(0.015625)"/>
      </defs>
      <use xlink:href="#DejaVuSans-Oblique-41" transform="translate(0 0.84375)"/>
      <use xlink:href="#DejaVuSans-2212" transform="translate(68.408203 -15.5625) scale(0.7)"/>
      <use xlink:href="#DejaVuSans-Oblique-53" transform="translate(127.060547 -15.5625) scale(0.7)"/>
      <path d="M 0 85.5 
L 0 91.75 
L 174.228516 91.75 
L 174.228516 85.5 
L 0 85.5 
z
"/>
     </g>
    </g>
   </g>
   <g id="line2d_19">
    <path d="M 122.574769 308.361818 
L 135.32675 299.177064 
L 148.078731 290.277731 
L 160.830711 281.550627 
L 173.582692 272.656764 
L 186.334673 263.519628 
L 199.086654 254.160849 
L 211.838635 244.603647 
L 224.590616 234.703247 
L 237.342597 224.386379 
L 250.094578 213.554863 
L 262.846559 202.137131 
L 275.59854 190.181791 
L 288.350521 177.658963 
L 301.102502 165.291716 
L 313.854483 152.647127 
L 326.606464 139.605188 
L 339.358445 134.709343 
L 352.110426 134.117277 
L 364.862407 133.312118 
L 377.614388 132.596103 
L 390.366369 132.412287 
L 403.11835 132.103621 
L 415.870331 131.82378 
L 428.622312 131.157394 
L 441.374293 130.608818 
L 454.126274 130.430253 
L 466.878255 130.126229 
L 479.630236 129.775172 
L 492.382217 129.196104 
L 505.134198 129.063784 
L 517.886179 128.375959 
L 530.63816 128.003572 
L 543.39014 127.702946 
L 543.39014 127.702946 
" clip-path="url(#pe1dd4cf6de)" style="fill: none; stroke: #00d7ff; stroke-width: 1.5; stroke-linecap: square"/>
    <defs>
     <path id="mc2a7da7bc3" d="M 0 3 
C 0.795609 3 1.55874 2.683901 2.12132 2.12132 
C 2.683901 1.55874 3 0.795609 3 0 
C 3 -0.795609 2.683901 -1.55874 2.12132 -2.12132 
C 1.55874 -2.683901 0.795609 -3 0 -3 
C -0.795609 -3 -1.55874 -2.683901 -2.12132 -2.12132 
C -2.683901 -1.55874 -3 -0.795609 -3 0 
C -3 0.795609 -2.683901 1.55874 -2.12132 2.12132 
C -1.55874 2.683901 -0.795609 3 0 3 
z
" style="stroke: #00d7ff"/>
    </defs>
    <g clip-path="url(#pe1dd4cf6de)">
     <use xlink:href="#mc2a7da7bc3" x="122.574769" y="308.361818" style="fill: #00d7ff; stroke: #00d7ff"/>
     <use xlink:href="#mc2a7da7bc3" x="135.32675" y="299.177064" style="fill: #00d7ff; stroke: #00d7ff"/>
     <use xlink:href="#mc2a7da7bc3" x="148.078731" y="290.277731" style="fill: #00d7ff; stroke: #00d7ff"/>
     <use xlink:href="#mc2a7da7bc3" x="160.830711" y="281.550627" style="fill: #00d7ff; stroke: #00d7ff"/>
     <use xlink:href="#mc2a7da7bc3" x="173.582692" y="272.656764" style="fill: #00d7ff; stroke: #00d7ff"/>
     <use xlink:href="#mc2a7da7bc3" x="186.334673" y="263.519628" style="fill: #00d7ff; stroke: #00d7ff"/>
     <use xlink:href="#mc2a7da7bc3" x="199.086654" y="254.160849" style="fill: #00d7ff; stroke: #00d7ff"/>
     <use xlink:href="#mc2a7da7bc3" x="211.838635" y="244.603647" style="fill: #00d7ff; stroke: #00d7ff"/>
     <use xlink:href="#mc2a7da7bc3" x="224.590616" y="234.703247" style="fill: #00d7ff; stroke: #00d7ff"/>
     <use xlink:href="#mc2a7da7bc3" x="237.342597" y="224.386379" style="fill: #00d7ff; stroke: #00d7ff"/>
     <use xlink:href="#mc2a7da7bc3" x="250.094578" y="213.554863" style="fill: #00d7ff; stroke: #00d7ff"/>
     <use xlink:href="#mc2a7da7bc3" x="262.846559" y="202.137131" style="fill: #00d7ff; stroke: #00d7ff"/>
     <use xlink:href="#mc2a7da7bc3" x="275.59854" y="190.181791" style="fill: #00d7ff; stroke: #00d7ff"/>
     <use xlink:href="#mc2a7da7bc3" x="288.350521" y="177.658963" style="fill: #00d7ff; stroke: #00d7ff"/>
     <use xlink:href="#mc2a7da7bc3" x="301.102502" y="165.291716" style="fill: #00d7ff; stroke: #00d7ff"/>
     <use xlink:href="#mc2a7da7bc3" x="313.854483" y="152.647127" style="fill: #00d7ff; stroke: #00d7ff"/>
     <use xlink:href="#mc2a7da7bc3" x="326.606464" y="139.605188" style="fill: #00d7ff; stroke: #00d7ff"/>
     <use xlink:href="#mc2a7da7bc3" x="339.358445" y="134.709343" style="fill: #00d7ff; stroke: #00d7ff"/>
     <use xlink:href="#mc2a7da7bc3" x="352.110426" y="134.117277" style="fill: #00d7ff; stroke: #00d7ff"/>
     <use xlink:href="#mc2a7da7bc3" x="364.862407" y="133.312118" style="fill: #00d7ff; stroke: #00d7ff"/>
     <use xlink:href="#mc2a7da7bc3" x="377.614388" y="132.596103" style="fill: #00d7ff; stroke: #00d7ff"/>
     <use xlink:href="#mc2a7da7bc3" x="390.366369" y="132.412287" style="fill: #00d7ff; stroke: #00d7ff"/>
     <use xlink:href="#mc2a7da7bc3" x="403.11835" y="132.103621" style="fill: #00d7ff; stroke: #00d7ff"/>
     <use xlink:href="#mc2a7da7bc3" x="415.870331" y="131.82378" style="fill: #00d7ff; stroke: #00d7ff"/>
     <use xlink:href="#mc2a7da7bc3" x="428.622312" y="131.157394" style="fill: #00d7ff; stroke: #00d7ff"/>
     <use xlink:href="#mc2a7da7bc3" x="441.374293" y="130.608818" style="fill: #00d7ff; stroke: #00d7ff"/>
     <use xlink:href="#mc2a7da7bc3" x="454.126274" y="130.430253" style="fill: #00d7ff; stroke: #00d7ff"/>
     <use xlink:href="#mc2a7da7bc3" x="466.878255" y="130.126229" style="fill: #00d7ff; stroke: #00d7ff"/>
     <use xlink:href="#mc2a7da7bc3" x="479.630236" y="129.775172" style="fill: #00d7ff; stroke: #00d7ff"/>
     <use xlink:href="#mc2a7da7bc3" x="492.382217" y="129.196104" style="fill: #00d7ff; stroke: #00d7ff"/>
     <use xlink:href="#mc2a7da7bc3" x="505.134198" y="129.063784" style="fill: #00d7ff; stroke: #00d7ff"/>
     <use xlink:href="#mc2a7da7bc3" x="517.886179" y="128.375959" style="fill: #00d7ff; stroke: #00d7ff"/>
     <use xlink:href="#mc2a7da7bc3" x="530.63816" y="128.003572" style="fill: #00d7ff; stroke: #00d7ff"/>
     <use xlink:href="#mc2a7da7bc3" x="543.39014" y="127.702946" style="fill: #00d7ff; stroke: #00d7ff"/>
     <use xlink:href="#mc2a7da7bc3" x="543.39014" y="127.702946" style="fill: #00d7ff; stroke: #00d7ff"/>
    </g>
   </g>
   <g id="line2d_20">
    <path d="M 122.574769 308.361818 
L 135.32675 299.177064 
L 148.078731 290.266752 
L 160.830711 281.540794 
L 173.582692 272.610929 
L 186.334673 263.45821 
L 199.086654 254.075219 
L 211.838635 244.395261 
L 224.590616 234.407423 
L 237.342597 224.01089 
L 250.094578 213.064355 
L 262.846559 201.525248 
L 275.59854 189.421383 
L 288.350521 176.728452 
L 301.102502 164.072028 
L 313.854483 151.132152 
L 326.606464 137.714067 
L 339.358445 128.471767 
L 352.110426 122.49362 
L 364.862407 116.755026 
L 377.614388 111.334835 
L 390.366369 106.017873 
L 403.11835 100.831289 
L 415.870331 95.727079 
L 428.622312 90.851546 
L 441.374293 85.991889 
L 454.126274 81.291932 
L 466.878255 76.539951 
L 479.630236 71.949706 
L 492.382217 67.344241 
L 505.134198 62.902128 
L 517.886179 58.300443 
L 530.63816 53.753377 
L 543.39014 49.198182 
L 543.39014 49.198182 
" clip-path="url(#pe1dd4cf6de)" style="fill: none; stroke: #ff7c00; stroke-width: 1.5; stroke-linecap: square"/>
    <defs>
     <path id="mbdf3fb6d92" d="M 0 3 
C 0.795609 3 1.55874 2.683901 2.12132 2.12132 
C 2.683901 1.55874 3 0.795609 3 0 
C 3 -0.795609 2.683901 -1.55874 2.12132 -2.12132 
C 1.55874 -2.683901 0.795609 -3 0 -3 
C -0.795609 -3 -1.55874 -2.683901 -2.12132 -2.12132 
C -2.683901 -1.55874 -3 -0.795609 -3 0 
C -3 0.795609 -2.683901 1.55874 -2.12132 2.12132 
C -1.55874 2.683901 -0.795609 3 0 3 
z
" style="stroke: #ff7c00"/>
    </defs>
    <g clip-path="url(#pe1dd4cf6de)">
     <use xlink:href="#mbdf3fb6d92" x="122.574769" y="308.361818" style="fill: #ff7c00; stroke: #ff7c00"/>
     <use xlink:href="#mbdf3fb6d92" x="135.32675" y="299.177064" style="fill: #ff7c00; stroke: #ff7c00"/>
     <use xlink:href="#mbdf3fb6d92" x="148.078731" y="290.266752" style="fill: #ff7c00; stroke: #ff7c00"/>
     <use xlink:href="#mbdf3fb6d92" x="160.830711" y="281.540794" style="fill: #ff7c00; stroke: #ff7c00"/>
     <use xlink:href="#mbdf3fb6d92" x="173.582692" y="272.610929" style="fill: #ff7c00; stroke: #ff7c00"/>
     <use xlink:href="#mbdf3fb6d92" x="186.334673" y="263.45821" style="fill: #ff7c00; stroke: #ff7c00"/>
     <use xlink:href="#mbdf3fb6d92" x="199.086654" y="254.075219" style="fill: #ff7c00; stroke: #ff7c00"/>
     <use xlink:href="#mbdf3fb6d92" x="211.838635" y="244.395261" style="fill: #ff7c00; stroke: #ff7c00"/>
     <use xlink:href="#mbdf3fb6d92" x="224.590616" y="234.407423" style="fill: #ff7c00; stroke: #ff7c00"/>
     <use xlink:href="#mbdf3fb6d92" x="237.342597" y="224.01089" style="fill: #ff7c00; stroke: #ff7c00"/>
     <use xlink:href="#mbdf3fb6d92" x="250.094578" y="213.064355" style="fill: #ff7c00; stroke: #ff7c00"/>
     <use xlink:href="#mbdf3fb6d92" x="262.846559" y="201.525248" style="fill: #ff7c00; stroke: #ff7c00"/>
     <use xlink:href="#mbdf3fb6d92" x="275.59854" y="189.421383" style="fill: #ff7c00; stroke: #ff7c00"/>
     <use xlink:href="#mbdf3fb6d92" x="288.350521" y="176.728452" style="fill: #ff7c00; stroke: #ff7c00"/>
     <use xlink:href="#mbdf3fb6d92" x="301.102502" y="164.072028" style="fill: #ff7c00; stroke: #ff7c00"/>
     <use xlink:href="#mbdf3fb6d92" x="313.854483" y="151.132152" style="fill: #ff7c00; stroke: #ff7c00"/>
     <use xlink:href="#mbdf3fb6d92" x="326.606464" y="137.714067" style="fill: #ff7c00; stroke: #ff7c00"/>
     <use xlink:href="#mbdf3fb6d92" x="339.358445" y="128.471767" style="fill: #ff7c00; stroke: #ff7c00"/>
     <use xlink:href="#mbdf3fb6d92" x="352.110426" y="122.49362" style="fill: #ff7c00; stroke: #ff7c00"/>
     <use xlink:href="#mbdf3fb6d92" x="364.862407" y="116.755026" style="fill: #ff7c00; stroke: #ff7c00"/>
     <use xlink:href="#mbdf3fb6d92" x="377.614388" y="111.334835" style="fill: #ff7c00; stroke: #ff7c00"/>
     <use xlink:href="#mbdf3fb6d92" x="390.366369" y="106.017873" style="fill: #ff7c00; stroke: #ff7c00"/>
     <use xlink:href="#mbdf3fb6d92" x="403.11835" y="100.831289" style="fill: #ff7c00; stroke: #ff7c00"/>
     <use xlink:href="#mbdf3fb6d92" x="415.870331" y="95.727079" style="fill: #ff7c00; stroke: #ff7c00"/>
     <use xlink:href="#mbdf3fb6d92" x="428.622312" y="90.851546" style="fill: #ff7c00; stroke: #ff7c00"/>
     <use xlink:href="#mbdf3fb6d92" x="441.374293" y="85.991889" style="fill: #ff7c00; stroke: #ff7c00"/>
     <use xlink:href="#mbdf3fb6d92" x="454.126274" y="81.291932" style="fill: #ff7c00; stroke: #ff7c00"/>
     <use xlink:href="#mbdf3fb6d92" x="466.878255" y="76.539951" style="fill: #ff7c00; stroke: #ff7c00"/>
     <use xlink:href="#mbdf3fb6d92" x="479.630236" y="71.949706" style="fill: #ff7c00; stroke: #ff7c00"/>
     <use xlink:href="#mbdf3fb6d92" x="492.382217" y="67.344241" style="fill: #ff7c00; stroke: #ff7c00"/>
     <use xlink:href="#mbdf3fb6d92" x="505.134198" y="62.902128" style="fill: #ff7c00; stroke: #ff7c00"/>
     <use xlink:href="#mbdf3fb6d92" x="517.886179" y="58.300443" style="fill: #ff7c00; stroke: #ff7c00"/>
     <use xlink:href="#mbdf3fb6d92" x="530.63816" y="53.753377" style="fill: #ff7c00; stroke: #ff7c00"/>
     <use xlink:href="#mbdf3fb6d92" x="543.39014" y="49.198182" style="fill: #ff7c00; stroke: #ff7c00"/>
     <use xlink:href="#mbdf3fb6d92" x="543.39014" y="49.198182" style="fill: #ff7c00; stroke: #ff7c00"/>
    </g>
   </g>
   <g id="patch_3">
    <path d="M 101.534 321.32 
L 101.534 36.24 
" style="fill: none; stroke: #000000; stroke-width: 0.8; stroke-linejoin: miter; stroke-linecap: square"/>
   </g>
   <g id="patch_4">
    <path d="M 564.430909 321.32 
L 564.430909 36.24 
" style="fill: none; stroke: #000000; stroke-width: 0.8; stroke-linejoin: miter; stroke-linecap: square"/>
   </g>
   <g id="patch_5">
    <path d="M 101.534 321.32 
L 564.430909 321.32 
" style="fill: none; stroke: #000000; stroke-width: 0.8; stroke-linejoin: miter; stroke-linecap: square"/>
   </g>
   <g id="patch_6">
    <path d="M 101.534 36.24 
L 564.430909 36.24 
" style="fill: none; stroke: #000000; stroke-width: 0.8; stroke-linejoin: miter; stroke-linecap: square"/>
   </g>
   <g id="text_20">
    <!-- Linear Regression with cancellation -->
    <g transform="translate(102.914955 30.24) scale(0.26 -0.26)">
     <defs>
      <path id="DejaVuSans-4c" d="M 628 4666 
L 1259 4666 
L 1259 531 
L 3531 531 
L 3531 0 
L 628 0 
L 628 4666 
z
" transform="scale(0.015625)"/>
      <path id="DejaVuSans-69" d="M 603 3500 
L 1178 3500 
L 1178 0 
L 603 0 
L 603 3500 
z
M 603 4863 
L 1178 4863 
L 1178 4134 
L 603 4134 
L 603 4863 
z
" transform="scale(0.015625)"/>
      <path id="DejaVuSans-6e" d="M 3513 2113 
L 3513 0 
L 2938 0 
L 2938 2094 
Q 2938 2591 2744 2837 
Q 2550 3084 2163 3084 
Q 1697 3084 1428 2787 
Q 1159 2491 1159 1978 
L 1159 0 
L 581 0 
L 581 3500 
L 1159 3500 
L 1159 2956 
Q 1366 3272 1645 3428 
Q 1925 3584 2291 3584 
Q 2894 3584 3203 3211 
Q 3513 2838 3513 2113 
z
" transform="scale(0.015625)"/>
      <path id="DejaVuSans-65" d="M 3597 1894 
L 3597 1613 
L 953 1613 
Q 991 1019 1311 708 
Q 1631 397 2203 397 
Q 2534 397 2845 478 
Q 3156 559 3463 722 
L 3463 178 
Q 3153 47 2828 -22 
Q 2503 -91 2169 -91 
Q 1331 -91 842 396 
Q 353 884 353 1716 
Q 353 2575 817 3079 
Q 1281 3584 2069 3584 
Q 2775 3584 3186 3129 
Q 3597 2675 3597 1894 
z
M 3022 2063 
Q 3016 2534 2758 2815 
Q 2500 3097 2075 3097 
Q 1594 3097 1305 2825 
Q 1016 2553 972 2059 
L 3022 2063 
z
" transform="scale(0.015625)"/>
      <path id="DejaVuSans-61" d="M 2194 1759 
Q 1497 1759 1228 1600 
Q 959 1441 959 1056 
Q 959 750 1161 570 
Q 1363 391 1709 391 
Q 2188 391 2477 730 
Q 2766 1069 2766 1631 
L 2766 1759 
L 2194 1759 
z
M 3341 1997 
L 3341 0 
L 2766 0 
L 2766 531 
Q 2569 213 2275 61 
Q 1981 -91 1556 -91 
Q 1019 -91 701 211 
Q 384 513 384 1019 
Q 384 1609 779 1909 
Q 1175 2209 1959 2209 
L 2766 2209 
L 2766 2266 
Q 2766 2663 2505 2880 
Q 2244 3097 1772 3097 
Q 1472 3097 1187 3025 
Q 903 2953 641 2809 
L 641 3341 
Q 956 3463 1253 3523 
Q 1550 3584 1831 3584 
Q 2591 3584 2966 3190 
Q 3341 2797 3341 1997 
z
" transform="scale(0.015625)"/>
      <path id="DejaVuSans-72" d="M 2631 2963 
Q 2534 3019 2420 3045 
Q 2306 3072 2169 3072 
Q 1681 3072 1420 2755 
Q 1159 2438 1159 1844 
L 1159 0 
L 581 0 
L 581 3500 
L 1159 3500 
L 1159 2956 
Q 1341 3275 1631 3429 
Q 1922 3584 2338 3584 
Q 2397 3584 2469 3576 
Q 2541 3569 2628 3553 
L 2631 2963 
z
" transform="scale(0.015625)"/>
      <path id="DejaVuSans-20" transform="scale(0.015625)"/>
      <path id="DejaVuSans-52" d="M 2841 2188 
Q 3044 2119 3236 1894 
Q 3428 1669 3622 1275 
L 4263 0 
L 3584 0 
L 2988 1197 
Q 2756 1666 2539 1819 
Q 2322 1972 1947 1972 
L 1259 1972 
L 1259 0 
L 628 0 
L 628 4666 
L 2053 4666 
Q 2853 4666 3247 4331 
Q 3641 3997 3641 3322 
Q 3641 2881 3436 2590 
Q 3231 2300 2841 2188 
z
M 1259 4147 
L 1259 2491 
L 2053 2491 
Q 2509 2491 2742 2702 
Q 2975 2913 2975 3322 
Q 2975 3731 2742 3939 
Q 2509 4147 2053 4147 
L 1259 4147 
z
" transform="scale(0.015625)"/>
      <path id="DejaVuSans-67" d="M 2906 1791 
Q 2906 2416 2648 2759 
Q 2391 3103 1925 3103 
Q 1463 3103 1205 2759 
Q 947 2416 947 1791 
Q 947 1169 1205 825 
Q 1463 481 1925 481 
Q 2391 481 2648 825 
Q 2906 1169 2906 1791 
z
M 3481 434 
Q 3481 -459 3084 -895 
Q 2688 -1331 1869 -1331 
Q 1566 -1331 1297 -1286 
Q 1028 -1241 775 -1147 
L 775 -588 
Q 1028 -725 1275 -790 
Q 1522 -856 1778 -856 
Q 2344 -856 2625 -561 
Q 2906 -266 2906 331 
L 2906 616 
Q 2728 306 2450 153 
Q 2172 0 1784 0 
Q 1141 0 747 490 
Q 353 981 353 1791 
Q 353 2603 747 3093 
Q 1141 3584 1784 3584 
Q 2172 3584 2450 3431 
Q 2728 3278 2906 2969 
L 2906 3500 
L 3481 3500 
L 3481 434 
z
" transform="scale(0.015625)"/>
      <path id="DejaVuSans-73" d="M 2834 3397 
L 2834 2853 
Q 2591 2978 2328 3040 
Q 2066 3103 1784 3103 
Q 1356 3103 1142 2972 
Q 928 2841 928 2578 
Q 928 2378 1081 2264 
Q 1234 2150 1697 2047 
L 1894 2003 
Q 2506 1872 2764 1633 
Q 3022 1394 3022 966 
Q 3022 478 2636 193 
Q 2250 -91 1575 -91 
Q 1294 -91 989 -36 
Q 684 19 347 128 
L 347 722 
Q 666 556 975 473 
Q 1284 391 1588 391 
Q 1994 391 2212 530 
Q 2431 669 2431 922 
Q 2431 1156 2273 1281 
Q 2116 1406 1581 1522 
L 1381 1569 
Q 847 1681 609 1914 
Q 372 2147 372 2553 
Q 372 3047 722 3315 
Q 1072 3584 1716 3584 
Q 2034 3584 2315 3537 
Q 2597 3491 2834 3397 
z
" transform="scale(0.015625)"/>
      <path id="DejaVuSans-6f" d="M 1959 3097 
Q 1497 3097 1228 2736 
Q 959 2375 959 1747 
Q 959 1119 1226 758 
Q 1494 397 1959 397 
Q 2419 397 2687 759 
Q 2956 1122 2956 1747 
Q 2956 2369 2687 2733 
Q 2419 3097 1959 3097 
z
M 1959 3584 
Q 2709 3584 3137 3096 
Q 3566 2609 3566 1747 
Q 3566 888 3137 398 
Q 2709 -91 1959 -91 
Q 1206 -91 779 398 
Q 353 888 353 1747 
Q 353 2609 779 3096 
Q 1206 3584 1959 3584 
z
" transform="scale(0.015625)"/>
      <path id="DejaVuSans-77" d="M 269 3500 
L 844 3500 
L 1563 769 
L 2278 3500 
L 2956 3500 
L 3675 769 
L 4391 3500 
L 4966 3500 
L 4050 0 
L 3372 0 
L 2619 2869 
L 1863 0 
L 1184 0 
L 269 3500 
z
" transform="scale(0.015625)"/>
      <path id="DejaVuSans-74" d="M 1172 4494 
L 1172 3500 
L 2356 3500 
L 2356 3053 
L 1172 3053 
L 1172 1153 
Q 1172 725 1289 603 
Q 1406 481 1766 481 
L 2356 481 
L 2356 0 
L 1766 0 
Q 1100 0 847 248 
Q 594 497 594 1153 
L 594 3053 
L 172 3053 
L 172 3500 
L 594 3500 
L 594 4494 
L 1172 4494 
z
" transform="scale(0.015625)"/>
      <path id="DejaVuSans-68" d="M 3513 2113 
L 3513 0 
L 2938 0 
L 2938 2094 
Q 2938 2591 2744 2837 
Q 2550 3084 2163 3084 
Q 1697 3084 1428 2787 
Q 1159 2491 1159 1978 
L 1159 0 
L 581 0 
L 581 4863 
L 1159 4863 
L 1159 2956 
Q 1366 3272 1645 3428 
Q 1925 3584 2291 3584 
Q 2894 3584 3203 3211 
Q 3513 2838 3513 2113 
z
" transform="scale(0.015625)"/>
      <path id="DejaVuSans-63" d="M 3122 3366 
L 3122 2828 
Q 2878 2963 2633 3030 
Q 2388 3097 2138 3097 
Q 1578 3097 1268 2742 
Q 959 2388 959 1747 
Q 959 1106 1268 751 
Q 1578 397 2138 397 
Q 2388 397 2633 464 
Q 2878 531 3122 666 
L 3122 134 
Q 2881 22 2623 -34 
Q 2366 -91 2075 -91 
Q 1284 -91 818 406 
Q 353 903 353 1747 
Q 353 2603 823 3093 
Q 1294 3584 2113 3584 
Q 2378 3584 2631 3529 
Q 2884 3475 3122 3366 
z
" transform="scale(0.015625)"/>
      <path id="DejaVuSans-6c" d="M 603 4863 
L 1178 4863 
L 1178 0 
L 603 0 
L 603 4863 
z
" transform="scale(0.015625)"/>
     </defs>
     <use xlink:href="#DejaVuSans-4c"/>
     <use xlink:href="#DejaVuSans-69" x="55.712891"/>
     <use xlink:href="#DejaVuSans-6e" x="83.496094"/>
     <use xlink:href="#DejaVuSans-65" x="146.875"/>
     <use xlink:href="#DejaVuSans-61" x="208.398438"/>
     <use xlink:href="#DejaVuSans-72" x="269.677734"/>
     <use xlink:href="#DejaVuSans-20" x="310.791016"/>
     <use xlink:href="#DejaVuSans-52" x="342.578125"/>
     <use xlink:href="#DejaVuSans-65" x="407.560547"/>
     <use xlink:href="#DejaVuSans-67" x="469.083984"/>
     <use xlink:href="#DejaVuSans-72" x="532.560547"/>
     <use xlink:href="#DejaVuSans-65" x="571.423828"/>
     <use xlink:href="#DejaVuSans-73" x="632.947266"/>
     <use xlink:href="#DejaVuSans-73" x="685.046875"/>
     <use xlink:href="#DejaVuSans-69" x="737.146484"/>
     <use xlink:href="#DejaVuSans-6f" x="764.929688"/>
     <use xlink:href="#DejaVuSans-6e" x="826.111328"/>
     <use xlink:href="#DejaVuSans-20" x="889.490234"/>
     <use xlink:href="#DejaVuSans-77" x="921.277344"/>
     <use xlink:href="#DejaVuSans-69" x="1003.064453"/>
     <use xlink:href="#DejaVuSans-74" x="1030.847656"/>
     <use xlink:href="#DejaVuSans-68" x="1070.056641"/>
     <use xlink:href="#DejaVuSans-20" x="1133.435547"/>
     <use xlink:href="#DejaVuSans-63" x="1165.222656"/>
     <use xlink:href="#DejaVuSans-61" x="1220.203125"/>
     <use xlink:href="#DejaVuSans-6e" x="1281.482422"/>
     <use xlink:href="#DejaVuSans-63" x="1344.861328"/>
     <use xlink:href="#DejaVuSans-65" x="1399.841797"/>
     <use xlink:href="#DejaVuSans-6c" x="1461.365234"/>
     <use xlink:href="#DejaVuSans-6c" x="1489.148438"/>
     <use xlink:href="#DejaVuSans-61" x="1516.931641"/>
     <use xlink:href="#DejaVuSans-74" x="1578.210938"/>
     <use xlink:href="#DejaVuSans-69" x="1617.419922"/>
     <use xlink:href="#DejaVuSans-6f" x="1645.203125"/>
     <use xlink:href="#DejaVuSans-6e" x="1706.384766"/>
    </g>
   </g>
  </g>
 </g>
 <defs>
  <clipPath id="pe1dd4cf6de">
   <rect x="101.534" y="36.24" width="462.896909" height="285.08"/>
  </clipPath>
 </defs>
</svg>
