<?xml version="1.0" encoding="utf-8" standalone="no"?>
<!DOCTYPE svg PUBLIC "-//W3C//DTD SVG 1.1//EN"
  "http://www.w3.org/Graphics/SVG/1.1/DTD/svg11.dtd">
<svg xmlns:xlink="http://www.w3.org/1999/xlink" width="576pt" height="360pt" viewBox="0 0 576 360" xmlns="http://www.w3.org/2000/svg" version="1.1">
 <metadata>
  <rdf:RDF xmlns:dc="http://purl.org/dc/elements/1.1/" xmlns:cc="http://creativecommons.org/ns#" xmlns:rdf="http://www.w3.org/1999/02/22-rdf-syntax-ns#">
   <cc:Work>
    <dc:type rdf:resource="http://purl.org/dc/dcmitype/StillImage"/>
    <dc:date>2024-05-13T08:45:40.279416</dc:date>
    <dc:format>image/svg+xml</dc:format>
    <dc:creator>
     <cc:Agent>
      <dc:title>Matplotlib v3.8.0, https://matplotlib.org/</dc:title>
     </cc:Agent>
    </dc:creator>
   </cc:Work>
  </rdf:RDF>
 </metadata>
 <defs>
  <style type="text/css">*{stroke-linejoin: round; stroke-linecap: butt}</style>
 </defs>
 <g id="figure_1">
  <g id="patch_1">
   <path d="M 0 360 
L 576 360 
L 576 0 
L 0 0 
z
" style="fill: #ffffff"/>
  </g>
  <g id="axes_1">
   <g id="patch_2">
    <path d="M 52.81 293.56 
L 564.430909 293.56 
L 564.430909 10.8 
L 52.81 10.8 
z
" style="fill: #ffffff"/>
   </g>
   <g id="matplotlib.axis_1">
    <g id="xtick_1">
     <g id="line2d_1">
      <defs>
       <path id="ma6c415b352" d="M 0 0 
L 0 3.5 
" style="stroke: #000000; stroke-width: 0.8"/>
      </defs>
      <g>
       <use xlink:href="#ma6c415b352" x="76.065496" y="293.56" style="stroke: #000000; stroke-width: 0.8"/>
      </g>
     </g>
     <g id="text_1">
      <!-- 1 -->
      <g transform="translate(69.066746 317.276563) scale(0.22 -0.22)">
       <defs>
        <path id="DejaVuSans-31" d="M 794 531 
L 1825 531 
L 1825 4091 
L 703 3866 
L 703 4441 
L 1819 4666 
L 2450 4666 
L 2450 531 
L 3481 531 
L 3481 0 
L 794 0 
L 794 531 
z
" transform="scale(0.015625)"/>
       </defs>
       <use xlink:href="#DejaVuSans-31"/>
      </g>
     </g>
    </g>
    <g id="xtick_2">
     <g id="line2d_2">
      <g>
       <use xlink:href="#ma6c415b352" x="118.348216" y="293.56" style="stroke: #000000; stroke-width: 0.8"/>
      </g>
     </g>
     <g id="text_2">
      <!-- 10 -->
      <g transform="translate(104.350716 317.276563) scale(0.22 -0.22)">
       <defs>
        <path id="DejaVuSans-30" d="M 2034 4250 
Q 1547 4250 1301 3770 
Q 1056 3291 1056 2328 
Q 1056 1369 1301 889 
Q 1547 409 2034 409 
Q 2525 409 2770 889 
Q 3016 1369 3016 2328 
Q 3016 3291 2770 3770 
Q 2525 4250 2034 4250 
z
M 2034 4750 
Q 2819 4750 3233 4129 
Q 3647 3509 3647 2328 
Q 3647 1150 3233 529 
Q 2819 -91 2034 -91 
Q 1250 -91 836 529 
Q 422 1150 422 2328 
Q 422 3509 836 4129 
Q 1250 4750 2034 4750 
z
" transform="scale(0.015625)"/>
       </defs>
       <use xlink:href="#DejaVuSans-31"/>
       <use xlink:href="#DejaVuSans-30" x="63.623047"/>
      </g>
     </g>
    </g>
    <g id="xtick_3">
     <g id="line2d_3">
      <g>
       <use xlink:href="#ma6c415b352" x="165.329015" y="293.56" style="stroke: #000000; stroke-width: 0.8"/>
      </g>
     </g>
     <g id="text_3">
      <!-- 20 -->
      <g transform="translate(151.331515 317.276563) scale(0.22 -0.22)">
       <defs>
        <path id="DejaVuSans-32" d="M 1228 531 
L 3431 531 
L 3431 0 
L 469 0 
L 469 531 
Q 828 903 1448 1529 
Q 2069 2156 2228 2338 
Q 2531 2678 2651 2914 
Q 2772 3150 2772 3378 
Q 2772 3750 2511 3984 
Q 2250 4219 1831 4219 
Q 1534 4219 1204 4116 
Q 875 4013 500 3803 
L 500 4441 
Q 881 4594 1212 4672 
Q 1544 4750 1819 4750 
Q 2544 4750 2975 4387 
Q 3406 4025 3406 3419 
Q 3406 3131 3298 2873 
Q 3191 2616 2906 2266 
Q 2828 2175 2409 1742 
Q 1991 1309 1228 531 
z
" transform="scale(0.015625)"/>
       </defs>
       <use xlink:href="#DejaVuSans-32"/>
       <use xlink:href="#DejaVuSans-30" x="63.623047"/>
      </g>
     </g>
    </g>
    <g id="xtick_4">
     <g id="line2d_4">
      <g>
       <use xlink:href="#ma6c415b352" x="212.309815" y="293.56" style="stroke: #000000; stroke-width: 0.8"/>
      </g>
     </g>
     <g id="text_4">
      <!-- 30 -->
      <g transform="translate(198.312315 317.276563) scale(0.22 -0.22)">
       <defs>
        <path id="DejaVuSans-33" d="M 2597 2516 
Q 3050 2419 3304 2112 
Q 3559 1806 3559 1356 
Q 3559 666 3084 287 
Q 2609 -91 1734 -91 
Q 1441 -91 1130 -33 
Q 819 25 488 141 
L 488 750 
Q 750 597 1062 519 
Q 1375 441 1716 441 
Q 2309 441 2620 675 
Q 2931 909 2931 1356 
Q 2931 1769 2642 2001 
Q 2353 2234 1838 2234 
L 1294 2234 
L 1294 2753 
L 1863 2753 
Q 2328 2753 2575 2939 
Q 2822 3125 2822 3475 
Q 2822 3834 2567 4026 
Q 2313 4219 1838 4219 
Q 1578 4219 1281 4162 
Q 984 4106 628 3988 
L 628 4550 
Q 988 4650 1302 4700 
Q 1616 4750 1894 4750 
Q 2613 4750 3031 4423 
Q 3450 4097 3450 3541 
Q 3450 3153 3228 2886 
Q 3006 2619 2597 2516 
z
" transform="scale(0.015625)"/>
       </defs>
       <use xlink:href="#DejaVuSans-33"/>
       <use xlink:href="#DejaVuSans-30" x="63.623047"/>
      </g>
     </g>
    </g>
    <g id="xtick_5">
     <g id="line2d_5">
      <g>
       <use xlink:href="#ma6c415b352" x="259.290615" y="293.56" style="stroke: #000000; stroke-width: 0.8"/>
      </g>
     </g>
     <g id="text_5">
      <!-- 40 -->
      <g transform="translate(245.293115 317.276563) scale(0.22 -0.22)">
       <defs>
        <path id="DejaVuSans-34" d="M 2419 4116 
L 825 1625 
L 2419 1625 
L 2419 4116 
z
M 2253 4666 
L 3047 4666 
L 3047 1625 
L 3713 1625 
L 3713 1100 
L 3047 1100 
L 3047 0 
L 2419 0 
L 2419 1100 
L 313 1100 
L 313 1709 
L 2253 4666 
z
" transform="scale(0.015625)"/>
       </defs>
       <use xlink:href="#DejaVuSans-34"/>
       <use xlink:href="#DejaVuSans-30" x="63.623047"/>
      </g>
     </g>
    </g>
    <g id="xtick_6">
     <g id="line2d_6">
      <g>
       <use xlink:href="#ma6c415b352" x="306.271415" y="293.56" style="stroke: #000000; stroke-width: 0.8"/>
      </g>
     </g>
     <g id="text_6">
      <!-- 50 -->
      <g transform="translate(292.273915 317.276563) scale(0.22 -0.22)">
       <defs>
        <path id="DejaVuSans-35" d="M 691 4666 
L 3169 4666 
L 3169 4134 
L 1269 4134 
L 1269 2991 
Q 1406 3038 1543 3061 
Q 1681 3084 1819 3084 
Q 2600 3084 3056 2656 
Q 3513 2228 3513 1497 
Q 3513 744 3044 326 
Q 2575 -91 1722 -91 
Q 1428 -91 1123 -41 
Q 819 9 494 109 
L 494 744 
Q 775 591 1075 516 
Q 1375 441 1709 441 
Q 2250 441 2565 725 
Q 2881 1009 2881 1497 
Q 2881 1984 2565 2268 
Q 2250 2553 1709 2553 
Q 1456 2553 1204 2497 
Q 953 2441 691 2322 
L 691 4666 
z
" transform="scale(0.015625)"/>
       </defs>
       <use xlink:href="#DejaVuSans-35"/>
       <use xlink:href="#DejaVuSans-30" x="63.623047"/>
      </g>
     </g>
    </g>
    <g id="xtick_7">
     <g id="line2d_7">
      <g>
       <use xlink:href="#ma6c415b352" x="353.252214" y="293.56" style="stroke: #000000; stroke-width: 0.8"/>
      </g>
     </g>
     <g id="text_7">
      <!-- 60 -->
      <g transform="translate(339.254714 317.276563) scale(0.22 -0.22)">
       <defs>
        <path id="DejaVuSans-36" d="M 2113 2584 
Q 1688 2584 1439 2293 
Q 1191 2003 1191 1497 
Q 1191 994 1439 701 
Q 1688 409 2113 409 
Q 2538 409 2786 701 
Q 3034 994 3034 1497 
Q 3034 2003 2786 2293 
Q 2538 2584 2113 2584 
z
M 3366 4563 
L 3366 3988 
Q 3128 4100 2886 4159 
Q 2644 4219 2406 4219 
Q 1781 4219 1451 3797 
Q 1122 3375 1075 2522 
Q 1259 2794 1537 2939 
Q 1816 3084 2150 3084 
Q 2853 3084 3261 2657 
Q 3669 2231 3669 1497 
Q 3669 778 3244 343 
Q 2819 -91 2113 -91 
Q 1303 -91 875 529 
Q 447 1150 447 2328 
Q 447 3434 972 4092 
Q 1497 4750 2381 4750 
Q 2619 4750 2861 4703 
Q 3103 4656 3366 4563 
z
" transform="scale(0.015625)"/>
       </defs>
       <use xlink:href="#DejaVuSans-36"/>
       <use xlink:href="#DejaVuSans-30" x="63.623047"/>
      </g>
     </g>
    </g>
    <g id="xtick_8">
     <g id="line2d_8">
      <g>
       <use xlink:href="#ma6c415b352" x="400.233014" y="293.56" style="stroke: #000000; stroke-width: 0.8"/>
      </g>
     </g>
     <g id="text_8">
      <!-- 70 -->
      <g transform="translate(386.235514 317.276563) scale(0.22 -0.22)">
       <defs>
        <path id="DejaVuSans-37" d="M 525 4666 
L 3525 4666 
L 3525 4397 
L 1831 0 
L 1172 0 
L 2766 4134 
L 525 4134 
L 525 4666 
z
" transform="scale(0.015625)"/>
       </defs>
       <use xlink:href="#DejaVuSans-37"/>
       <use xlink:href="#DejaVuSans-30" x="63.623047"/>
      </g>
     </g>
    </g>
    <g id="xtick_9">
     <g id="line2d_9">
      <g>
       <use xlink:href="#ma6c415b352" x="447.213814" y="293.56" style="stroke: #000000; stroke-width: 0.8"/>
      </g>
     </g>
     <g id="text_9">
      <!-- 80 -->
      <g transform="translate(433.216314 317.276563) scale(0.22 -0.22)">
       <defs>
        <path id="DejaVuSans-38" d="M 2034 2216 
Q 1584 2216 1326 1975 
Q 1069 1734 1069 1313 
Q 1069 891 1326 650 
Q 1584 409 2034 409 
Q 2484 409 2743 651 
Q 3003 894 3003 1313 
Q 3003 1734 2745 1975 
Q 2488 2216 2034 2216 
z
M 1403 2484 
Q 997 2584 770 2862 
Q 544 3141 544 3541 
Q 544 4100 942 4425 
Q 1341 4750 2034 4750 
Q 2731 4750 3128 4425 
Q 3525 4100 3525 3541 
Q 3525 3141 3298 2862 
Q 3072 2584 2669 2484 
Q 3125 2378 3379 2068 
Q 3634 1759 3634 1313 
Q 3634 634 3220 271 
Q 2806 -91 2034 -91 
Q 1263 -91 848 271 
Q 434 634 434 1313 
Q 434 1759 690 2068 
Q 947 2378 1403 2484 
z
M 1172 3481 
Q 1172 3119 1398 2916 
Q 1625 2713 2034 2713 
Q 2441 2713 2670 2916 
Q 2900 3119 2900 3481 
Q 2900 3844 2670 4047 
Q 2441 4250 2034 4250 
Q 1625 4250 1398 4047 
Q 1172 3844 1172 3481 
z
" transform="scale(0.015625)"/>
       </defs>
       <use xlink:href="#DejaVuSans-38"/>
       <use xlink:href="#DejaVuSans-30" x="63.623047"/>
      </g>
     </g>
    </g>
    <g id="xtick_10">
     <g id="line2d_10">
      <g>
       <use xlink:href="#ma6c415b352" x="494.194613" y="293.56" style="stroke: #000000; stroke-width: 0.8"/>
      </g>
     </g>
     <g id="text_10">
      <!-- 90 -->
      <g transform="translate(480.197113 317.276563) scale(0.22 -0.22)">
       <defs>
        <path id="DejaVuSans-39" d="M 703 97 
L 703 672 
Q 941 559 1184 500 
Q 1428 441 1663 441 
Q 2288 441 2617 861 
Q 2947 1281 2994 2138 
Q 2813 1869 2534 1725 
Q 2256 1581 1919 1581 
Q 1219 1581 811 2004 
Q 403 2428 403 3163 
Q 403 3881 828 4315 
Q 1253 4750 1959 4750 
Q 2769 4750 3195 4129 
Q 3622 3509 3622 2328 
Q 3622 1225 3098 567 
Q 2575 -91 1691 -91 
Q 1453 -91 1209 -44 
Q 966 3 703 97 
z
M 1959 2075 
Q 2384 2075 2632 2365 
Q 2881 2656 2881 3163 
Q 2881 3666 2632 3958 
Q 2384 4250 1959 4250 
Q 1534 4250 1286 3958 
Q 1038 3666 1038 3163 
Q 1038 2656 1286 2365 
Q 1534 2075 1959 2075 
z
" transform="scale(0.015625)"/>
       </defs>
       <use xlink:href="#DejaVuSans-39"/>
       <use xlink:href="#DejaVuSans-30" x="63.623047"/>
      </g>
     </g>
    </g>
    <g id="xtick_11">
     <g id="line2d_11">
      <g>
       <use xlink:href="#ma6c415b352" x="541.175413" y="293.56" style="stroke: #000000; stroke-width: 0.8"/>
      </g>
     </g>
     <g id="text_11">
      <!-- 100 -->
      <g transform="translate(520.179163 317.276563) scale(0.22 -0.22)">
       <use xlink:href="#DejaVuSans-31"/>
       <use xlink:href="#DejaVuSans-30" x="63.623047"/>
       <use xlink:href="#DejaVuSans-30" x="127.246094"/>
      </g>
     </g>
    </g>
    <g id="text_12">
     <!-- $k$ -->
     <g transform="translate(301.660455 344.088125) scale(0.24 -0.24)">
      <defs>
       <path id="DejaVuSans-Oblique-6b" d="M 1172 4863 
L 1747 4863 
L 1197 2028 
L 3169 3500 
L 3916 3500 
L 1716 1825 
L 3322 0 
L 2625 0 
L 1131 1709 
L 800 0 
L 225 0 
L 1172 4863 
z
" transform="scale(0.015625)"/>
      </defs>
      <use xlink:href="#DejaVuSans-Oblique-6b" transform="translate(0 0.015625)"/>
     </g>
    </g>
   </g>
   <g id="matplotlib.axis_2">
    <g id="ytick_1">
     <g id="line2d_12">
      <defs>
       <path id="m9b241fd071" d="M 0 0 
L -3.5 0 
" style="stroke: #000000; stroke-width: 0.8"/>
      </defs>
      <g>
       <use xlink:href="#m9b241fd071" x="52.81" y="280.707273" style="stroke: #000000; stroke-width: 0.8"/>
      </g>
     </g>
     <g id="text_13">
      <!-- 0.0 -->
      <g transform="translate(10.823125 289.065554) scale(0.22 -0.22)">
       <defs>
        <path id="DejaVuSans-2e" d="M 684 794 
L 1344 794 
L 1344 0 
L 684 0 
L 684 794 
z
" transform="scale(0.015625)"/>
       </defs>
       <use xlink:href="#DejaVuSans-30"/>
       <use xlink:href="#DejaVuSans-2e" x="63.623047"/>
       <use xlink:href="#DejaVuSans-30" x="95.410156"/>
      </g>
     </g>
    </g>
    <g id="ytick_2">
     <g id="line2d_13">
      <g>
       <use xlink:href="#m9b241fd071" x="52.81" y="229.296364" style="stroke: #000000; stroke-width: 0.8"/>
      </g>
     </g>
     <g id="text_14">
      <!-- 0.2 -->
      <g transform="translate(10.823125 237.654645) scale(0.22 -0.22)">
       <use xlink:href="#DejaVuSans-30"/>
       <use xlink:href="#DejaVuSans-2e" x="63.623047"/>
       <use xlink:href="#DejaVuSans-32" x="95.410156"/>
      </g>
     </g>
    </g>
    <g id="ytick_3">
     <g id="line2d_14">
      <g>
       <use xlink:href="#m9b241fd071" x="52.81" y="177.885455" style="stroke: #000000; stroke-width: 0.8"/>
      </g>
     </g>
     <g id="text_15">
      <!-- 0.4 -->
      <g transform="translate(10.823125 186.243736) scale(0.22 -0.22)">
       <use xlink:href="#DejaVuSans-30"/>
       <use xlink:href="#DejaVuSans-2e" x="63.623047"/>
       <use xlink:href="#DejaVuSans-34" x="95.410156"/>
      </g>
     </g>
    </g>
    <g id="ytick_4">
     <g id="line2d_15">
      <g>
       <use xlink:href="#m9b241fd071" x="52.81" y="126.474545" style="stroke: #000000; stroke-width: 0.8"/>
      </g>
     </g>
     <g id="text_16">
      <!-- 0.6 -->
      <g transform="translate(10.823125 134.832827) scale(0.22 -0.22)">
       <use xlink:href="#DejaVuSans-30"/>
       <use xlink:href="#DejaVuSans-2e" x="63.623047"/>
       <use xlink:href="#DejaVuSans-36" x="95.410156"/>
      </g>
     </g>
    </g>
    <g id="ytick_5">
     <g id="line2d_16">
      <g>
       <use xlink:href="#m9b241fd071" x="52.81" y="75.063636" style="stroke: #000000; stroke-width: 0.8"/>
      </g>
     </g>
     <g id="text_17">
      <!-- 0.8 -->
      <g transform="translate(10.823125 83.421918) scale(0.22 -0.22)">
       <use xlink:href="#DejaVuSans-30"/>
       <use xlink:href="#DejaVuSans-2e" x="63.623047"/>
       <use xlink:href="#DejaVuSans-38" x="95.410156"/>
      </g>
     </g>
    </g>
    <g id="ytick_6">
     <g id="line2d_17">
      <g>
       <use xlink:href="#m9b241fd071" x="52.81" y="23.652727" style="stroke: #000000; stroke-width: 0.8"/>
      </g>
     </g>
     <g id="text_18">
      <!-- 1.0 -->
      <g transform="translate(10.823125 32.011009) scale(0.22 -0.22)">
       <use xlink:href="#DejaVuSans-31"/>
       <use xlink:href="#DejaVuSans-2e" x="63.623047"/>
       <use xlink:href="#DejaVuSans-30" x="95.410156"/>
      </g>
     </g>
    </g>
   </g>
   <g id="line2d_18">
    <path d="M 76.065496 152.18 
L 90.159736 157.321091 
L 104.253976 177.885455 
L 118.348216 188.167636 
L 132.442456 213.873091 
L 146.536695 247.290182 
L 160.630935 252.431273 
L 174.725175 265.284 
L 188.819415 280.707273 
L 202.913655 278.136727 
L 217.007895 278.136727 
L 231.102135 278.136727 
L 245.196375 278.136727 
L 259.290615 280.707273 
L 273.384855 280.707273 
L 287.479095 280.707273 
L 301.573335 280.707273 
L 315.667575 280.707273 
L 329.761814 280.707273 
L 343.856054 280.707273 
L 357.950294 280.707273 
L 372.044534 280.707273 
L 386.138774 280.707273 
L 400.233014 280.707273 
L 414.327254 280.707273 
L 428.421494 280.707273 
L 442.515734 280.707273 
L 456.609974 280.707273 
L 470.704214 280.707273 
L 484.798454 280.707273 
L 498.892693 280.707273 
L 512.986933 280.707273 
L 527.081173 280.707273 
L 541.175413 280.707273 
L 541.175413 280.707273 
" clip-path="url(#p8e488d690a)" style="fill: none; stroke: #ffc400; stroke-width: 1.5; stroke-linecap: square"/>
    <defs>
     <path id="med522361e0" d="M 0 3 
C 0.795609 3 1.55874 2.683901 2.12132 2.12132 
C 2.683901 1.55874 3 0.795609 3 0 
C 3 -0.795609 2.683901 -1.55874 2.12132 -2.12132 
C 1.55874 -2.683901 0.795609 -3 0 -3 
C -0.795609 -3 -1.55874 -2.683901 -2.12132 -2.12132 
C -2.683901 -1.55874 -3 -0.795609 -3 0 
C -3 0.795609 -2.683901 1.55874 -2.12132 2.12132 
C -1.55874 2.683901 -0.795609 3 0 3 
z
" style="stroke: #ffc400"/>
    </defs>
    <g clip-path="url(#p8e488d690a)">
     <use xlink:href="#med522361e0" x="76.065496" y="152.18" style="fill: #ffc400; stroke: #ffc400"/>
     <use xlink:href="#med522361e0" x="90.159736" y="157.321091" style="fill: #ffc400; stroke: #ffc400"/>
     <use xlink:href="#med522361e0" x="104.253976" y="177.885455" style="fill: #ffc400; stroke: #ffc400"/>
     <use xlink:href="#med522361e0" x="118.348216" y="188.167636" style="fill: #ffc400; stroke: #ffc400"/>
     <use xlink:href="#med522361e0" x="132.442456" y="213.873091" style="fill: #ffc400; stroke: #ffc400"/>
     <use xlink:href="#med522361e0" x="146.536695" y="247.290182" style="fill: #ffc400; stroke: #ffc400"/>
     <use xlink:href="#med522361e0" x="160.630935" y="252.431273" style="fill: #ffc400; stroke: #ffc400"/>
     <use xlink:href="#med522361e0" x="174.725175" y="265.284" style="fill: #ffc400; stroke: #ffc400"/>
     <use xlink:href="#med522361e0" x="188.819415" y="280.707273" style="fill: #ffc400; stroke: #ffc400"/>
     <use xlink:href="#med522361e0" x="202.913655" y="278.136727" style="fill: #ffc400; stroke: #ffc400"/>
     <use xlink:href="#med522361e0" x="217.007895" y="278.136727" style="fill: #ffc400; stroke: #ffc400"/>
     <use xlink:href="#med522361e0" x="231.102135" y="278.136727" style="fill: #ffc400; stroke: #ffc400"/>
     <use xlink:href="#med522361e0" x="245.196375" y="278.136727" style="fill: #ffc400; stroke: #ffc400"/>
     <use xlink:href="#med522361e0" x="259.290615" y="280.707273" style="fill: #ffc400; stroke: #ffc400"/>
     <use xlink:href="#med522361e0" x="273.384855" y="280.707273" style="fill: #ffc400; stroke: #ffc400"/>
     <use xlink:href="#med522361e0" x="287.479095" y="280.707273" style="fill: #ffc400; stroke: #ffc400"/>
     <use xlink:href="#med522361e0" x="301.573335" y="280.707273" style="fill: #ffc400; stroke: #ffc400"/>
     <use xlink:href="#med522361e0" x="315.667575" y="280.707273" style="fill: #ffc400; stroke: #ffc400"/>
     <use xlink:href="#med522361e0" x="329.761814" y="280.707273" style="fill: #ffc400; stroke: #ffc400"/>
     <use xlink:href="#med522361e0" x="343.856054" y="280.707273" style="fill: #ffc400; stroke: #ffc400"/>
     <use xlink:href="#med522361e0" x="357.950294" y="280.707273" style="fill: #ffc400; stroke: #ffc400"/>
     <use xlink:href="#med522361e0" x="372.044534" y="280.707273" style="fill: #ffc400; stroke: #ffc400"/>
     <use xlink:href="#med522361e0" x="386.138774" y="280.707273" style="fill: #ffc400; stroke: #ffc400"/>
     <use xlink:href="#med522361e0" x="400.233014" y="280.707273" style="fill: #ffc400; stroke: #ffc400"/>
     <use xlink:href="#med522361e0" x="414.327254" y="280.707273" style="fill: #ffc400; stroke: #ffc400"/>
     <use xlink:href="#med522361e0" x="428.421494" y="280.707273" style="fill: #ffc400; stroke: #ffc400"/>
     <use xlink:href="#med522361e0" x="442.515734" y="280.707273" style="fill: #ffc400; stroke: #ffc400"/>
     <use xlink:href="#med522361e0" x="456.609974" y="280.707273" style="fill: #ffc400; stroke: #ffc400"/>
     <use xlink:href="#med522361e0" x="470.704214" y="280.707273" style="fill: #ffc400; stroke: #ffc400"/>
     <use xlink:href="#med522361e0" x="484.798454" y="280.707273" style="fill: #ffc400; stroke: #ffc400"/>
     <use xlink:href="#med522361e0" x="498.892693" y="280.707273" style="fill: #ffc400; stroke: #ffc400"/>
     <use xlink:href="#med522361e0" x="512.986933" y="280.707273" style="fill: #ffc400; stroke: #ffc400"/>
     <use xlink:href="#med522361e0" x="527.081173" y="280.707273" style="fill: #ffc400; stroke: #ffc400"/>
     <use xlink:href="#med522361e0" x="541.175413" y="280.707273" style="fill: #ffc400; stroke: #ffc400"/>
     <use xlink:href="#med522361e0" x="541.175413" y="280.707273" style="fill: #ffc400; stroke: #ffc400"/>
    </g>
   </g>
   <g id="line2d_19">
    <path d="M 76.065496 152.18 
L 90.159736 147.038909 
L 104.253976 126.474545 
L 118.348216 116.192364 
L 132.442456 90.486909 
L 146.536695 57.069818 
L 160.630935 51.928727 
L 174.725175 39.076 
L 188.819415 23.652727 
L 202.913655 26.223273 
L 217.007895 26.223273 
L 231.102135 26.223273 
L 245.196375 26.223273 
L 259.290615 23.652727 
L 273.384855 23.652727 
L 287.479095 23.652727 
L 301.573335 23.652727 
L 315.667575 23.652727 
L 329.761814 23.652727 
L 343.856054 23.652727 
L 357.950294 23.652727 
L 372.044534 23.652727 
L 386.138774 23.652727 
L 400.233014 23.652727 
L 414.327254 23.652727 
L 428.421494 23.652727 
L 442.515734 23.652727 
L 456.609974 23.652727 
L 470.704214 23.652727 
L 484.798454 23.652727 
L 498.892693 23.652727 
L 512.986933 23.652727 
L 527.081173 23.652727 
L 541.175413 23.652727 
L 541.175413 23.652727 
" clip-path="url(#p8e488d690a)" style="fill: none; stroke: #8b2be2; stroke-width: 1.5; stroke-linecap: square"/>
    <defs>
     <path id="m282de3384f" d="M 0 3 
C 0.795609 3 1.55874 2.683901 2.12132 2.12132 
C 2.683901 1.55874 3 0.795609 3 0 
C 3 -0.795609 2.683901 -1.55874 2.12132 -2.12132 
C 1.55874 -2.683901 0.795609 -3 0 -3 
C -0.795609 -3 -1.55874 -2.683901 -2.12132 -2.12132 
C -2.683901 -1.55874 -3 -0.795609 -3 0 
C -3 0.795609 -2.683901 1.55874 -2.12132 2.12132 
C -1.55874 2.683901 -0.795609 3 0 3 
z
" style="stroke: #8b2be2"/>
    </defs>
    <g clip-path="url(#p8e488d690a)">
     <use xlink:href="#m282de3384f" x="76.065496" y="152.18" style="fill: #8b2be2; stroke: #8b2be2"/>
     <use xlink:href="#m282de3384f" x="90.159736" y="147.038909" style="fill: #8b2be2; stroke: #8b2be2"/>
     <use xlink:href="#m282de3384f" x="104.253976" y="126.474545" style="fill: #8b2be2; stroke: #8b2be2"/>
     <use xlink:href="#m282de3384f" x="118.348216" y="116.192364" style="fill: #8b2be2; stroke: #8b2be2"/>
     <use xlink:href="#m282de3384f" x="132.442456" y="90.486909" style="fill: #8b2be2; stroke: #8b2be2"/>
     <use xlink:href="#m282de3384f" x="146.536695" y="57.069818" style="fill: #8b2be2; stroke: #8b2be2"/>
     <use xlink:href="#m282de3384f" x="160.630935" y="51.928727" style="fill: #8b2be2; stroke: #8b2be2"/>
     <use xlink:href="#m282de3384f" x="174.725175" y="39.076" style="fill: #8b2be2; stroke: #8b2be2"/>
     <use xlink:href="#m282de3384f" x="188.819415" y="23.652727" style="fill: #8b2be2; stroke: #8b2be2"/>
     <use xlink:href="#m282de3384f" x="202.913655" y="26.223273" style="fill: #8b2be2; stroke: #8b2be2"/>
     <use xlink:href="#m282de3384f" x="217.007895" y="26.223273" style="fill: #8b2be2; stroke: #8b2be2"/>
     <use xlink:href="#m282de3384f" x="231.102135" y="26.223273" style="fill: #8b2be2; stroke: #8b2be2"/>
     <use xlink:href="#m282de3384f" x="245.196375" y="26.223273" style="fill: #8b2be2; stroke: #8b2be2"/>
     <use xlink:href="#m282de3384f" x="259.290615" y="23.652727" style="fill: #8b2be2; stroke: #8b2be2"/>
     <use xlink:href="#m282de3384f" x="273.384855" y="23.652727" style="fill: #8b2be2; stroke: #8b2be2"/>
     <use xlink:href="#m282de3384f" x="287.479095" y="23.652727" style="fill: #8b2be2; stroke: #8b2be2"/>
     <use xlink:href="#m282de3384f" x="301.573335" y="23.652727" style="fill: #8b2be2; stroke: #8b2be2"/>
     <use xlink:href="#m282de3384f" x="315.667575" y="23.652727" style="fill: #8b2be2; stroke: #8b2be2"/>
     <use xlink:href="#m282de3384f" x="329.761814" y="23.652727" style="fill: #8b2be2; stroke: #8b2be2"/>
     <use xlink:href="#m282de3384f" x="343.856054" y="23.652727" style="fill: #8b2be2; stroke: #8b2be2"/>
     <use xlink:href="#m282de3384f" x="357.950294" y="23.652727" style="fill: #8b2be2; stroke: #8b2be2"/>
     <use xlink:href="#m282de3384f" x="372.044534" y="23.652727" style="fill: #8b2be2; stroke: #8b2be2"/>
     <use xlink:href="#m282de3384f" x="386.138774" y="23.652727" style="fill: #8b2be2; stroke: #8b2be2"/>
     <use xlink:href="#m282de3384f" x="400.233014" y="23.652727" style="fill: #8b2be2; stroke: #8b2be2"/>
     <use xlink:href="#m282de3384f" x="414.327254" y="23.652727" style="fill: #8b2be2; stroke: #8b2be2"/>
     <use xlink:href="#m282de3384f" x="428.421494" y="23.652727" style="fill: #8b2be2; stroke: #8b2be2"/>
     <use xlink:href="#m282de3384f" x="442.515734" y="23.652727" style="fill: #8b2be2; stroke: #8b2be2"/>
     <use xlink:href="#m282de3384f" x="456.609974" y="23.652727" style="fill: #8b2be2; stroke: #8b2be2"/>
     <use xlink:href="#m282de3384f" x="470.704214" y="23.652727" style="fill: #8b2be2; stroke: #8b2be2"/>
     <use xlink:href="#m282de3384f" x="484.798454" y="23.652727" style="fill: #8b2be2; stroke: #8b2be2"/>
     <use xlink:href="#m282de3384f" x="498.892693" y="23.652727" style="fill: #8b2be2; stroke: #8b2be2"/>
     <use xlink:href="#m282de3384f" x="512.986933" y="23.652727" style="fill: #8b2be2; stroke: #8b2be2"/>
     <use xlink:href="#m282de3384f" x="527.081173" y="23.652727" style="fill: #8b2be2; stroke: #8b2be2"/>
     <use xlink:href="#m282de3384f" x="541.175413" y="23.652727" style="fill: #8b2be2; stroke: #8b2be2"/>
     <use xlink:href="#m282de3384f" x="541.175413" y="23.652727" style="fill: #8b2be2; stroke: #8b2be2"/>
    </g>
   </g>
   <g id="patch_3">
    <path d="M 52.81 293.56 
L 52.81 10.8 
" style="fill: none; stroke: #000000; stroke-width: 0.8; stroke-linejoin: miter; stroke-linecap: square"/>
   </g>
   <g id="patch_4">
    <path d="M 564.430909 293.56 
L 564.430909 10.8 
" style="fill: none; stroke: #000000; stroke-width: 0.8; stroke-linejoin: miter; stroke-linecap: square"/>
   </g>
   <g id="patch_5">
    <path d="M 52.81 293.56 
L 564.430909 293.56 
" style="fill: none; stroke: #000000; stroke-width: 0.8; stroke-linejoin: miter; stroke-linecap: square"/>
   </g>
   <g id="patch_6">
    <path d="M 52.81 10.8 
L 564.430909 10.8 
" style="fill: none; stroke: #000000; stroke-width: 0.8; stroke-linejoin: miter; stroke-linecap: square"/>
   </g>
  </g>
 </g>
 <defs>
  <clipPath id="p8e488d690a">
   <rect x="52.81" y="10.8" width="511.620909" height="282.76"/>
  </clipPath>
 </defs>
</svg>
