<?xml version="1.0" encoding="utf-8" standalone="no"?>
<!DOCTYPE svg PUBLIC "-//W3C//DTD SVG 1.1//EN"
  "http://www.w3.org/Graphics/SVG/1.1/DTD/svg11.dtd">
<svg xmlns:xlink="http://www.w3.org/1999/xlink" width="576pt" height="360pt" viewBox="0 0 576 360" xmlns="http://www.w3.org/2000/svg" version="1.1">
 <metadata>
  <rdf:RDF xmlns:dc="http://purl.org/dc/elements/1.1/" xmlns:cc="http://creativecommons.org/ns#" xmlns:rdf="http://www.w3.org/1999/02/22-rdf-syntax-ns#">
   <cc:Work>
    <dc:type rdf:resource="http://purl.org/dc/dcmitype/StillImage"/>
    <dc:date>2024-05-10T22:18:25.114151</dc:date>
    <dc:format>image/svg+xml</dc:format>
    <dc:creator>
     <cc:Agent>
      <dc:title>Matplotlib v3.8.0, https://matplotlib.org/</dc:title>
     </cc:Agent>
    </dc:creator>
   </cc:Work>
  </rdf:RDF>
 </metadata>
 <defs>
  <style type="text/css">*{stroke-linejoin: round; stroke-linecap: butt}</style>
 </defs>
 <g id="figure_1">
  <g id="patch_1">
   <path d="M 0 360 
L 576 360 
L 576 0 
L 0 0 
z
" style="fill: #ffffff"/>
  </g>
  <g id="axes_1">
   <g id="patch_2">
    <path d="M 60.824 293.56 
L 564.430909 293.56 
L 564.430909 36.24 
L 60.824 36.24 
z
" style="fill: #ffffff"/>
   </g>
   <g id="matplotlib.axis_1">
    <g id="xtick_1">
     <g id="line2d_1">
      <defs>
       <path id="m7ff7967e33" d="M 0 0 
L 0 3.5 
" style="stroke: #000000; stroke-width: 0.8"/>
      </defs>
      <g>
       <use xlink:href="#m7ff7967e33" x="83.715223" y="293.56" style="stroke: #000000; stroke-width: 0.8"/>
      </g>
     </g>
     <g id="text_1">
      <!-- 1 -->
      <g transform="translate(76.716473 317.276563) scale(0.22 -0.22)">
       <defs>
        <path id="DejaVuSans-31" d="M 794 531 
L 1825 531 
L 1825 4091 
L 703 3866 
L 703 4441 
L 1819 4666 
L 2450 4666 
L 2450 531 
L 3481 531 
L 3481 0 
L 794 0 
L 794 531 
z
" transform="scale(0.015625)"/>
       </defs>
       <use xlink:href="#DejaVuSans-31"/>
      </g>
     </g>
    </g>
    <g id="xtick_2">
     <g id="line2d_2">
      <g>
       <use xlink:href="#m7ff7967e33" x="125.335629" y="293.56" style="stroke: #000000; stroke-width: 0.8"/>
      </g>
     </g>
     <g id="text_2">
      <!-- 10 -->
      <g transform="translate(111.338129 317.276563) scale(0.22 -0.22)">
       <defs>
        <path id="DejaVuSans-30" d="M 2034 4250 
Q 1547 4250 1301 3770 
Q 1056 3291 1056 2328 
Q 1056 1369 1301 889 
Q 1547 409 2034 409 
Q 2525 409 2770 889 
Q 3016 1369 3016 2328 
Q 3016 3291 2770 3770 
Q 2525 4250 2034 4250 
z
M 2034 4750 
Q 2819 4750 3233 4129 
Q 3647 3509 3647 2328 
Q 3647 1150 3233 529 
Q 2819 -91 2034 -91 
Q 1250 -91 836 529 
Q 422 1150 422 2328 
Q 422 3509 836 4129 
Q 1250 4750 2034 4750 
z
" transform="scale(0.015625)"/>
       </defs>
       <use xlink:href="#DejaVuSans-31"/>
       <use xlink:href="#DejaVuSans-30" x="63.623047"/>
      </g>
     </g>
    </g>
    <g id="xtick_3">
     <g id="line2d_3">
      <g>
       <use xlink:href="#m7ff7967e33" x="171.580524" y="293.56" style="stroke: #000000; stroke-width: 0.8"/>
      </g>
     </g>
     <g id="text_3">
      <!-- 20 -->
      <g transform="translate(157.583024 317.276563) scale(0.22 -0.22)">
       <defs>
        <path id="DejaVuSans-32" d="M 1228 531 
L 3431 531 
L 3431 0 
L 469 0 
L 469 531 
Q 828 903 1448 1529 
Q 2069 2156 2228 2338 
Q 2531 2678 2651 2914 
Q 2772 3150 2772 3378 
Q 2772 3750 2511 3984 
Q 2250 4219 1831 4219 
Q 1534 4219 1204 4116 
Q 875 4013 500 3803 
L 500 4441 
Q 881 4594 1212 4672 
Q 1544 4750 1819 4750 
Q 2544 4750 2975 4387 
Q 3406 4025 3406 3419 
Q 3406 3131 3298 2873 
Q 3191 2616 2906 2266 
Q 2828 2175 2409 1742 
Q 1991 1309 1228 531 
z
" transform="scale(0.015625)"/>
       </defs>
       <use xlink:href="#DejaVuSans-32"/>
       <use xlink:href="#DejaVuSans-30" x="63.623047"/>
      </g>
     </g>
    </g>
    <g id="xtick_4">
     <g id="line2d_4">
      <g>
       <use xlink:href="#m7ff7967e33" x="217.825419" y="293.56" style="stroke: #000000; stroke-width: 0.8"/>
      </g>
     </g>
     <g id="text_4">
      <!-- 30 -->
      <g transform="translate(203.827919 317.276563) scale(0.22 -0.22)">
       <defs>
        <path id="DejaVuSans-33" d="M 2597 2516 
Q 3050 2419 3304 2112 
Q 3559 1806 3559 1356 
Q 3559 666 3084 287 
Q 2609 -91 1734 -91 
Q 1441 -91 1130 -33 
Q 819 25 488 141 
L 488 750 
Q 750 597 1062 519 
Q 1375 441 1716 441 
Q 2309 441 2620 675 
Q 2931 909 2931 1356 
Q 2931 1769 2642 2001 
Q 2353 2234 1838 2234 
L 1294 2234 
L 1294 2753 
L 1863 2753 
Q 2328 2753 2575 2939 
Q 2822 3125 2822 3475 
Q 2822 3834 2567 4026 
Q 2313 4219 1838 4219 
Q 1578 4219 1281 4162 
Q 984 4106 628 3988 
L 628 4550 
Q 988 4650 1302 4700 
Q 1616 4750 1894 4750 
Q 2613 4750 3031 4423 
Q 3450 4097 3450 3541 
Q 3450 3153 3228 2886 
Q 3006 2619 2597 2516 
z
" transform="scale(0.015625)"/>
       </defs>
       <use xlink:href="#DejaVuSans-33"/>
       <use xlink:href="#DejaVuSans-30" x="63.623047"/>
      </g>
     </g>
    </g>
    <g id="xtick_5">
     <g id="line2d_5">
      <g>
       <use xlink:href="#m7ff7967e33" x="264.070315" y="293.56" style="stroke: #000000; stroke-width: 0.8"/>
      </g>
     </g>
     <g id="text_5">
      <!-- 40 -->
      <g transform="translate(250.072815 317.276563) scale(0.22 -0.22)">
       <defs>
        <path id="DejaVuSans-34" d="M 2419 4116 
L 825 1625 
L 2419 1625 
L 2419 4116 
z
M 2253 4666 
L 3047 4666 
L 3047 1625 
L 3713 1625 
L 3713 1100 
L 3047 1100 
L 3047 0 
L 2419 0 
L 2419 1100 
L 313 1100 
L 313 1709 
L 2253 4666 
z
" transform="scale(0.015625)"/>
       </defs>
       <use xlink:href="#DejaVuSans-34"/>
       <use xlink:href="#DejaVuSans-30" x="63.623047"/>
      </g>
     </g>
    </g>
    <g id="xtick_6">
     <g id="line2d_6">
      <g>
       <use xlink:href="#m7ff7967e33" x="310.31521" y="293.56" style="stroke: #000000; stroke-width: 0.8"/>
      </g>
     </g>
     <g id="text_6">
      <!-- 50 -->
      <g transform="translate(296.31771 317.276563) scale(0.22 -0.22)">
       <defs>
        <path id="DejaVuSans-35" d="M 691 4666 
L 3169 4666 
L 3169 4134 
L 1269 4134 
L 1269 2991 
Q 1406 3038 1543 3061 
Q 1681 3084 1819 3084 
Q 2600 3084 3056 2656 
Q 3513 2228 3513 1497 
Q 3513 744 3044 326 
Q 2575 -91 1722 -91 
Q 1428 -91 1123 -41 
Q 819 9 494 109 
L 494 744 
Q 775 591 1075 516 
Q 1375 441 1709 441 
Q 2250 441 2565 725 
Q 2881 1009 2881 1497 
Q 2881 1984 2565 2268 
Q 2250 2553 1709 2553 
Q 1456 2553 1204 2497 
Q 953 2441 691 2322 
L 691 4666 
z
" transform="scale(0.015625)"/>
       </defs>
       <use xlink:href="#DejaVuSans-35"/>
       <use xlink:href="#DejaVuSans-30" x="63.623047"/>
      </g>
     </g>
    </g>
    <g id="xtick_7">
     <g id="line2d_7">
      <g>
       <use xlink:href="#m7ff7967e33" x="356.560105" y="293.56" style="stroke: #000000; stroke-width: 0.8"/>
      </g>
     </g>
     <g id="text_7">
      <!-- 60 -->
      <g transform="translate(342.562605 317.276563) scale(0.22 -0.22)">
       <defs>
        <path id="DejaVuSans-36" d="M 2113 2584 
Q 1688 2584 1439 2293 
Q 1191 2003 1191 1497 
Q 1191 994 1439 701 
Q 1688 409 2113 409 
Q 2538 409 2786 701 
Q 3034 994 3034 1497 
Q 3034 2003 2786 2293 
Q 2538 2584 2113 2584 
z
M 3366 4563 
L 3366 3988 
Q 3128 4100 2886 4159 
Q 2644 4219 2406 4219 
Q 1781 4219 1451 3797 
Q 1122 3375 1075 2522 
Q 1259 2794 1537 2939 
Q 1816 3084 2150 3084 
Q 2853 3084 3261 2657 
Q 3669 2231 3669 1497 
Q 3669 778 3244 343 
Q 2819 -91 2113 -91 
Q 1303 -91 875 529 
Q 447 1150 447 2328 
Q 447 3434 972 4092 
Q 1497 4750 2381 4750 
Q 2619 4750 2861 4703 
Q 3103 4656 3366 4563 
z
" transform="scale(0.015625)"/>
       </defs>
       <use xlink:href="#DejaVuSans-36"/>
       <use xlink:href="#DejaVuSans-30" x="63.623047"/>
      </g>
     </g>
    </g>
    <g id="xtick_8">
     <g id="line2d_8">
      <g>
       <use xlink:href="#m7ff7967e33" x="402.805" y="293.56" style="stroke: #000000; stroke-width: 0.8"/>
      </g>
     </g>
     <g id="text_8">
      <!-- 70 -->
      <g transform="translate(388.8075 317.276563) scale(0.22 -0.22)">
       <defs>
        <path id="DejaVuSans-37" d="M 525 4666 
L 3525 4666 
L 3525 4397 
L 1831 0 
L 1172 0 
L 2766 4134 
L 525 4134 
L 525 4666 
z
" transform="scale(0.015625)"/>
       </defs>
       <use xlink:href="#DejaVuSans-37"/>
       <use xlink:href="#DejaVuSans-30" x="63.623047"/>
      </g>
     </g>
    </g>
    <g id="xtick_9">
     <g id="line2d_9">
      <g>
       <use xlink:href="#m7ff7967e33" x="449.049895" y="293.56" style="stroke: #000000; stroke-width: 0.8"/>
      </g>
     </g>
     <g id="text_9">
      <!-- 80 -->
      <g transform="translate(435.052395 317.276563) scale(0.22 -0.22)">
       <defs>
        <path id="DejaVuSans-38" d="M 2034 2216 
Q 1584 2216 1326 1975 
Q 1069 1734 1069 1313 
Q 1069 891 1326 650 
Q 1584 409 2034 409 
Q 2484 409 2743 651 
Q 3003 894 3003 1313 
Q 3003 1734 2745 1975 
Q 2488 2216 2034 2216 
z
M 1403 2484 
Q 997 2584 770 2862 
Q 544 3141 544 3541 
Q 544 4100 942 4425 
Q 1341 4750 2034 4750 
Q 2731 4750 3128 4425 
Q 3525 4100 3525 3541 
Q 3525 3141 3298 2862 
Q 3072 2584 2669 2484 
Q 3125 2378 3379 2068 
Q 3634 1759 3634 1313 
Q 3634 634 3220 271 
Q 2806 -91 2034 -91 
Q 1263 -91 848 271 
Q 434 634 434 1313 
Q 434 1759 690 2068 
Q 947 2378 1403 2484 
z
M 1172 3481 
Q 1172 3119 1398 2916 
Q 1625 2713 2034 2713 
Q 2441 2713 2670 2916 
Q 2900 3119 2900 3481 
Q 2900 3844 2670 4047 
Q 2441 4250 2034 4250 
Q 1625 4250 1398 4047 
Q 1172 3844 1172 3481 
z
" transform="scale(0.015625)"/>
       </defs>
       <use xlink:href="#DejaVuSans-38"/>
       <use xlink:href="#DejaVuSans-30" x="63.623047"/>
      </g>
     </g>
    </g>
    <g id="xtick_10">
     <g id="line2d_10">
      <g>
       <use xlink:href="#m7ff7967e33" x="495.294791" y="293.56" style="stroke: #000000; stroke-width: 0.8"/>
      </g>
     </g>
     <g id="text_10">
      <!-- 90 -->
      <g transform="translate(481.297291 317.276563) scale(0.22 -0.22)">
       <defs>
        <path id="DejaVuSans-39" d="M 703 97 
L 703 672 
Q 941 559 1184 500 
Q 1428 441 1663 441 
Q 2288 441 2617 861 
Q 2947 1281 2994 2138 
Q 2813 1869 2534 1725 
Q 2256 1581 1919 1581 
Q 1219 1581 811 2004 
Q 403 2428 403 3163 
Q 403 3881 828 4315 
Q 1253 4750 1959 4750 
Q 2769 4750 3195 4129 
Q 3622 3509 3622 2328 
Q 3622 1225 3098 567 
Q 2575 -91 1691 -91 
Q 1453 -91 1209 -44 
Q 966 3 703 97 
z
M 1959 2075 
Q 2384 2075 2632 2365 
Q 2881 2656 2881 3163 
Q 2881 3666 2632 3958 
Q 2384 4250 1959 4250 
Q 1534 4250 1286 3958 
Q 1038 3666 1038 3163 
Q 1038 2656 1286 2365 
Q 1534 2075 1959 2075 
z
" transform="scale(0.015625)"/>
       </defs>
       <use xlink:href="#DejaVuSans-39"/>
       <use xlink:href="#DejaVuSans-30" x="63.623047"/>
      </g>
     </g>
    </g>
    <g id="xtick_11">
     <g id="line2d_11">
      <g>
       <use xlink:href="#m7ff7967e33" x="541.539686" y="293.56" style="stroke: #000000; stroke-width: 0.8"/>
      </g>
     </g>
     <g id="text_11">
      <!-- 100 -->
      <g transform="translate(520.543436 317.276563) scale(0.22 -0.22)">
       <use xlink:href="#DejaVuSans-31"/>
       <use xlink:href="#DejaVuSans-30" x="63.623047"/>
       <use xlink:href="#DejaVuSans-30" x="127.246094"/>
      </g>
     </g>
    </g>
    <g id="text_12">
     <!-- $k$ -->
     <g transform="translate(305.667455 344.088125) scale(0.24 -0.24)">
      <defs>
       <path id="DejaVuSans-Oblique-6b" d="M 1172 4863 
L 1747 4863 
L 1197 2028 
L 3169 3500 
L 3916 3500 
L 1716 1825 
L 3322 0 
L 2625 0 
L 1131 1709 
L 800 0 
L 225 0 
L 1172 4863 
z
" transform="scale(0.015625)"/>
      </defs>
      <use xlink:href="#DejaVuSans-Oblique-6b" transform="translate(0 0.015625)"/>
     </g>
    </g>
   </g>
   <g id="matplotlib.axis_2">
    <g id="ytick_1">
     <g id="line2d_12">
      <defs>
       <path id="m03fff2377f" d="M 0 0 
L -3.5 0 
" style="stroke: #000000; stroke-width: 0.8"/>
      </defs>
      <g>
       <use xlink:href="#m03fff2377f" x="60.824" y="284.965381" style="stroke: #000000; stroke-width: 0.8"/>
      </g>
     </g>
     <g id="text_13">
      <!-- 0 -->
      <g transform="translate(39.8265 293.323662) scale(0.22 -0.22)">
       <use xlink:href="#DejaVuSans-30"/>
      </g>
     </g>
    </g>
    <g id="ytick_2">
     <g id="line2d_13">
      <g>
       <use xlink:href="#m03fff2377f" x="60.824" y="247.568621" style="stroke: #000000; stroke-width: 0.8"/>
      </g>
     </g>
     <g id="text_14">
      <!-- 1 -->
      <g transform="translate(39.8265 255.926902) scale(0.22 -0.22)">
       <use xlink:href="#DejaVuSans-31"/>
      </g>
     </g>
    </g>
    <g id="ytick_3">
     <g id="line2d_14">
      <g>
       <use xlink:href="#m03fff2377f" x="60.824" y="210.171861" style="stroke: #000000; stroke-width: 0.8"/>
      </g>
     </g>
     <g id="text_15">
      <!-- 2 -->
      <g transform="translate(39.8265 218.530142) scale(0.22 -0.22)">
       <use xlink:href="#DejaVuSans-32"/>
      </g>
     </g>
    </g>
    <g id="ytick_4">
     <g id="line2d_15">
      <g>
       <use xlink:href="#m03fff2377f" x="60.824" y="172.775101" style="stroke: #000000; stroke-width: 0.8"/>
      </g>
     </g>
     <g id="text_16">
      <!-- 3 -->
      <g transform="translate(39.8265 181.133382) scale(0.22 -0.22)">
       <use xlink:href="#DejaVuSans-33"/>
      </g>
     </g>
    </g>
    <g id="ytick_5">
     <g id="line2d_16">
      <g>
       <use xlink:href="#m03fff2377f" x="60.824" y="135.378341" style="stroke: #000000; stroke-width: 0.8"/>
      </g>
     </g>
     <g id="text_17">
      <!-- 4 -->
      <g transform="translate(39.8265 143.736623) scale(0.22 -0.22)">
       <use xlink:href="#DejaVuSans-34"/>
      </g>
     </g>
    </g>
    <g id="ytick_6">
     <g id="line2d_17">
      <g>
       <use xlink:href="#m03fff2377f" x="60.824" y="97.981581" style="stroke: #000000; stroke-width: 0.8"/>
      </g>
     </g>
     <g id="text_18">
      <!-- 5 -->
      <g transform="translate(39.8265 106.339863) scale(0.22 -0.22)">
       <use xlink:href="#DejaVuSans-35"/>
      </g>
     </g>
    </g>
    <g id="ytick_7">
     <g id="line2d_18">
      <g>
       <use xlink:href="#m03fff2377f" x="60.824" y="60.584822" style="stroke: #000000; stroke-width: 0.8"/>
      </g>
     </g>
     <g id="text_19">
      <!-- 6 -->
      <g transform="translate(39.8265 68.943103) scale(0.22 -0.22)">
       <use xlink:href="#DejaVuSans-36"/>
      </g>
     </g>
    </g>
    <g id="text_20">
     <!-- $A_{-S}$ -->
     <g transform="translate(30.83525 185.9) rotate(-90) scale(0.24 -0.24)">
      <defs>
       <path id="DejaVuSans-Oblique-41" d="M 2356 4666 
L 3072 4666 
L 3938 0 
L 3278 0 
L 3084 1197 
L 984 1197 
L 325 0 
L -341 0 
L 2356 4666 
z
M 2584 4044 
L 1275 1722 
L 2988 1722 
L 2584 4044 
z
" transform="scale(0.015625)"/>
       <path id="DejaVuSans-2212" d="M 678 2272 
L 4684 2272 
L 4684 1741 
L 678 1741 
L 678 2272 
z
" transform="scale(0.015625)"/>
       <path id="DejaVuSans-Oblique-53" d="M 3859 4513 
L 3738 3897 
Q 3422 4066 3111 4152 
Q 2800 4238 2509 4238 
Q 1944 4238 1609 3991 
Q 1275 3744 1275 3334 
Q 1275 3109 1398 2989 
Q 1522 2869 2034 2731 
L 2413 2638 
Q 3053 2472 3303 2217 
Q 3553 1963 3553 1503 
Q 3553 797 2998 353 
Q 2444 -91 1538 -91 
Q 1166 -91 791 -17 
Q 416 56 38 206 
L 166 856 
Q 513 641 861 531 
Q 1209 422 1556 422 
Q 2147 422 2503 684 
Q 2859 947 2859 1369 
Q 2859 1650 2717 1795 
Q 2575 1941 2106 2059 
L 1728 2156 
Q 1081 2325 845 2545 
Q 609 2766 609 3163 
Q 609 3859 1145 4304 
Q 1681 4750 2541 4750 
Q 2875 4750 3203 4690 
Q 3531 4631 3859 4513 
z
" transform="scale(0.015625)"/>
      </defs>
      <use xlink:href="#DejaVuSans-Oblique-41" transform="translate(0 0.09375)"/>
      <use xlink:href="#DejaVuSans-2212" transform="translate(68.408203 -16.3125) scale(0.7)"/>
      <use xlink:href="#DejaVuSans-Oblique-53" transform="translate(127.060547 -16.3125) scale(0.7)"/>
     </g>
    </g>
   </g>
   <g id="line2d_19">
    <path d="M 83.715223 281.863636 
L 97.588692 274.259502 
L 111.46216 267.493671 
L 125.335629 261.112927 
L 139.209097 255.02007 
L 153.082566 249.067242 
L 166.956035 243.145202 
L 180.829503 237.295868 
L 194.702972 231.447668 
L 208.57644 225.564562 
L 222.449909 219.733184 
L 236.323377 213.912503 
L 250.196846 208.055119 
L 264.070315 202.249312 
L 277.943783 196.37843 
L 291.817252 190.515168 
L 305.69072 184.478999 
L 319.564189 178.595489 
L 333.437657 172.617327 
L 347.311126 166.546041 
L 361.184595 160.292658 
L 375.058063 153.974415 
L 388.931532 147.81562 
L 402.805 141.414891 
L 416.678469 135.045967 
L 430.551937 128.388073 
L 444.425406 121.78473 
L 458.298875 114.906746 
L 472.172343 108.170268 
L 486.045812 101.372948 
L 499.91928 94.446999 
L 513.792749 87.656653 
L 527.666217 80.600536 
L 541.539686 73.377447 
L 541.539686 73.377447 
" clip-path="url(#p14a8121617)" style="fill: none; stroke: #1f77b4; stroke-width: 1.5; stroke-linecap: square"/>
    <defs>
     <path id="m970e766995" d="M 0 3 
C 0.795609 3 1.55874 2.683901 2.12132 2.12132 
C 2.683901 1.55874 3 0.795609 3 0 
C 3 -0.795609 2.683901 -1.55874 2.12132 -2.12132 
C 1.55874 -2.683901 0.795609 -3 0 -3 
C -0.795609 -3 -1.55874 -2.683901 -2.12132 -2.12132 
C -2.683901 -1.55874 -3 -0.795609 -3 0 
C -3 0.795609 -2.683901 1.55874 -2.12132 2.12132 
C -1.55874 2.683901 -0.795609 3 0 3 
z
" style="stroke: #1f77b4"/>
    </defs>
    <g clip-path="url(#p14a8121617)">
     <use xlink:href="#m970e766995" x="83.715223" y="281.863636" style="fill: #1f77b4; stroke: #1f77b4"/>
     <use xlink:href="#m970e766995" x="97.588692" y="274.259502" style="fill: #1f77b4; stroke: #1f77b4"/>
     <use xlink:href="#m970e766995" x="111.46216" y="267.493671" style="fill: #1f77b4; stroke: #1f77b4"/>
     <use xlink:href="#m970e766995" x="125.335629" y="261.112927" style="fill: #1f77b4; stroke: #1f77b4"/>
     <use xlink:href="#m970e766995" x="139.209097" y="255.02007" style="fill: #1f77b4; stroke: #1f77b4"/>
     <use xlink:href="#m970e766995" x="153.082566" y="249.067242" style="fill: #1f77b4; stroke: #1f77b4"/>
     <use xlink:href="#m970e766995" x="166.956035" y="243.145202" style="fill: #1f77b4; stroke: #1f77b4"/>
     <use xlink:href="#m970e766995" x="180.829503" y="237.295868" style="fill: #1f77b4; stroke: #1f77b4"/>
     <use xlink:href="#m970e766995" x="194.702972" y="231.447668" style="fill: #1f77b4; stroke: #1f77b4"/>
     <use xlink:href="#m970e766995" x="208.57644" y="225.564562" style="fill: #1f77b4; stroke: #1f77b4"/>
     <use xlink:href="#m970e766995" x="222.449909" y="219.733184" style="fill: #1f77b4; stroke: #1f77b4"/>
     <use xlink:href="#m970e766995" x="236.323377" y="213.912503" style="fill: #1f77b4; stroke: #1f77b4"/>
     <use xlink:href="#m970e766995" x="250.196846" y="208.055119" style="fill: #1f77b4; stroke: #1f77b4"/>
     <use xlink:href="#m970e766995" x="264.070315" y="202.249312" style="fill: #1f77b4; stroke: #1f77b4"/>
     <use xlink:href="#m970e766995" x="277.943783" y="196.37843" style="fill: #1f77b4; stroke: #1f77b4"/>
     <use xlink:href="#m970e766995" x="291.817252" y="190.515168" style="fill: #1f77b4; stroke: #1f77b4"/>
     <use xlink:href="#m970e766995" x="305.69072" y="184.478999" style="fill: #1f77b4; stroke: #1f77b4"/>
     <use xlink:href="#m970e766995" x="319.564189" y="178.595489" style="fill: #1f77b4; stroke: #1f77b4"/>
     <use xlink:href="#m970e766995" x="333.437657" y="172.617327" style="fill: #1f77b4; stroke: #1f77b4"/>
     <use xlink:href="#m970e766995" x="347.311126" y="166.546041" style="fill: #1f77b4; stroke: #1f77b4"/>
     <use xlink:href="#m970e766995" x="361.184595" y="160.292658" style="fill: #1f77b4; stroke: #1f77b4"/>
     <use xlink:href="#m970e766995" x="375.058063" y="153.974415" style="fill: #1f77b4; stroke: #1f77b4"/>
     <use xlink:href="#m970e766995" x="388.931532" y="147.81562" style="fill: #1f77b4; stroke: #1f77b4"/>
     <use xlink:href="#m970e766995" x="402.805" y="141.414891" style="fill: #1f77b4; stroke: #1f77b4"/>
     <use xlink:href="#m970e766995" x="416.678469" y="135.045967" style="fill: #1f77b4; stroke: #1f77b4"/>
     <use xlink:href="#m970e766995" x="430.551937" y="128.388073" style="fill: #1f77b4; stroke: #1f77b4"/>
     <use xlink:href="#m970e766995" x="444.425406" y="121.78473" style="fill: #1f77b4; stroke: #1f77b4"/>
     <use xlink:href="#m970e766995" x="458.298875" y="114.906746" style="fill: #1f77b4; stroke: #1f77b4"/>
     <use xlink:href="#m970e766995" x="472.172343" y="108.170268" style="fill: #1f77b4; stroke: #1f77b4"/>
     <use xlink:href="#m970e766995" x="486.045812" y="101.372948" style="fill: #1f77b4; stroke: #1f77b4"/>
     <use xlink:href="#m970e766995" x="499.91928" y="94.446999" style="fill: #1f77b4; stroke: #1f77b4"/>
     <use xlink:href="#m970e766995" x="513.792749" y="87.656653" style="fill: #1f77b4; stroke: #1f77b4"/>
     <use xlink:href="#m970e766995" x="527.666217" y="80.600536" style="fill: #1f77b4; stroke: #1f77b4"/>
     <use xlink:href="#m970e766995" x="541.539686" y="73.377447" style="fill: #1f77b4; stroke: #1f77b4"/>
     <use xlink:href="#m970e766995" x="541.539686" y="73.377447" style="fill: #1f77b4; stroke: #1f77b4"/>
    </g>
   </g>
   <g id="line2d_20">
    <path d="M 83.715223 281.863636 
L 97.588692 274.252472 
L 111.46216 267.481827 
L 125.335629 261.090969 
L 139.209097 254.956667 
L 153.082566 248.917601 
L 166.956035 242.924852 
L 180.829503 236.947772 
L 194.702972 231.022014 
L 208.57644 225.101433 
L 222.449909 219.134681 
L 236.323377 213.11432 
L 250.196846 207.051978 
L 264.070315 200.939393 
L 277.943783 194.746947 
L 291.817252 188.502288 
L 305.69072 182.171289 
L 319.564189 175.724606 
L 333.437657 169.156593 
L 347.311126 162.482927 
L 361.184595 155.69536 
L 375.058063 148.748494 
L 388.931532 141.625007 
L 402.805 134.357983 
L 416.678469 126.889991 
L 430.551937 119.190338 
L 444.425406 111.274439 
L 458.298875 103.152071 
L 472.172343 94.761171 
L 486.045812 86.078239 
L 499.91928 77.065859 
L 513.792749 67.693762 
L 527.666217 58.052559 
L 541.539686 47.936364 
L 541.539686 47.936364 
" clip-path="url(#p14a8121617)" style="fill: none; stroke: #ff7f0e; stroke-width: 1.5; stroke-linecap: square"/>
    <defs>
     <path id="m9ea8035d78" d="M 0 3 
C 0.795609 3 1.55874 2.683901 2.12132 2.12132 
C 2.683901 1.55874 3 0.795609 3 0 
C 3 -0.795609 2.683901 -1.55874 2.12132 -2.12132 
C 1.55874 -2.683901 0.795609 -3 0 -3 
C -0.795609 -3 -1.55874 -2.683901 -2.12132 -2.12132 
C -2.683901 -1.55874 -3 -0.795609 -3 0 
C -3 0.795609 -2.683901 1.55874 -2.12132 2.12132 
C -1.55874 2.683901 -0.795609 3 0 3 
z
" style="stroke: #ff7f0e"/>
    </defs>
    <g clip-path="url(#p14a8121617)">
     <use xlink:href="#m9ea8035d78" x="83.715223" y="281.863636" style="fill: #ff7f0e; stroke: #ff7f0e"/>
     <use xlink:href="#m9ea8035d78" x="97.588692" y="274.252472" style="fill: #ff7f0e; stroke: #ff7f0e"/>
     <use xlink:href="#m9ea8035d78" x="111.46216" y="267.481827" style="fill: #ff7f0e; stroke: #ff7f0e"/>
     <use xlink:href="#m9ea8035d78" x="125.335629" y="261.090969" style="fill: #ff7f0e; stroke: #ff7f0e"/>
     <use xlink:href="#m9ea8035d78" x="139.209097" y="254.956667" style="fill: #ff7f0e; stroke: #ff7f0e"/>
     <use xlink:href="#m9ea8035d78" x="153.082566" y="248.917601" style="fill: #ff7f0e; stroke: #ff7f0e"/>
     <use xlink:href="#m9ea8035d78" x="166.956035" y="242.924852" style="fill: #ff7f0e; stroke: #ff7f0e"/>
     <use xlink:href="#m9ea8035d78" x="180.829503" y="236.947772" style="fill: #ff7f0e; stroke: #ff7f0e"/>
     <use xlink:href="#m9ea8035d78" x="194.702972" y="231.022014" style="fill: #ff7f0e; stroke: #ff7f0e"/>
     <use xlink:href="#m9ea8035d78" x="208.57644" y="225.101433" style="fill: #ff7f0e; stroke: #ff7f0e"/>
     <use xlink:href="#m9ea8035d78" x="222.449909" y="219.134681" style="fill: #ff7f0e; stroke: #ff7f0e"/>
     <use xlink:href="#m9ea8035d78" x="236.323377" y="213.11432" style="fill: #ff7f0e; stroke: #ff7f0e"/>
     <use xlink:href="#m9ea8035d78" x="250.196846" y="207.051978" style="fill: #ff7f0e; stroke: #ff7f0e"/>
     <use xlink:href="#m9ea8035d78" x="264.070315" y="200.939393" style="fill: #ff7f0e; stroke: #ff7f0e"/>
     <use xlink:href="#m9ea8035d78" x="277.943783" y="194.746947" style="fill: #ff7f0e; stroke: #ff7f0e"/>
     <use xlink:href="#m9ea8035d78" x="291.817252" y="188.502288" style="fill: #ff7f0e; stroke: #ff7f0e"/>
     <use xlink:href="#m9ea8035d78" x="305.69072" y="182.171289" style="fill: #ff7f0e; stroke: #ff7f0e"/>
     <use xlink:href="#m9ea8035d78" x="319.564189" y="175.724606" style="fill: #ff7f0e; stroke: #ff7f0e"/>
     <use xlink:href="#m9ea8035d78" x="333.437657" y="169.156593" style="fill: #ff7f0e; stroke: #ff7f0e"/>
     <use xlink:href="#m9ea8035d78" x="347.311126" y="162.482927" style="fill: #ff7f0e; stroke: #ff7f0e"/>
     <use xlink:href="#m9ea8035d78" x="361.184595" y="155.69536" style="fill: #ff7f0e; stroke: #ff7f0e"/>
     <use xlink:href="#m9ea8035d78" x="375.058063" y="148.748494" style="fill: #ff7f0e; stroke: #ff7f0e"/>
     <use xlink:href="#m9ea8035d78" x="388.931532" y="141.625007" style="fill: #ff7f0e; stroke: #ff7f0e"/>
     <use xlink:href="#m9ea8035d78" x="402.805" y="134.357983" style="fill: #ff7f0e; stroke: #ff7f0e"/>
     <use xlink:href="#m9ea8035d78" x="416.678469" y="126.889991" style="fill: #ff7f0e; stroke: #ff7f0e"/>
     <use xlink:href="#m9ea8035d78" x="430.551937" y="119.190338" style="fill: #ff7f0e; stroke: #ff7f0e"/>
     <use xlink:href="#m9ea8035d78" x="444.425406" y="111.274439" style="fill: #ff7f0e; stroke: #ff7f0e"/>
     <use xlink:href="#m9ea8035d78" x="458.298875" y="103.152071" style="fill: #ff7f0e; stroke: #ff7f0e"/>
     <use xlink:href="#m9ea8035d78" x="472.172343" y="94.761171" style="fill: #ff7f0e; stroke: #ff7f0e"/>
     <use xlink:href="#m9ea8035d78" x="486.045812" y="86.078239" style="fill: #ff7f0e; stroke: #ff7f0e"/>
     <use xlink:href="#m9ea8035d78" x="499.91928" y="77.065859" style="fill: #ff7f0e; stroke: #ff7f0e"/>
     <use xlink:href="#m9ea8035d78" x="513.792749" y="67.693762" style="fill: #ff7f0e; stroke: #ff7f0e"/>
     <use xlink:href="#m9ea8035d78" x="527.666217" y="58.052559" style="fill: #ff7f0e; stroke: #ff7f0e"/>
     <use xlink:href="#m9ea8035d78" x="541.539686" y="47.936364" style="fill: #ff7f0e; stroke: #ff7f0e"/>
     <use xlink:href="#m9ea8035d78" x="541.539686" y="47.936364" style="fill: #ff7f0e; stroke: #ff7f0e"/>
    </g>
   </g>
   <g id="patch_3">
    <path d="M 60.824 293.56 
L 60.824 36.24 
" style="fill: none; stroke: #000000; stroke-width: 0.8; stroke-linejoin: miter; stroke-linecap: square"/>
   </g>
   <g id="patch_4">
    <path d="M 564.430909 293.56 
L 564.430909 36.24 
" style="fill: none; stroke: #000000; stroke-width: 0.8; stroke-linejoin: miter; stroke-linecap: square"/>
   </g>
   <g id="patch_5">
    <path d="M 60.824 293.56 
L 564.430909 293.56 
" style="fill: none; stroke: #000000; stroke-width: 0.8; stroke-linejoin: miter; stroke-linecap: square"/>
   </g>
   <g id="patch_6">
    <path d="M 60.824 36.24 
L 564.430909 36.24 
" style="fill: none; stroke: #000000; stroke-width: 0.8; stroke-linejoin: miter; stroke-linecap: square"/>
   </g>
   <g id="text_21">
    <!-- Logistic Regression with Waveform -->
    <g transform="translate(86.096361 30.24) scale(0.26 -0.26)">
     <defs>
      <path id="DejaVuSans-4c" d="M 628 4666 
L 1259 4666 
L 1259 531 
L 3531 531 
L 3531 0 
L 628 0 
L 628 4666 
z
" transform="scale(0.015625)"/>
      <path id="DejaVuSans-6f" d="M 1959 3097 
Q 1497 3097 1228 2736 
Q 959 2375 959 1747 
Q 959 1119 1226 758 
Q 1494 397 1959 397 
Q 2419 397 2687 759 
Q 2956 1122 2956 1747 
Q 2956 2369 2687 2733 
Q 2419 3097 1959 3097 
z
M 1959 3584 
Q 2709 3584 3137 3096 
Q 3566 2609 3566 1747 
Q 3566 888 3137 398 
Q 2709 -91 1959 -91 
Q 1206 -91 779 398 
Q 353 888 353 1747 
Q 353 2609 779 3096 
Q 1206 3584 1959 3584 
z
" transform="scale(0.015625)"/>
      <path id="DejaVuSans-67" d="M 2906 1791 
Q 2906 2416 2648 2759 
Q 2391 3103 1925 3103 
Q 1463 3103 1205 2759 
Q 947 2416 947 1791 
Q 947 1169 1205 825 
Q 1463 481 1925 481 
Q 2391 481 2648 825 
Q 2906 1169 2906 1791 
z
M 3481 434 
Q 3481 -459 3084 -895 
Q 2688 -1331 1869 -1331 
Q 1566 -1331 1297 -1286 
Q 1028 -1241 775 -1147 
L 775 -588 
Q 1028 -725 1275 -790 
Q 1522 -856 1778 -856 
Q 2344 -856 2625 -561 
Q 2906 -266 2906 331 
L 2906 616 
Q 2728 306 2450 153 
Q 2172 0 1784 0 
Q 1141 0 747 490 
Q 353 981 353 1791 
Q 353 2603 747 3093 
Q 1141 3584 1784 3584 
Q 2172 3584 2450 3431 
Q 2728 3278 2906 2969 
L 2906 3500 
L 3481 3500 
L 3481 434 
z
" transform="scale(0.015625)"/>
      <path id="DejaVuSans-69" d="M 603 3500 
L 1178 3500 
L 1178 0 
L 603 0 
L 603 3500 
z
M 603 4863 
L 1178 4863 
L 1178 4134 
L 603 4134 
L 603 4863 
z
" transform="scale(0.015625)"/>
      <path id="DejaVuSans-73" d="M 2834 3397 
L 2834 2853 
Q 2591 2978 2328 3040 
Q 2066 3103 1784 3103 
Q 1356 3103 1142 2972 
Q 928 2841 928 2578 
Q 928 2378 1081 2264 
Q 1234 2150 1697 2047 
L 1894 2003 
Q 2506 1872 2764 1633 
Q 3022 1394 3022 966 
Q 3022 478 2636 193 
Q 2250 -91 1575 -91 
Q 1294 -91 989 -36 
Q 684 19 347 128 
L 347 722 
Q 666 556 975 473 
Q 1284 391 1588 391 
Q 1994 391 2212 530 
Q 2431 669 2431 922 
Q 2431 1156 2273 1281 
Q 2116 1406 1581 1522 
L 1381 1569 
Q 847 1681 609 1914 
Q 372 2147 372 2553 
Q 372 3047 722 3315 
Q 1072 3584 1716 3584 
Q 2034 3584 2315 3537 
Q 2597 3491 2834 3397 
z
" transform="scale(0.015625)"/>
      <path id="DejaVuSans-74" d="M 1172 4494 
L 1172 3500 
L 2356 3500 
L 2356 3053 
L 1172 3053 
L 1172 1153 
Q 1172 725 1289 603 
Q 1406 481 1766 481 
L 2356 481 
L 2356 0 
L 1766 0 
Q 1100 0 847 248 
Q 594 497 594 1153 
L 594 3053 
L 172 3053 
L 172 3500 
L 594 3500 
L 594 4494 
L 1172 4494 
z
" transform="scale(0.015625)"/>
      <path id="DejaVuSans-63" d="M 3122 3366 
L 3122 2828 
Q 2878 2963 2633 3030 
Q 2388 3097 2138 3097 
Q 1578 3097 1268 2742 
Q 959 2388 959 1747 
Q 959 1106 1268 751 
Q 1578 397 2138 397 
Q 2388 397 2633 464 
Q 2878 531 3122 666 
L 3122 134 
Q 2881 22 2623 -34 
Q 2366 -91 2075 -91 
Q 1284 -91 818 406 
Q 353 903 353 1747 
Q 353 2603 823 3093 
Q 1294 3584 2113 3584 
Q 2378 3584 2631 3529 
Q 2884 3475 3122 3366 
z
" transform="scale(0.015625)"/>
      <path id="DejaVuSans-20" transform="scale(0.015625)"/>
      <path id="DejaVuSans-52" d="M 2841 2188 
Q 3044 2119 3236 1894 
Q 3428 1669 3622 1275 
L 4263 0 
L 3584 0 
L 2988 1197 
Q 2756 1666 2539 1819 
Q 2322 1972 1947 1972 
L 1259 1972 
L 1259 0 
L 628 0 
L 628 4666 
L 2053 4666 
Q 2853 4666 3247 4331 
Q 3641 3997 3641 3322 
Q 3641 2881 3436 2590 
Q 3231 2300 2841 2188 
z
M 1259 4147 
L 1259 2491 
L 2053 2491 
Q 2509 2491 2742 2702 
Q 2975 2913 2975 3322 
Q 2975 3731 2742 3939 
Q 2509 4147 2053 4147 
L 1259 4147 
z
" transform="scale(0.015625)"/>
      <path id="DejaVuSans-65" d="M 3597 1894 
L 3597 1613 
L 953 1613 
Q 991 1019 1311 708 
Q 1631 397 2203 397 
Q 2534 397 2845 478 
Q 3156 559 3463 722 
L 3463 178 
Q 3153 47 2828 -22 
Q 2503 -91 2169 -91 
Q 1331 -91 842 396 
Q 353 884 353 1716 
Q 353 2575 817 3079 
Q 1281 3584 2069 3584 
Q 2775 3584 3186 3129 
Q 3597 2675 3597 1894 
z
M 3022 2063 
Q 3016 2534 2758 2815 
Q 2500 3097 2075 3097 
Q 1594 3097 1305 2825 
Q 1016 2553 972 2059 
L 3022 2063 
z
" transform="scale(0.015625)"/>
      <path id="DejaVuSans-72" d="M 2631 2963 
Q 2534 3019 2420 3045 
Q 2306 3072 2169 3072 
Q 1681 3072 1420 2755 
Q 1159 2438 1159 1844 
L 1159 0 
L 581 0 
L 581 3500 
L 1159 3500 
L 1159 2956 
Q 1341 3275 1631 3429 
Q 1922 3584 2338 3584 
Q 2397 3584 2469 3576 
Q 2541 3569 2628 3553 
L 2631 2963 
z
" transform="scale(0.015625)"/>
      <path id="DejaVuSans-6e" d="M 3513 2113 
L 3513 0 
L 2938 0 
L 2938 2094 
Q 2938 2591 2744 2837 
Q 2550 3084 2163 3084 
Q 1697 3084 1428 2787 
Q 1159 2491 1159 1978 
L 1159 0 
L 581 0 
L 581 3500 
L 1159 3500 
L 1159 2956 
Q 1366 3272 1645 3428 
Q 1925 3584 2291 3584 
Q 2894 3584 3203 3211 
Q 3513 2838 3513 2113 
z
" transform="scale(0.015625)"/>
      <path id="DejaVuSans-77" d="M 269 3500 
L 844 3500 
L 1563 769 
L 2278 3500 
L 2956 3500 
L 3675 769 
L 4391 3500 
L 4966 3500 
L 4050 0 
L 3372 0 
L 2619 2869 
L 1863 0 
L 1184 0 
L 269 3500 
z
" transform="scale(0.015625)"/>
      <path id="DejaVuSans-68" d="M 3513 2113 
L 3513 0 
L 2938 0 
L 2938 2094 
Q 2938 2591 2744 2837 
Q 2550 3084 2163 3084 
Q 1697 3084 1428 2787 
Q 1159 2491 1159 1978 
L 1159 0 
L 581 0 
L 581 4863 
L 1159 4863 
L 1159 2956 
Q 1366 3272 1645 3428 
Q 1925 3584 2291 3584 
Q 2894 3584 3203 3211 
Q 3513 2838 3513 2113 
z
" transform="scale(0.015625)"/>
      <path id="DejaVuSans-57" d="M 213 4666 
L 850 4666 
L 1831 722 
L 2809 4666 
L 3519 4666 
L 4500 722 
L 5478 4666 
L 6119 4666 
L 4947 0 
L 4153 0 
L 3169 4050 
L 2175 0 
L 1381 0 
L 213 4666 
z
" transform="scale(0.015625)"/>
      <path id="DejaVuSans-61" d="M 2194 1759 
Q 1497 1759 1228 1600 
Q 959 1441 959 1056 
Q 959 750 1161 570 
Q 1363 391 1709 391 
Q 2188 391 2477 730 
Q 2766 1069 2766 1631 
L 2766 1759 
L 2194 1759 
z
M 3341 1997 
L 3341 0 
L 2766 0 
L 2766 531 
Q 2569 213 2275 61 
Q 1981 -91 1556 -91 
Q 1019 -91 701 211 
Q 384 513 384 1019 
Q 384 1609 779 1909 
Q 1175 2209 1959 2209 
L 2766 2209 
L 2766 2266 
Q 2766 2663 2505 2880 
Q 2244 3097 1772 3097 
Q 1472 3097 1187 3025 
Q 903 2953 641 2809 
L 641 3341 
Q 956 3463 1253 3523 
Q 1550 3584 1831 3584 
Q 2591 3584 2966 3190 
Q 3341 2797 3341 1997 
z
" transform="scale(0.015625)"/>
      <path id="DejaVuSans-76" d="M 191 3500 
L 800 3500 
L 1894 563 
L 2988 3500 
L 3597 3500 
L 2284 0 
L 1503 0 
L 191 3500 
z
" transform="scale(0.015625)"/>
      <path id="DejaVuSans-66" d="M 2375 4863 
L 2375 4384 
L 1825 4384 
Q 1516 4384 1395 4259 
Q 1275 4134 1275 3809 
L 1275 3500 
L 2222 3500 
L 2222 3053 
L 1275 3053 
L 1275 0 
L 697 0 
L 697 3053 
L 147 3053 
L 147 3500 
L 697 3500 
L 697 3744 
Q 697 4328 969 4595 
Q 1241 4863 1831 4863 
L 2375 4863 
z
" transform="scale(0.015625)"/>
      <path id="DejaVuSans-6d" d="M 3328 2828 
Q 3544 3216 3844 3400 
Q 4144 3584 4550 3584 
Q 5097 3584 5394 3201 
Q 5691 2819 5691 2113 
L 5691 0 
L 5113 0 
L 5113 2094 
Q 5113 2597 4934 2840 
Q 4756 3084 4391 3084 
Q 3944 3084 3684 2787 
Q 3425 2491 3425 1978 
L 3425 0 
L 2847 0 
L 2847 2094 
Q 2847 2600 2669 2842 
Q 2491 3084 2119 3084 
Q 1678 3084 1418 2786 
Q 1159 2488 1159 1978 
L 1159 0 
L 581 0 
L 581 3500 
L 1159 3500 
L 1159 2956 
Q 1356 3278 1631 3431 
Q 1906 3584 2284 3584 
Q 2666 3584 2933 3390 
Q 3200 3197 3328 2828 
z
" transform="scale(0.015625)"/>
     </defs>
     <use xlink:href="#DejaVuSans-4c"/>
     <use xlink:href="#DejaVuSans-6f" x="53.962891"/>
     <use xlink:href="#DejaVuSans-67" x="115.144531"/>
     <use xlink:href="#DejaVuSans-69" x="178.621094"/>
     <use xlink:href="#DejaVuSans-73" x="206.404297"/>
     <use xlink:href="#DejaVuSans-74" x="258.503906"/>
     <use xlink:href="#DejaVuSans-69" x="297.712891"/>
     <use xlink:href="#DejaVuSans-63" x="325.496094"/>
     <use xlink:href="#DejaVuSans-20" x="380.476562"/>
     <use xlink:href="#DejaVuSans-52" x="412.263672"/>
     <use xlink:href="#DejaVuSans-65" x="477.246094"/>
     <use xlink:href="#DejaVuSans-67" x="538.769531"/>
     <use xlink:href="#DejaVuSans-72" x="602.246094"/>
     <use xlink:href="#DejaVuSans-65" x="641.109375"/>
     <use xlink:href="#DejaVuSans-73" x="702.632812"/>
     <use xlink:href="#DejaVuSans-73" x="754.732422"/>
     <use xlink:href="#DejaVuSans-69" x="806.832031"/>
     <use xlink:href="#DejaVuSans-6f" x="834.615234"/>
     <use xlink:href="#DejaVuSans-6e" x="895.796875"/>
     <use xlink:href="#DejaVuSans-20" x="959.175781"/>
     <use xlink:href="#DejaVuSans-77" x="990.962891"/>
     <use xlink:href="#DejaVuSans-69" x="1072.75"/>
     <use xlink:href="#DejaVuSans-74" x="1100.533203"/>
     <use xlink:href="#DejaVuSans-68" x="1139.742188"/>
     <use xlink:href="#DejaVuSans-20" x="1203.121094"/>
     <use xlink:href="#DejaVuSans-57" x="1234.908203"/>
     <use xlink:href="#DejaVuSans-61" x="1327.410156"/>
     <use xlink:href="#DejaVuSans-76" x="1388.689453"/>
     <use xlink:href="#DejaVuSans-65" x="1447.869141"/>
     <use xlink:href="#DejaVuSans-66" x="1509.392578"/>
     <use xlink:href="#DejaVuSans-6f" x="1544.597656"/>
     <use xlink:href="#DejaVuSans-72" x="1605.779297"/>
     <use xlink:href="#DejaVuSans-6d" x="1645.142578"/>
    </g>
   </g>
   <g id="legend_1">
    <g id="patch_7">
     <path d="M 76.224 118.42375 
L 401.057438 118.42375 
Q 405.457438 118.42375 405.457438 114.02375 
L 405.457438 51.64 
Q 405.457438 47.24 401.057438 47.24 
L 76.224 47.24 
Q 71.824 47.24 71.824 51.64 
L 71.824 114.02375 
Q 71.824 118.42375 76.224 118.42375 
z
" style="fill: #ffffff; opacity: 0.8; stroke: #cccccc; stroke-linejoin: miter"/>
    </g>
    <g id="line2d_21">
     <path d="M 80.624 65.056563 
L 102.624 65.056563 
L 124.624 65.056563 
" style="fill: none; stroke: #1f77b4; stroke-width: 1.5; stroke-linecap: square"/>
     <g>
      <use xlink:href="#m970e766995" x="102.624" y="65.056563" style="fill: #1f77b4; stroke: #1f77b4"/>
     </g>
    </g>
    <g id="text_22">
     <!-- ZAMinfluence -->
     <g transform="translate(142.224 72.756563) scale(0.22 -0.22)">
      <defs>
       <path id="DejaVuSans-5a" d="M 359 4666 
L 4025 4666 
L 4025 4184 
L 1075 531 
L 4097 531 
L 4097 0 
L 288 0 
L 288 481 
L 3238 4134 
L 359 4134 
L 359 4666 
z
" transform="scale(0.015625)"/>
       <path id="DejaVuSans-41" d="M 2188 4044 
L 1331 1722 
L 3047 1722 
L 2188 4044 
z
M 1831 4666 
L 2547 4666 
L 4325 0 
L 3669 0 
L 3244 1197 
L 1141 1197 
L 716 0 
L 50 0 
L 1831 4666 
z
" transform="scale(0.015625)"/>
       <path id="DejaVuSans-4d" d="M 628 4666 
L 1569 4666 
L 2759 1491 
L 3956 4666 
L 4897 4666 
L 4897 0 
L 4281 0 
L 4281 4097 
L 3078 897 
L 2444 897 
L 1241 4097 
L 1241 0 
L 628 0 
L 628 4666 
z
" transform="scale(0.015625)"/>
       <path id="DejaVuSans-6c" d="M 603 4863 
L 1178 4863 
L 1178 0 
L 603 0 
L 603 4863 
z
" transform="scale(0.015625)"/>
       <path id="DejaVuSans-75" d="M 544 1381 
L 544 3500 
L 1119 3500 
L 1119 1403 
Q 1119 906 1312 657 
Q 1506 409 1894 409 
Q 2359 409 2629 706 
Q 2900 1003 2900 1516 
L 2900 3500 
L 3475 3500 
L 3475 0 
L 2900 0 
L 2900 538 
Q 2691 219 2414 64 
Q 2138 -91 1772 -91 
Q 1169 -91 856 284 
Q 544 659 544 1381 
z
M 1991 3584 
L 1991 3584 
z
" transform="scale(0.015625)"/>
      </defs>
      <use xlink:href="#DejaVuSans-5a"/>
      <use xlink:href="#DejaVuSans-41" x="68.505859"/>
      <use xlink:href="#DejaVuSans-4d" x="136.914062"/>
      <use xlink:href="#DejaVuSans-69" x="223.193359"/>
      <use xlink:href="#DejaVuSans-6e" x="250.976562"/>
      <use xlink:href="#DejaVuSans-66" x="314.355469"/>
      <use xlink:href="#DejaVuSans-6c" x="349.560547"/>
      <use xlink:href="#DejaVuSans-75" x="377.34375"/>
      <use xlink:href="#DejaVuSans-65" x="440.722656"/>
      <use xlink:href="#DejaVuSans-6e" x="502.246094"/>
      <use xlink:href="#DejaVuSans-63" x="565.625"/>
      <use xlink:href="#DejaVuSans-65" x="620.605469"/>
     </g>
    </g>
    <g id="line2d_22">
     <path d="M 80.624 97.348438 
L 102.624 97.348438 
L 124.624 97.348438 
" style="fill: none; stroke: #ff7f0e; stroke-width: 1.5; stroke-linecap: square"/>
     <g>
      <use xlink:href="#m9ea8035d78" x="102.624" y="97.348438" style="fill: #ff7f0e; stroke: #ff7f0e"/>
     </g>
    </g>
    <g id="text_23">
     <!-- Adaptive ZAMinfluence -->
     <g transform="translate(142.224 105.048438) scale(0.22 -0.22)">
      <defs>
       <path id="DejaVuSans-64" d="M 2906 2969 
L 2906 4863 
L 3481 4863 
L 3481 0 
L 2906 0 
L 2906 525 
Q 2725 213 2448 61 
Q 2172 -91 1784 -91 
Q 1150 -91 751 415 
Q 353 922 353 1747 
Q 353 2572 751 3078 
Q 1150 3584 1784 3584 
Q 2172 3584 2448 3432 
Q 2725 3281 2906 2969 
z
M 947 1747 
Q 947 1113 1208 752 
Q 1469 391 1925 391 
Q 2381 391 2643 752 
Q 2906 1113 2906 1747 
Q 2906 2381 2643 2742 
Q 2381 3103 1925 3103 
Q 1469 3103 1208 2742 
Q 947 2381 947 1747 
z
" transform="scale(0.015625)"/>
       <path id="DejaVuSans-70" d="M 1159 525 
L 1159 -1331 
L 581 -1331 
L 581 3500 
L 1159 3500 
L 1159 2969 
Q 1341 3281 1617 3432 
Q 1894 3584 2278 3584 
Q 2916 3584 3314 3078 
Q 3713 2572 3713 1747 
Q 3713 922 3314 415 
Q 2916 -91 2278 -91 
Q 1894 -91 1617 61 
Q 1341 213 1159 525 
z
M 3116 1747 
Q 3116 2381 2855 2742 
Q 2594 3103 2138 3103 
Q 1681 3103 1420 2742 
Q 1159 2381 1159 1747 
Q 1159 1113 1420 752 
Q 1681 391 2138 391 
Q 2594 391 2855 752 
Q 3116 1113 3116 1747 
z
" transform="scale(0.015625)"/>
      </defs>
      <use xlink:href="#DejaVuSans-41"/>
      <use xlink:href="#DejaVuSans-64" x="66.658203"/>
      <use xlink:href="#DejaVuSans-61" x="130.134766"/>
      <use xlink:href="#DejaVuSans-70" x="191.414062"/>
      <use xlink:href="#DejaVuSans-74" x="254.890625"/>
      <use xlink:href="#DejaVuSans-69" x="294.099609"/>
      <use xlink:href="#DejaVuSans-76" x="321.882812"/>
      <use xlink:href="#DejaVuSans-65" x="381.0625"/>
      <use xlink:href="#DejaVuSans-20" x="442.585938"/>
      <use xlink:href="#DejaVuSans-5a" x="474.373047"/>
      <use xlink:href="#DejaVuSans-41" x="542.878906"/>
      <use xlink:href="#DejaVuSans-4d" x="611.287109"/>
      <use xlink:href="#DejaVuSans-69" x="697.566406"/>
      <use xlink:href="#DejaVuSans-6e" x="725.349609"/>
      <use xlink:href="#DejaVuSans-66" x="788.728516"/>
      <use xlink:href="#DejaVuSans-6c" x="823.933594"/>
      <use xlink:href="#DejaVuSans-75" x="851.716797"/>
      <use xlink:href="#DejaVuSans-65" x="915.095703"/>
      <use xlink:href="#DejaVuSans-6e" x="976.619141"/>
      <use xlink:href="#DejaVuSans-63" x="1039.998047"/>
      <use xlink:href="#DejaVuSans-65" x="1094.978516"/>
     </g>
    </g>
   </g>
  </g>
 </g>
 <defs>
  <clipPath id="p14a8121617">
   <rect x="60.824" y="36.24" width="503.606909" height="257.32"/>
  </clipPath>
 </defs>
</svg>
