<?xml version="1.0" encoding="utf-8" standalone="no"?>
<!DOCTYPE svg PUBLIC "-//W3C//DTD SVG 1.1//EN"
  "http://www.w3.org/Graphics/SVG/1.1/DTD/svg11.dtd">
<svg xmlns:xlink="http://www.w3.org/1999/xlink" width="576pt" height="360pt" viewBox="0 0 576 360" xmlns="http://www.w3.org/2000/svg" version="1.1">
 <metadata>
  <rdf:RDF xmlns:dc="http://purl.org/dc/elements/1.1/" xmlns:cc="http://creativecommons.org/ns#" xmlns:rdf="http://www.w3.org/1999/02/22-rdf-syntax-ns#">
   <cc:Work>
    <dc:type rdf:resource="http://purl.org/dc/dcmitype/StillImage"/>
    <dc:date>2024-05-11T01:39:16.558107</dc:date>
    <dc:format>image/svg+xml</dc:format>
    <dc:creator>
     <cc:Agent>
      <dc:title>Matplotlib v3.8.0, https://matplotlib.org/</dc:title>
     </cc:Agent>
    </dc:creator>
   </cc:Work>
  </rdf:RDF>
 </metadata>
 <defs>
  <style type="text/css">*{stroke-linejoin: round; stroke-linecap: butt}</style>
 </defs>
 <g id="figure_1">
  <g id="patch_1">
   <path d="M 0 360 
L 576 360 
L 576 0 
L 0 0 
z
" style="fill: #ffffff"/>
  </g>
  <g id="axes_1">
   <g id="patch_2">
    <path d="M 31.84 321.32 
L 564.430909 321.32 
L 564.430909 36.24 
L 31.84 36.24 
z
" style="fill: #ffffff"/>
   </g>
   <g id="matplotlib.axis_1">
    <g id="xtick_1">
     <g id="line2d_1">
      <defs>
       <path id="m0fcf460a19" d="M 0 0 
L 0 3.5 
" style="stroke: #000000; stroke-width: 0.8"/>
      </defs>
      <g>
       <use xlink:href="#m0fcf460a19" x="56.048678" y="321.32" style="stroke: #000000; stroke-width: 0.8"/>
      </g>
     </g>
     <g id="text_1">
      <!-- 1 -->
      <g transform="translate(49.049928 345.036563) scale(0.22 -0.22)">
       <defs>
        <path id="DejaVuSans-31" d="M 794 531 
L 1825 531 
L 1825 4091 
L 703 3866 
L 703 4441 
L 1819 4666 
L 2450 4666 
L 2450 531 
L 3481 531 
L 3481 0 
L 794 0 
L 794 531 
z
" transform="scale(0.015625)"/>
       </defs>
       <use xlink:href="#DejaVuSans-31"/>
      </g>
     </g>
    </g>
    <g id="xtick_2">
     <g id="line2d_2">
      <g>
       <use xlink:href="#m0fcf460a19" x="100.064455" y="321.32" style="stroke: #000000; stroke-width: 0.8"/>
      </g>
     </g>
     <g id="text_2">
      <!-- 10 -->
      <g transform="translate(86.066955 345.036563) scale(0.22 -0.22)">
       <defs>
        <path id="DejaVuSans-30" d="M 2034 4250 
Q 1547 4250 1301 3770 
Q 1056 3291 1056 2328 
Q 1056 1369 1301 889 
Q 1547 409 2034 409 
Q 2525 409 2770 889 
Q 3016 1369 3016 2328 
Q 3016 3291 2770 3770 
Q 2525 4250 2034 4250 
z
M 2034 4750 
Q 2819 4750 3233 4129 
Q 3647 3509 3647 2328 
Q 3647 1150 3233 529 
Q 2819 -91 2034 -91 
Q 1250 -91 836 529 
Q 422 1150 422 2328 
Q 422 3509 836 4129 
Q 1250 4750 2034 4750 
z
" transform="scale(0.015625)"/>
       </defs>
       <use xlink:href="#DejaVuSans-31"/>
       <use xlink:href="#DejaVuSans-30" x="63.623047"/>
      </g>
     </g>
    </g>
    <g id="xtick_3">
     <g id="line2d_3">
      <g>
       <use xlink:href="#m0fcf460a19" x="148.970875" y="321.32" style="stroke: #000000; stroke-width: 0.8"/>
      </g>
     </g>
     <g id="text_3">
      <!-- 20 -->
      <g transform="translate(134.973375 345.036563) scale(0.22 -0.22)">
       <defs>
        <path id="DejaVuSans-32" d="M 1228 531 
L 3431 531 
L 3431 0 
L 469 0 
L 469 531 
Q 828 903 1448 1529 
Q 2069 2156 2228 2338 
Q 2531 2678 2651 2914 
Q 2772 3150 2772 3378 
Q 2772 3750 2511 3984 
Q 2250 4219 1831 4219 
Q 1534 4219 1204 4116 
Q 875 4013 500 3803 
L 500 4441 
Q 881 4594 1212 4672 
Q 1544 4750 1819 4750 
Q 2544 4750 2975 4387 
Q 3406 4025 3406 3419 
Q 3406 3131 3298 2873 
Q 3191 2616 2906 2266 
Q 2828 2175 2409 1742 
Q 1991 1309 1228 531 
z
" transform="scale(0.015625)"/>
       </defs>
       <use xlink:href="#DejaVuSans-32"/>
       <use xlink:href="#DejaVuSans-30" x="63.623047"/>
      </g>
     </g>
    </g>
    <g id="xtick_4">
     <g id="line2d_4">
      <g>
       <use xlink:href="#m0fcf460a19" x="197.877294" y="321.32" style="stroke: #000000; stroke-width: 0.8"/>
      </g>
     </g>
     <g id="text_4">
      <!-- 30 -->
      <g transform="translate(183.879794 345.036563) scale(0.22 -0.22)">
       <defs>
        <path id="DejaVuSans-33" d="M 2597 2516 
Q 3050 2419 3304 2112 
Q 3559 1806 3559 1356 
Q 3559 666 3084 287 
Q 2609 -91 1734 -91 
Q 1441 -91 1130 -33 
Q 819 25 488 141 
L 488 750 
Q 750 597 1062 519 
Q 1375 441 1716 441 
Q 2309 441 2620 675 
Q 2931 909 2931 1356 
Q 2931 1769 2642 2001 
Q 2353 2234 1838 2234 
L 1294 2234 
L 1294 2753 
L 1863 2753 
Q 2328 2753 2575 2939 
Q 2822 3125 2822 3475 
Q 2822 3834 2567 4026 
Q 2313 4219 1838 4219 
Q 1578 4219 1281 4162 
Q 984 4106 628 3988 
L 628 4550 
Q 988 4650 1302 4700 
Q 1616 4750 1894 4750 
Q 2613 4750 3031 4423 
Q 3450 4097 3450 3541 
Q 3450 3153 3228 2886 
Q 3006 2619 2597 2516 
z
" transform="scale(0.015625)"/>
       </defs>
       <use xlink:href="#DejaVuSans-33"/>
       <use xlink:href="#DejaVuSans-30" x="63.623047"/>
      </g>
     </g>
    </g>
    <g id="xtick_5">
     <g id="line2d_5">
      <g>
       <use xlink:href="#m0fcf460a19" x="246.783714" y="321.32" style="stroke: #000000; stroke-width: 0.8"/>
      </g>
     </g>
     <g id="text_5">
      <!-- 40 -->
      <g transform="translate(232.786214 345.036563) scale(0.22 -0.22)">
       <defs>
        <path id="DejaVuSans-34" d="M 2419 4116 
L 825 1625 
L 2419 1625 
L 2419 4116 
z
M 2253 4666 
L 3047 4666 
L 3047 1625 
L 3713 1625 
L 3713 1100 
L 3047 1100 
L 3047 0 
L 2419 0 
L 2419 1100 
L 313 1100 
L 313 1709 
L 2253 4666 
z
" transform="scale(0.015625)"/>
       </defs>
       <use xlink:href="#DejaVuSans-34"/>
       <use xlink:href="#DejaVuSans-30" x="63.623047"/>
      </g>
     </g>
    </g>
    <g id="xtick_6">
     <g id="line2d_6">
      <g>
       <use xlink:href="#m0fcf460a19" x="295.690134" y="321.32" style="stroke: #000000; stroke-width: 0.8"/>
      </g>
     </g>
     <g id="text_6">
      <!-- 50 -->
      <g transform="translate(281.692634 345.036563) scale(0.22 -0.22)">
       <defs>
        <path id="DejaVuSans-35" d="M 691 4666 
L 3169 4666 
L 3169 4134 
L 1269 4134 
L 1269 2991 
Q 1406 3038 1543 3061 
Q 1681 3084 1819 3084 
Q 2600 3084 3056 2656 
Q 3513 2228 3513 1497 
Q 3513 744 3044 326 
Q 2575 -91 1722 -91 
Q 1428 -91 1123 -41 
Q 819 9 494 109 
L 494 744 
Q 775 591 1075 516 
Q 1375 441 1709 441 
Q 2250 441 2565 725 
Q 2881 1009 2881 1497 
Q 2881 1984 2565 2268 
Q 2250 2553 1709 2553 
Q 1456 2553 1204 2497 
Q 953 2441 691 2322 
L 691 4666 
z
" transform="scale(0.015625)"/>
       </defs>
       <use xlink:href="#DejaVuSans-35"/>
       <use xlink:href="#DejaVuSans-30" x="63.623047"/>
      </g>
     </g>
    </g>
    <g id="xtick_7">
     <g id="line2d_7">
      <g>
       <use xlink:href="#m0fcf460a19" x="344.596553" y="321.32" style="stroke: #000000; stroke-width: 0.8"/>
      </g>
     </g>
     <g id="text_7">
      <!-- 60 -->
      <g transform="translate(330.599053 345.036563) scale(0.22 -0.22)">
       <defs>
        <path id="DejaVuSans-36" d="M 2113 2584 
Q 1688 2584 1439 2293 
Q 1191 2003 1191 1497 
Q 1191 994 1439 701 
Q 1688 409 2113 409 
Q 2538 409 2786 701 
Q 3034 994 3034 1497 
Q 3034 2003 2786 2293 
Q 2538 2584 2113 2584 
z
M 3366 4563 
L 3366 3988 
Q 3128 4100 2886 4159 
Q 2644 4219 2406 4219 
Q 1781 4219 1451 3797 
Q 1122 3375 1075 2522 
Q 1259 2794 1537 2939 
Q 1816 3084 2150 3084 
Q 2853 3084 3261 2657 
Q 3669 2231 3669 1497 
Q 3669 778 3244 343 
Q 2819 -91 2113 -91 
Q 1303 -91 875 529 
Q 447 1150 447 2328 
Q 447 3434 972 4092 
Q 1497 4750 2381 4750 
Q 2619 4750 2861 4703 
Q 3103 4656 3366 4563 
z
" transform="scale(0.015625)"/>
       </defs>
       <use xlink:href="#DejaVuSans-36"/>
       <use xlink:href="#DejaVuSans-30" x="63.623047"/>
      </g>
     </g>
    </g>
    <g id="xtick_8">
     <g id="line2d_8">
      <g>
       <use xlink:href="#m0fcf460a19" x="393.502973" y="321.32" style="stroke: #000000; stroke-width: 0.8"/>
      </g>
     </g>
     <g id="text_8">
      <!-- 70 -->
      <g transform="translate(379.505473 345.036563) scale(0.22 -0.22)">
       <defs>
        <path id="DejaVuSans-37" d="M 525 4666 
L 3525 4666 
L 3525 4397 
L 1831 0 
L 1172 0 
L 2766 4134 
L 525 4134 
L 525 4666 
z
" transform="scale(0.015625)"/>
       </defs>
       <use xlink:href="#DejaVuSans-37"/>
       <use xlink:href="#DejaVuSans-30" x="63.623047"/>
      </g>
     </g>
    </g>
    <g id="xtick_9">
     <g id="line2d_9">
      <g>
       <use xlink:href="#m0fcf460a19" x="442.409392" y="321.32" style="stroke: #000000; stroke-width: 0.8"/>
      </g>
     </g>
     <g id="text_9">
      <!-- 80 -->
      <g transform="translate(428.411892 345.036563) scale(0.22 -0.22)">
       <defs>
        <path id="DejaVuSans-38" d="M 2034 2216 
Q 1584 2216 1326 1975 
Q 1069 1734 1069 1313 
Q 1069 891 1326 650 
Q 1584 409 2034 409 
Q 2484 409 2743 651 
Q 3003 894 3003 1313 
Q 3003 1734 2745 1975 
Q 2488 2216 2034 2216 
z
M 1403 2484 
Q 997 2584 770 2862 
Q 544 3141 544 3541 
Q 544 4100 942 4425 
Q 1341 4750 2034 4750 
Q 2731 4750 3128 4425 
Q 3525 4100 3525 3541 
Q 3525 3141 3298 2862 
Q 3072 2584 2669 2484 
Q 3125 2378 3379 2068 
Q 3634 1759 3634 1313 
Q 3634 634 3220 271 
Q 2806 -91 2034 -91 
Q 1263 -91 848 271 
Q 434 634 434 1313 
Q 434 1759 690 2068 
Q 947 2378 1403 2484 
z
M 1172 3481 
Q 1172 3119 1398 2916 
Q 1625 2713 2034 2713 
Q 2441 2713 2670 2916 
Q 2900 3119 2900 3481 
Q 2900 3844 2670 4047 
Q 2441 4250 2034 4250 
Q 1625 4250 1398 4047 
Q 1172 3844 1172 3481 
z
" transform="scale(0.015625)"/>
       </defs>
       <use xlink:href="#DejaVuSans-38"/>
       <use xlink:href="#DejaVuSans-30" x="63.623047"/>
      </g>
     </g>
    </g>
    <g id="xtick_10">
     <g id="line2d_10">
      <g>
       <use xlink:href="#m0fcf460a19" x="491.315812" y="321.32" style="stroke: #000000; stroke-width: 0.8"/>
      </g>
     </g>
     <g id="text_10">
      <!-- 90 -->
      <g transform="translate(477.318312 345.036563) scale(0.22 -0.22)">
       <defs>
        <path id="DejaVuSans-39" d="M 703 97 
L 703 672 
Q 941 559 1184 500 
Q 1428 441 1663 441 
Q 2288 441 2617 861 
Q 2947 1281 2994 2138 
Q 2813 1869 2534 1725 
Q 2256 1581 1919 1581 
Q 1219 1581 811 2004 
Q 403 2428 403 3163 
Q 403 3881 828 4315 
Q 1253 4750 1959 4750 
Q 2769 4750 3195 4129 
Q 3622 3509 3622 2328 
Q 3622 1225 3098 567 
Q 2575 -91 1691 -91 
Q 1453 -91 1209 -44 
Q 966 3 703 97 
z
M 1959 2075 
Q 2384 2075 2632 2365 
Q 2881 2656 2881 3163 
Q 2881 3666 2632 3958 
Q 2384 4250 1959 4250 
Q 1534 4250 1286 3958 
Q 1038 3666 1038 3163 
Q 1038 2656 1286 2365 
Q 1534 2075 1959 2075 
z
" transform="scale(0.015625)"/>
       </defs>
       <use xlink:href="#DejaVuSans-39"/>
       <use xlink:href="#DejaVuSans-30" x="63.623047"/>
      </g>
     </g>
    </g>
    <g id="xtick_11">
     <g id="line2d_11">
      <g>
       <use xlink:href="#m0fcf460a19" x="540.222231" y="321.32" style="stroke: #000000; stroke-width: 0.8"/>
      </g>
     </g>
     <g id="text_11">
      <!-- 100 -->
      <g transform="translate(519.225981 345.036563) scale(0.22 -0.22)">
       <use xlink:href="#DejaVuSans-31"/>
       <use xlink:href="#DejaVuSans-30" x="63.623047"/>
       <use xlink:href="#DejaVuSans-30" x="127.246094"/>
      </g>
     </g>
    </g>
   </g>
   <g id="matplotlib.axis_2">
    <g id="ytick_1">
     <g id="line2d_12">
      <defs>
       <path id="maf16c556e3" d="M 0 0 
L -3.5 0 
" style="stroke: #000000; stroke-width: 0.8"/>
      </defs>
      <g>
       <use xlink:href="#maf16c556e3" x="31.84" y="311.468518" style="stroke: #000000; stroke-width: 0.8"/>
      </g>
     </g>
     <g id="text_12">
      <!-- 0 -->
      <g transform="translate(10.8425 319.826799) scale(0.22 -0.22)">
       <use xlink:href="#DejaVuSans-30"/>
      </g>
     </g>
    </g>
    <g id="ytick_2">
     <g id="line2d_13">
      <g>
       <use xlink:href="#maf16c556e3" x="31.84" y="248.809293" style="stroke: #000000; stroke-width: 0.8"/>
      </g>
     </g>
     <g id="text_13">
      <!-- 2 -->
      <g transform="translate(10.8425 257.167574) scale(0.22 -0.22)">
       <use xlink:href="#DejaVuSans-32"/>
      </g>
     </g>
    </g>
    <g id="ytick_3">
     <g id="line2d_14">
      <g>
       <use xlink:href="#maf16c556e3" x="31.84" y="186.150067" style="stroke: #000000; stroke-width: 0.8"/>
      </g>
     </g>
     <g id="text_14">
      <!-- 4 -->
      <g transform="translate(10.8425 194.508348) scale(0.22 -0.22)">
       <use xlink:href="#DejaVuSans-34"/>
      </g>
     </g>
    </g>
    <g id="ytick_4">
     <g id="line2d_15">
      <g>
       <use xlink:href="#maf16c556e3" x="31.84" y="123.490842" style="stroke: #000000; stroke-width: 0.8"/>
      </g>
     </g>
     <g id="text_15">
      <!-- 6 -->
      <g transform="translate(10.8425 131.849123) scale(0.22 -0.22)">
       <use xlink:href="#DejaVuSans-36"/>
      </g>
     </g>
    </g>
    <g id="ytick_5">
     <g id="line2d_16">
      <g>
       <use xlink:href="#maf16c556e3" x="31.84" y="60.831616" style="stroke: #000000; stroke-width: 0.8"/>
      </g>
     </g>
     <g id="text_16">
      <!-- 8 -->
      <g transform="translate(10.8425 69.189898) scale(0.22 -0.22)">
       <use xlink:href="#DejaVuSans-38"/>
      </g>
     </g>
    </g>
   </g>
   <g id="line2d_17">
    <path d="M 56.048678 308.361818 
L 70.720604 300.602009 
L 85.392529 293.572421 
L 100.064455 286.944727 
L 114.736381 280.50288 
L 129.408307 274.223255 
L 144.080233 267.982964 
L 158.752159 261.772551 
L 173.424085 255.476747 
L 188.096011 249.273933 
L 202.767936 243.038081 
L 217.439862 236.73 
L 232.111788 230.432908 
L 246.783714 224.093191 
L 261.45564 217.630868 
L 276.127566 211.085823 
L 290.799492 204.487355 
L 305.471417 197.910402 
L 320.143343 191.490408 
L 334.815269 184.668352 
L 349.487195 177.874022 
L 364.159121 171.016888 
L 378.831047 163.992835 
L 393.502973 156.701341 
L 408.174899 149.721366 
L 422.846824 142.390486 
L 437.51875 135.118087 
L 452.190676 127.590948 
L 466.862602 119.554394 
L 481.534528 111.533497 
L 496.206454 103.321788 
L 510.87838 95.049097 
L 525.550306 86.664953 
L 540.222231 78.172421 
L 540.222231 78.172421 
" clip-path="url(#p2f8d649c1e)" style="fill: none; stroke: #ffc400; stroke-width: 1.5; stroke-linecap: square"/>
    <defs>
     <path id="m16eebd0fe0" d="M 0 3 
C 0.795609 3 1.55874 2.683901 2.12132 2.12132 
C 2.683901 1.55874 3 0.795609 3 0 
C 3 -0.795609 2.683901 -1.55874 2.12132 -2.12132 
C 1.55874 -2.683901 0.795609 -3 0 -3 
C -0.795609 -3 -1.55874 -2.683901 -2.12132 -2.12132 
C -2.683901 -1.55874 -3 -0.795609 -3 0 
C -3 0.795609 -2.683901 1.55874 -2.12132 2.12132 
C -1.55874 2.683901 -0.795609 3 0 3 
z
" style="stroke: #ffc400"/>
    </defs>
    <g clip-path="url(#p2f8d649c1e)">
     <use xlink:href="#m16eebd0fe0" x="56.048678" y="308.361818" style="fill: #ffc400; stroke: #ffc400"/>
     <use xlink:href="#m16eebd0fe0" x="70.720604" y="300.602009" style="fill: #ffc400; stroke: #ffc400"/>
     <use xlink:href="#m16eebd0fe0" x="85.392529" y="293.572421" style="fill: #ffc400; stroke: #ffc400"/>
     <use xlink:href="#m16eebd0fe0" x="100.064455" y="286.944727" style="fill: #ffc400; stroke: #ffc400"/>
     <use xlink:href="#m16eebd0fe0" x="114.736381" y="280.50288" style="fill: #ffc400; stroke: #ffc400"/>
     <use xlink:href="#m16eebd0fe0" x="129.408307" y="274.223255" style="fill: #ffc400; stroke: #ffc400"/>
     <use xlink:href="#m16eebd0fe0" x="144.080233" y="267.982964" style="fill: #ffc400; stroke: #ffc400"/>
     <use xlink:href="#m16eebd0fe0" x="158.752159" y="261.772551" style="fill: #ffc400; stroke: #ffc400"/>
     <use xlink:href="#m16eebd0fe0" x="173.424085" y="255.476747" style="fill: #ffc400; stroke: #ffc400"/>
     <use xlink:href="#m16eebd0fe0" x="188.096011" y="249.273933" style="fill: #ffc400; stroke: #ffc400"/>
     <use xlink:href="#m16eebd0fe0" x="202.767936" y="243.038081" style="fill: #ffc400; stroke: #ffc400"/>
     <use xlink:href="#m16eebd0fe0" x="217.439862" y="236.73" style="fill: #ffc400; stroke: #ffc400"/>
     <use xlink:href="#m16eebd0fe0" x="232.111788" y="230.432908" style="fill: #ffc400; stroke: #ffc400"/>
     <use xlink:href="#m16eebd0fe0" x="246.783714" y="224.093191" style="fill: #ffc400; stroke: #ffc400"/>
     <use xlink:href="#m16eebd0fe0" x="261.45564" y="217.630868" style="fill: #ffc400; stroke: #ffc400"/>
     <use xlink:href="#m16eebd0fe0" x="276.127566" y="211.085823" style="fill: #ffc400; stroke: #ffc400"/>
     <use xlink:href="#m16eebd0fe0" x="290.799492" y="204.487355" style="fill: #ffc400; stroke: #ffc400"/>
     <use xlink:href="#m16eebd0fe0" x="305.471417" y="197.910402" style="fill: #ffc400; stroke: #ffc400"/>
     <use xlink:href="#m16eebd0fe0" x="320.143343" y="191.490408" style="fill: #ffc400; stroke: #ffc400"/>
     <use xlink:href="#m16eebd0fe0" x="334.815269" y="184.668352" style="fill: #ffc400; stroke: #ffc400"/>
     <use xlink:href="#m16eebd0fe0" x="349.487195" y="177.874022" style="fill: #ffc400; stroke: #ffc400"/>
     <use xlink:href="#m16eebd0fe0" x="364.159121" y="171.016888" style="fill: #ffc400; stroke: #ffc400"/>
     <use xlink:href="#m16eebd0fe0" x="378.831047" y="163.992835" style="fill: #ffc400; stroke: #ffc400"/>
     <use xlink:href="#m16eebd0fe0" x="393.502973" y="156.701341" style="fill: #ffc400; stroke: #ffc400"/>
     <use xlink:href="#m16eebd0fe0" x="408.174899" y="149.721366" style="fill: #ffc400; stroke: #ffc400"/>
     <use xlink:href="#m16eebd0fe0" x="422.846824" y="142.390486" style="fill: #ffc400; stroke: #ffc400"/>
     <use xlink:href="#m16eebd0fe0" x="437.51875" y="135.118087" style="fill: #ffc400; stroke: #ffc400"/>
     <use xlink:href="#m16eebd0fe0" x="452.190676" y="127.590948" style="fill: #ffc400; stroke: #ffc400"/>
     <use xlink:href="#m16eebd0fe0" x="466.862602" y="119.554394" style="fill: #ffc400; stroke: #ffc400"/>
     <use xlink:href="#m16eebd0fe0" x="481.534528" y="111.533497" style="fill: #ffc400; stroke: #ffc400"/>
     <use xlink:href="#m16eebd0fe0" x="496.206454" y="103.321788" style="fill: #ffc400; stroke: #ffc400"/>
     <use xlink:href="#m16eebd0fe0" x="510.87838" y="95.049097" style="fill: #ffc400; stroke: #ffc400"/>
     <use xlink:href="#m16eebd0fe0" x="525.550306" y="86.664953" style="fill: #ffc400; stroke: #ffc400"/>
     <use xlink:href="#m16eebd0fe0" x="540.222231" y="78.172421" style="fill: #ffc400; stroke: #ffc400"/>
     <use xlink:href="#m16eebd0fe0" x="540.222231" y="78.172421" style="fill: #ffc400; stroke: #ffc400"/>
    </g>
   </g>
   <g id="line2d_18">
    <path d="M 56.048678 308.361818 
L 70.720604 300.597503 
L 85.392529 293.560117 
L 100.064455 286.91953 
L 114.736381 280.459645 
L 129.408307 274.110059 
L 144.080233 267.781487 
L 158.752159 261.430902 
L 173.424085 255.056 
L 188.096011 248.635464 
L 202.767936 242.171563 
L 217.439862 235.682838 
L 232.111788 229.123331 
L 246.783714 222.431201 
L 261.45564 215.634678 
L 276.127566 208.729677 
L 290.799492 201.764378 
L 305.471417 194.650832 
L 320.143343 187.419847 
L 334.815269 180.062155 
L 349.487195 172.525274 
L 364.159121 164.776677 
L 378.831047 156.814668 
L 393.502973 148.5762 
L 408.174899 140.113444 
L 422.846824 131.465962 
L 437.51875 122.573133 
L 452.190676 113.334877 
L 466.862602 103.666294 
L 481.534528 93.607724 
L 496.206454 83.209406 
L 510.87838 72.397133 
L 525.550306 61.079501 
L 540.222231 49.198182 
L 540.222231 49.198182 
" clip-path="url(#p2f8d649c1e)" style="fill: none; stroke: #8b2be2; stroke-width: 1.5; stroke-linecap: square"/>
    <defs>
     <path id="ma2ab57b342" d="M 0 3 
C 0.795609 3 1.55874 2.683901 2.12132 2.12132 
C 2.683901 1.55874 3 0.795609 3 0 
C 3 -0.795609 2.683901 -1.55874 2.12132 -2.12132 
C 1.55874 -2.683901 0.795609 -3 0 -3 
C -0.795609 -3 -1.55874 -2.683901 -2.12132 -2.12132 
C -2.683901 -1.55874 -3 -0.795609 -3 0 
C -3 0.795609 -2.683901 1.55874 -2.12132 2.12132 
C -1.55874 2.683901 -0.795609 3 0 3 
z
" style="stroke: #8b2be2"/>
    </defs>
    <g clip-path="url(#p2f8d649c1e)">
     <use xlink:href="#ma2ab57b342" x="56.048678" y="308.361818" style="fill: #8b2be2; stroke: #8b2be2"/>
     <use xlink:href="#ma2ab57b342" x="70.720604" y="300.597503" style="fill: #8b2be2; stroke: #8b2be2"/>
     <use xlink:href="#ma2ab57b342" x="85.392529" y="293.560117" style="fill: #8b2be2; stroke: #8b2be2"/>
     <use xlink:href="#ma2ab57b342" x="100.064455" y="286.91953" style="fill: #8b2be2; stroke: #8b2be2"/>
     <use xlink:href="#ma2ab57b342" x="114.736381" y="280.459645" style="fill: #8b2be2; stroke: #8b2be2"/>
     <use xlink:href="#ma2ab57b342" x="129.408307" y="274.110059" style="fill: #8b2be2; stroke: #8b2be2"/>
     <use xlink:href="#ma2ab57b342" x="144.080233" y="267.781487" style="fill: #8b2be2; stroke: #8b2be2"/>
     <use xlink:href="#ma2ab57b342" x="158.752159" y="261.430902" style="fill: #8b2be2; stroke: #8b2be2"/>
     <use xlink:href="#ma2ab57b342" x="173.424085" y="255.056" style="fill: #8b2be2; stroke: #8b2be2"/>
     <use xlink:href="#ma2ab57b342" x="188.096011" y="248.635464" style="fill: #8b2be2; stroke: #8b2be2"/>
     <use xlink:href="#ma2ab57b342" x="202.767936" y="242.171563" style="fill: #8b2be2; stroke: #8b2be2"/>
     <use xlink:href="#ma2ab57b342" x="217.439862" y="235.682838" style="fill: #8b2be2; stroke: #8b2be2"/>
     <use xlink:href="#ma2ab57b342" x="232.111788" y="229.123331" style="fill: #8b2be2; stroke: #8b2be2"/>
     <use xlink:href="#ma2ab57b342" x="246.783714" y="222.431201" style="fill: #8b2be2; stroke: #8b2be2"/>
     <use xlink:href="#ma2ab57b342" x="261.45564" y="215.634678" style="fill: #8b2be2; stroke: #8b2be2"/>
     <use xlink:href="#ma2ab57b342" x="276.127566" y="208.729677" style="fill: #8b2be2; stroke: #8b2be2"/>
     <use xlink:href="#ma2ab57b342" x="290.799492" y="201.764378" style="fill: #8b2be2; stroke: #8b2be2"/>
     <use xlink:href="#ma2ab57b342" x="305.471417" y="194.650832" style="fill: #8b2be2; stroke: #8b2be2"/>
     <use xlink:href="#ma2ab57b342" x="320.143343" y="187.419847" style="fill: #8b2be2; stroke: #8b2be2"/>
     <use xlink:href="#ma2ab57b342" x="334.815269" y="180.062155" style="fill: #8b2be2; stroke: #8b2be2"/>
     <use xlink:href="#ma2ab57b342" x="349.487195" y="172.525274" style="fill: #8b2be2; stroke: #8b2be2"/>
     <use xlink:href="#ma2ab57b342" x="364.159121" y="164.776677" style="fill: #8b2be2; stroke: #8b2be2"/>
     <use xlink:href="#ma2ab57b342" x="378.831047" y="156.814668" style="fill: #8b2be2; stroke: #8b2be2"/>
     <use xlink:href="#ma2ab57b342" x="393.502973" y="148.5762" style="fill: #8b2be2; stroke: #8b2be2"/>
     <use xlink:href="#ma2ab57b342" x="408.174899" y="140.113444" style="fill: #8b2be2; stroke: #8b2be2"/>
     <use xlink:href="#ma2ab57b342" x="422.846824" y="131.465962" style="fill: #8b2be2; stroke: #8b2be2"/>
     <use xlink:href="#ma2ab57b342" x="437.51875" y="122.573133" style="fill: #8b2be2; stroke: #8b2be2"/>
     <use xlink:href="#ma2ab57b342" x="452.190676" y="113.334877" style="fill: #8b2be2; stroke: #8b2be2"/>
     <use xlink:href="#ma2ab57b342" x="466.862602" y="103.666294" style="fill: #8b2be2; stroke: #8b2be2"/>
     <use xlink:href="#ma2ab57b342" x="481.534528" y="93.607724" style="fill: #8b2be2; stroke: #8b2be2"/>
     <use xlink:href="#ma2ab57b342" x="496.206454" y="83.209406" style="fill: #8b2be2; stroke: #8b2be2"/>
     <use xlink:href="#ma2ab57b342" x="510.87838" y="72.397133" style="fill: #8b2be2; stroke: #8b2be2"/>
     <use xlink:href="#ma2ab57b342" x="525.550306" y="61.079501" style="fill: #8b2be2; stroke: #8b2be2"/>
     <use xlink:href="#ma2ab57b342" x="540.222231" y="49.198182" style="fill: #8b2be2; stroke: #8b2be2"/>
     <use xlink:href="#ma2ab57b342" x="540.222231" y="49.198182" style="fill: #8b2be2; stroke: #8b2be2"/>
    </g>
   </g>
   <g id="patch_3">
    <path d="M 31.84 321.32 
L 31.84 36.24 
" style="fill: none; stroke: #000000; stroke-width: 0.8; stroke-linejoin: miter; stroke-linecap: square"/>
   </g>
   <g id="patch_4">
    <path d="M 564.430909 321.32 
L 564.430909 36.24 
" style="fill: none; stroke: #000000; stroke-width: 0.8; stroke-linejoin: miter; stroke-linecap: square"/>
   </g>
   <g id="patch_5">
    <path d="M 31.84 321.32 
L 564.430909 321.32 
" style="fill: none; stroke: #000000; stroke-width: 0.8; stroke-linejoin: miter; stroke-linecap: square"/>
   </g>
   <g id="patch_6">
    <path d="M 31.84 36.24 
L 564.430909 36.24 
" style="fill: none; stroke: #000000; stroke-width: 0.8; stroke-linejoin: miter; stroke-linecap: square"/>
   </g>
   <g id="text_17">
    <!-- Logistic Regression with Waveform -->
    <g transform="translate(71.604361 30.24) scale(0.26 -0.26)">
     <defs>
      <path id="DejaVuSans-4c" d="M 628 4666 
L 1259 4666 
L 1259 531 
L 3531 531 
L 3531 0 
L 628 0 
L 628 4666 
z
" transform="scale(0.015625)"/>
      <path id="DejaVuSans-6f" d="M 1959 3097 
Q 1497 3097 1228 2736 
Q 959 2375 959 1747 
Q 959 1119 1226 758 
Q 1494 397 1959 397 
Q 2419 397 2687 759 
Q 2956 1122 2956 1747 
Q 2956 2369 2687 2733 
Q 2419 3097 1959 3097 
z
M 1959 3584 
Q 2709 3584 3137 3096 
Q 3566 2609 3566 1747 
Q 3566 888 3137 398 
Q 2709 -91 1959 -91 
Q 1206 -91 779 398 
Q 353 888 353 1747 
Q 353 2609 779 3096 
Q 1206 3584 1959 3584 
z
" transform="scale(0.015625)"/>
      <path id="DejaVuSans-67" d="M 2906 1791 
Q 2906 2416 2648 2759 
Q 2391 3103 1925 3103 
Q 1463 3103 1205 2759 
Q 947 2416 947 1791 
Q 947 1169 1205 825 
Q 1463 481 1925 481 
Q 2391 481 2648 825 
Q 2906 1169 2906 1791 
z
M 3481 434 
Q 3481 -459 3084 -895 
Q 2688 -1331 1869 -1331 
Q 1566 -1331 1297 -1286 
Q 1028 -1241 775 -1147 
L 775 -588 
Q 1028 -725 1275 -790 
Q 1522 -856 1778 -856 
Q 2344 -856 2625 -561 
Q 2906 -266 2906 331 
L 2906 616 
Q 2728 306 2450 153 
Q 2172 0 1784 0 
Q 1141 0 747 490 
Q 353 981 353 1791 
Q 353 2603 747 3093 
Q 1141 3584 1784 3584 
Q 2172 3584 2450 3431 
Q 2728 3278 2906 2969 
L 2906 3500 
L 3481 3500 
L 3481 434 
z
" transform="scale(0.015625)"/>
      <path id="DejaVuSans-69" d="M 603 3500 
L 1178 3500 
L 1178 0 
L 603 0 
L 603 3500 
z
M 603 4863 
L 1178 4863 
L 1178 4134 
L 603 4134 
L 603 4863 
z
" transform="scale(0.015625)"/>
      <path id="DejaVuSans-73" d="M 2834 3397 
L 2834 2853 
Q 2591 2978 2328 3040 
Q 2066 3103 1784 3103 
Q 1356 3103 1142 2972 
Q 928 2841 928 2578 
Q 928 2378 1081 2264 
Q 1234 2150 1697 2047 
L 1894 2003 
Q 2506 1872 2764 1633 
Q 3022 1394 3022 966 
Q 3022 478 2636 193 
Q 2250 -91 1575 -91 
Q 1294 -91 989 -36 
Q 684 19 347 128 
L 347 722 
Q 666 556 975 473 
Q 1284 391 1588 391 
Q 1994 391 2212 530 
Q 2431 669 2431 922 
Q 2431 1156 2273 1281 
Q 2116 1406 1581 1522 
L 1381 1569 
Q 847 1681 609 1914 
Q 372 2147 372 2553 
Q 372 3047 722 3315 
Q 1072 3584 1716 3584 
Q 2034 3584 2315 3537 
Q 2597 3491 2834 3397 
z
" transform="scale(0.015625)"/>
      <path id="DejaVuSans-74" d="M 1172 4494 
L 1172 3500 
L 2356 3500 
L 2356 3053 
L 1172 3053 
L 1172 1153 
Q 1172 725 1289 603 
Q 1406 481 1766 481 
L 2356 481 
L 2356 0 
L 1766 0 
Q 1100 0 847 248 
Q 594 497 594 1153 
L 594 3053 
L 172 3053 
L 172 3500 
L 594 3500 
L 594 4494 
L 1172 4494 
z
" transform="scale(0.015625)"/>
      <path id="DejaVuSans-63" d="M 3122 3366 
L 3122 2828 
Q 2878 2963 2633 3030 
Q 2388 3097 2138 3097 
Q 1578 3097 1268 2742 
Q 959 2388 959 1747 
Q 959 1106 1268 751 
Q 1578 397 2138 397 
Q 2388 397 2633 464 
Q 2878 531 3122 666 
L 3122 134 
Q 2881 22 2623 -34 
Q 2366 -91 2075 -91 
Q 1284 -91 818 406 
Q 353 903 353 1747 
Q 353 2603 823 3093 
Q 1294 3584 2113 3584 
Q 2378 3584 2631 3529 
Q 2884 3475 3122 3366 
z
" transform="scale(0.015625)"/>
      <path id="DejaVuSans-20" transform="scale(0.015625)"/>
      <path id="DejaVuSans-52" d="M 2841 2188 
Q 3044 2119 3236 1894 
Q 3428 1669 3622 1275 
L 4263 0 
L 3584 0 
L 2988 1197 
Q 2756 1666 2539 1819 
Q 2322 1972 1947 1972 
L 1259 1972 
L 1259 0 
L 628 0 
L 628 4666 
L 2053 4666 
Q 2853 4666 3247 4331 
Q 3641 3997 3641 3322 
Q 3641 2881 3436 2590 
Q 3231 2300 2841 2188 
z
M 1259 4147 
L 1259 2491 
L 2053 2491 
Q 2509 2491 2742 2702 
Q 2975 2913 2975 3322 
Q 2975 3731 2742 3939 
Q 2509 4147 2053 4147 
L 1259 4147 
z
" transform="scale(0.015625)"/>
      <path id="DejaVuSans-65" d="M 3597 1894 
L 3597 1613 
L 953 1613 
Q 991 1019 1311 708 
Q 1631 397 2203 397 
Q 2534 397 2845 478 
Q 3156 559 3463 722 
L 3463 178 
Q 3153 47 2828 -22 
Q 2503 -91 2169 -91 
Q 1331 -91 842 396 
Q 353 884 353 1716 
Q 353 2575 817 3079 
Q 1281 3584 2069 3584 
Q 2775 3584 3186 3129 
Q 3597 2675 3597 1894 
z
M 3022 2063 
Q 3016 2534 2758 2815 
Q 2500 3097 2075 3097 
Q 1594 3097 1305 2825 
Q 1016 2553 972 2059 
L 3022 2063 
z
" transform="scale(0.015625)"/>
      <path id="DejaVuSans-72" d="M 2631 2963 
Q 2534 3019 2420 3045 
Q 2306 3072 2169 3072 
Q 1681 3072 1420 2755 
Q 1159 2438 1159 1844 
L 1159 0 
L 581 0 
L 581 3500 
L 1159 3500 
L 1159 2956 
Q 1341 3275 1631 3429 
Q 1922 3584 2338 3584 
Q 2397 3584 2469 3576 
Q 2541 3569 2628 3553 
L 2631 2963 
z
" transform="scale(0.015625)"/>
      <path id="DejaVuSans-6e" d="M 3513 2113 
L 3513 0 
L 2938 0 
L 2938 2094 
Q 2938 2591 2744 2837 
Q 2550 3084 2163 3084 
Q 1697 3084 1428 2787 
Q 1159 2491 1159 1978 
L 1159 0 
L 581 0 
L 581 3500 
L 1159 3500 
L 1159 2956 
Q 1366 3272 1645 3428 
Q 1925 3584 2291 3584 
Q 2894 3584 3203 3211 
Q 3513 2838 3513 2113 
z
" transform="scale(0.015625)"/>
      <path id="DejaVuSans-77" d="M 269 3500 
L 844 3500 
L 1563 769 
L 2278 3500 
L 2956 3500 
L 3675 769 
L 4391 3500 
L 4966 3500 
L 4050 0 
L 3372 0 
L 2619 2869 
L 1863 0 
L 1184 0 
L 269 3500 
z
" transform="scale(0.015625)"/>
      <path id="DejaVuSans-68" d="M 3513 2113 
L 3513 0 
L 2938 0 
L 2938 2094 
Q 2938 2591 2744 2837 
Q 2550 3084 2163 3084 
Q 1697 3084 1428 2787 
Q 1159 2491 1159 1978 
L 1159 0 
L 581 0 
L 581 4863 
L 1159 4863 
L 1159 2956 
Q 1366 3272 1645 3428 
Q 1925 3584 2291 3584 
Q 2894 3584 3203 3211 
Q 3513 2838 3513 2113 
z
" transform="scale(0.015625)"/>
      <path id="DejaVuSans-57" d="M 213 4666 
L 850 4666 
L 1831 722 
L 2809 4666 
L 3519 4666 
L 4500 722 
L 5478 4666 
L 6119 4666 
L 4947 0 
L 4153 0 
L 3169 4050 
L 2175 0 
L 1381 0 
L 213 4666 
z
" transform="scale(0.015625)"/>
      <path id="DejaVuSans-61" d="M 2194 1759 
Q 1497 1759 1228 1600 
Q 959 1441 959 1056 
Q 959 750 1161 570 
Q 1363 391 1709 391 
Q 2188 391 2477 730 
Q 2766 1069 2766 1631 
L 2766 1759 
L 2194 1759 
z
M 3341 1997 
L 3341 0 
L 2766 0 
L 2766 531 
Q 2569 213 2275 61 
Q 1981 -91 1556 -91 
Q 1019 -91 701 211 
Q 384 513 384 1019 
Q 384 1609 779 1909 
Q 1175 2209 1959 2209 
L 2766 2209 
L 2766 2266 
Q 2766 2663 2505 2880 
Q 2244 3097 1772 3097 
Q 1472 3097 1187 3025 
Q 903 2953 641 2809 
L 641 3341 
Q 956 3463 1253 3523 
Q 1550 3584 1831 3584 
Q 2591 3584 2966 3190 
Q 3341 2797 3341 1997 
z
" transform="scale(0.015625)"/>
      <path id="DejaVuSans-76" d="M 191 3500 
L 800 3500 
L 1894 563 
L 2988 3500 
L 3597 3500 
L 2284 0 
L 1503 0 
L 191 3500 
z
" transform="scale(0.015625)"/>
      <path id="DejaVuSans-66" d="M 2375 4863 
L 2375 4384 
L 1825 4384 
Q 1516 4384 1395 4259 
Q 1275 4134 1275 3809 
L 1275 3500 
L 2222 3500 
L 2222 3053 
L 1275 3053 
L 1275 0 
L 697 0 
L 697 3053 
L 147 3053 
L 147 3500 
L 697 3500 
L 697 3744 
Q 697 4328 969 4595 
Q 1241 4863 1831 4863 
L 2375 4863 
z
" transform="scale(0.015625)"/>
      <path id="DejaVuSans-6d" d="M 3328 2828 
Q 3544 3216 3844 3400 
Q 4144 3584 4550 3584 
Q 5097 3584 5394 3201 
Q 5691 2819 5691 2113 
L 5691 0 
L 5113 0 
L 5113 2094 
Q 5113 2597 4934 2840 
Q 4756 3084 4391 3084 
Q 3944 3084 3684 2787 
Q 3425 2491 3425 1978 
L 3425 0 
L 2847 0 
L 2847 2094 
Q 2847 2600 2669 2842 
Q 2491 3084 2119 3084 
Q 1678 3084 1418 2786 
Q 1159 2488 1159 1978 
L 1159 0 
L 581 0 
L 581 3500 
L 1159 3500 
L 1159 2956 
Q 1356 3278 1631 3431 
Q 1906 3584 2284 3584 
Q 2666 3584 2933 3390 
Q 3200 3197 3328 2828 
z
" transform="scale(0.015625)"/>
     </defs>
     <use xlink:href="#DejaVuSans-4c"/>
     <use xlink:href="#DejaVuSans-6f" x="53.962891"/>
     <use xlink:href="#DejaVuSans-67" x="115.144531"/>
     <use xlink:href="#DejaVuSans-69" x="178.621094"/>
     <use xlink:href="#DejaVuSans-73" x="206.404297"/>
     <use xlink:href="#DejaVuSans-74" x="258.503906"/>
     <use xlink:href="#DejaVuSans-69" x="297.712891"/>
     <use xlink:href="#DejaVuSans-63" x="325.496094"/>
     <use xlink:href="#DejaVuSans-20" x="380.476562"/>
     <use xlink:href="#DejaVuSans-52" x="412.263672"/>
     <use xlink:href="#DejaVuSans-65" x="477.246094"/>
     <use xlink:href="#DejaVuSans-67" x="538.769531"/>
     <use xlink:href="#DejaVuSans-72" x="602.246094"/>
     <use xlink:href="#DejaVuSans-65" x="641.109375"/>
     <use xlink:href="#DejaVuSans-73" x="702.632812"/>
     <use xlink:href="#DejaVuSans-73" x="754.732422"/>
     <use xlink:href="#DejaVuSans-69" x="806.832031"/>
     <use xlink:href="#DejaVuSans-6f" x="834.615234"/>
     <use xlink:href="#DejaVuSans-6e" x="895.796875"/>
     <use xlink:href="#DejaVuSans-20" x="959.175781"/>
     <use xlink:href="#DejaVuSans-77" x="990.962891"/>
     <use xlink:href="#DejaVuSans-69" x="1072.75"/>
     <use xlink:href="#DejaVuSans-74" x="1100.533203"/>
     <use xlink:href="#DejaVuSans-68" x="1139.742188"/>
     <use xlink:href="#DejaVuSans-20" x="1203.121094"/>
     <use xlink:href="#DejaVuSans-57" x="1234.908203"/>
     <use xlink:href="#DejaVuSans-61" x="1327.410156"/>
     <use xlink:href="#DejaVuSans-76" x="1388.689453"/>
     <use xlink:href="#DejaVuSans-65" x="1447.869141"/>
     <use xlink:href="#DejaVuSans-66" x="1509.392578"/>
     <use xlink:href="#DejaVuSans-6f" x="1544.597656"/>
     <use xlink:href="#DejaVuSans-72" x="1605.779297"/>
     <use xlink:href="#DejaVuSans-6d" x="1645.142578"/>
    </g>
   </g>
  </g>
 </g>
 <defs>
  <clipPath id="p2f8d649c1e">
   <rect x="31.84" y="36.24" width="532.590909" height="285.08"/>
  </clipPath>
 </defs>
</svg>
