<?xml version="1.0" encoding="utf-8" standalone="no"?>
<!DOCTYPE svg PUBLIC "-//W3C//DTD SVG 1.1//EN"
  "http://www.w3.org/Graphics/SVG/1.1/DTD/svg11.dtd">
<svg xmlns:xlink="http://www.w3.org/1999/xlink" width="576pt" height="360pt" viewBox="0 0 576 360" xmlns="http://www.w3.org/2000/svg" version="1.1">
 <metadata>
  <rdf:RDF xmlns:dc="http://purl.org/dc/elements/1.1/" xmlns:cc="http://creativecommons.org/ns#" xmlns:rdf="http://www.w3.org/1999/02/22-rdf-syntax-ns#">
   <cc:Work>
    <dc:type rdf:resource="http://purl.org/dc/dcmitype/StillImage"/>
    <dc:date>2024-05-11T01:39:34.746854</dc:date>
    <dc:format>image/svg+xml</dc:format>
    <dc:creator>
     <cc:Agent>
      <dc:title>Matplotlib v3.8.0, https://matplotlib.org/</dc:title>
     </cc:Agent>
    </dc:creator>
   </cc:Work>
  </rdf:RDF>
 </metadata>
 <defs>
  <style type="text/css">*{stroke-linejoin: round; stroke-linecap: butt}</style>
 </defs>
 <g id="figure_1">
  <g id="patch_1">
   <path d="M 0 360 
L 576 360 
L 576 0 
L 0 0 
z
" style="fill: #ffffff"/>
  </g>
  <g id="axes_1">
   <g id="patch_2">
    <path d="M 52.81 293.56 
L 565.2 293.56 
L 565.2 10.8 
L 52.81 10.8 
z
" style="fill: #ffffff"/>
   </g>
   <g id="matplotlib.axis_1">
    <g id="xtick_1">
     <g id="line2d_1">
      <defs>
       <path id="mfdcb92f614" d="M 0 0 
L 0 3.5 
" style="stroke: #000000; stroke-width: 0.8"/>
      </defs>
      <g>
       <use xlink:href="#mfdcb92f614" x="76.100455" y="293.56" style="stroke: #000000; stroke-width: 0.8"/>
      </g>
     </g>
     <g id="text_1">
      <!-- 1 -->
      <g transform="translate(69.101705 317.276563) scale(0.22 -0.22)">
       <defs>
        <path id="DejaVuSans-31" d="M 794 531 
L 1825 531 
L 1825 4091 
L 703 3866 
L 703 4441 
L 1819 4666 
L 2450 4666 
L 2450 531 
L 3481 531 
L 3481 0 
L 794 0 
L 794 531 
z
" transform="scale(0.015625)"/>
       </defs>
       <use xlink:href="#DejaVuSans-31"/>
      </g>
     </g>
    </g>
    <g id="xtick_2">
     <g id="line2d_2">
      <g>
       <use xlink:href="#mfdcb92f614" x="161.657226" y="293.56" style="stroke: #000000; stroke-width: 0.8"/>
      </g>
     </g>
     <g id="text_2">
      <!-- 10 -->
      <g transform="translate(147.659726 317.276563) scale(0.22 -0.22)">
       <defs>
        <path id="DejaVuSans-30" d="M 2034 4250 
Q 1547 4250 1301 3770 
Q 1056 3291 1056 2328 
Q 1056 1369 1301 889 
Q 1547 409 2034 409 
Q 2525 409 2770 889 
Q 3016 1369 3016 2328 
Q 3016 3291 2770 3770 
Q 2525 4250 2034 4250 
z
M 2034 4750 
Q 2819 4750 3233 4129 
Q 3647 3509 3647 2328 
Q 3647 1150 3233 529 
Q 2819 -91 2034 -91 
Q 1250 -91 836 529 
Q 422 1150 422 2328 
Q 422 3509 836 4129 
Q 1250 4750 2034 4750 
z
" transform="scale(0.015625)"/>
       </defs>
       <use xlink:href="#DejaVuSans-31"/>
       <use xlink:href="#DejaVuSans-30" x="63.623047"/>
      </g>
     </g>
    </g>
    <g id="xtick_3">
     <g id="line2d_3">
      <g>
       <use xlink:href="#mfdcb92f614" x="256.720306" y="293.56" style="stroke: #000000; stroke-width: 0.8"/>
      </g>
     </g>
     <g id="text_3">
      <!-- 20 -->
      <g transform="translate(242.722806 317.276563) scale(0.22 -0.22)">
       <defs>
        <path id="DejaVuSans-32" d="M 1228 531 
L 3431 531 
L 3431 0 
L 469 0 
L 469 531 
Q 828 903 1448 1529 
Q 2069 2156 2228 2338 
Q 2531 2678 2651 2914 
Q 2772 3150 2772 3378 
Q 2772 3750 2511 3984 
Q 2250 4219 1831 4219 
Q 1534 4219 1204 4116 
Q 875 4013 500 3803 
L 500 4441 
Q 881 4594 1212 4672 
Q 1544 4750 1819 4750 
Q 2544 4750 2975 4387 
Q 3406 4025 3406 3419 
Q 3406 3131 3298 2873 
Q 3191 2616 2906 2266 
Q 2828 2175 2409 1742 
Q 1991 1309 1228 531 
z
" transform="scale(0.015625)"/>
       </defs>
       <use xlink:href="#DejaVuSans-32"/>
       <use xlink:href="#DejaVuSans-30" x="63.623047"/>
      </g>
     </g>
    </g>
    <g id="xtick_4">
     <g id="line2d_4">
      <g>
       <use xlink:href="#mfdcb92f614" x="351.783386" y="293.56" style="stroke: #000000; stroke-width: 0.8"/>
      </g>
     </g>
     <g id="text_4">
      <!-- 30 -->
      <g transform="translate(337.785886 317.276563) scale(0.22 -0.22)">
       <defs>
        <path id="DejaVuSans-33" d="M 2597 2516 
Q 3050 2419 3304 2112 
Q 3559 1806 3559 1356 
Q 3559 666 3084 287 
Q 2609 -91 1734 -91 
Q 1441 -91 1130 -33 
Q 819 25 488 141 
L 488 750 
Q 750 597 1062 519 
Q 1375 441 1716 441 
Q 2309 441 2620 675 
Q 2931 909 2931 1356 
Q 2931 1769 2642 2001 
Q 2353 2234 1838 2234 
L 1294 2234 
L 1294 2753 
L 1863 2753 
Q 2328 2753 2575 2939 
Q 2822 3125 2822 3475 
Q 2822 3834 2567 4026 
Q 2313 4219 1838 4219 
Q 1578 4219 1281 4162 
Q 984 4106 628 3988 
L 628 4550 
Q 988 4650 1302 4700 
Q 1616 4750 1894 4750 
Q 2613 4750 3031 4423 
Q 3450 4097 3450 3541 
Q 3450 3153 3228 2886 
Q 3006 2619 2597 2516 
z
" transform="scale(0.015625)"/>
       </defs>
       <use xlink:href="#DejaVuSans-33"/>
       <use xlink:href="#DejaVuSans-30" x="63.623047"/>
      </g>
     </g>
    </g>
    <g id="xtick_5">
     <g id="line2d_5">
      <g>
       <use xlink:href="#mfdcb92f614" x="446.846466" y="293.56" style="stroke: #000000; stroke-width: 0.8"/>
      </g>
     </g>
     <g id="text_5">
      <!-- 40 -->
      <g transform="translate(432.848966 317.276563) scale(0.22 -0.22)">
       <defs>
        <path id="DejaVuSans-34" d="M 2419 4116 
L 825 1625 
L 2419 1625 
L 2419 4116 
z
M 2253 4666 
L 3047 4666 
L 3047 1625 
L 3713 1625 
L 3713 1100 
L 3047 1100 
L 3047 0 
L 2419 0 
L 2419 1100 
L 313 1100 
L 313 1709 
L 2253 4666 
z
" transform="scale(0.015625)"/>
       </defs>
       <use xlink:href="#DejaVuSans-34"/>
       <use xlink:href="#DejaVuSans-30" x="63.623047"/>
      </g>
     </g>
    </g>
    <g id="xtick_6">
     <g id="line2d_6">
      <g>
       <use xlink:href="#mfdcb92f614" x="541.909545" y="293.56" style="stroke: #000000; stroke-width: 0.8"/>
      </g>
     </g>
     <g id="text_6">
      <!-- 50 -->
      <g transform="translate(527.912045 317.276563) scale(0.22 -0.22)">
       <defs>
        <path id="DejaVuSans-35" d="M 691 4666 
L 3169 4666 
L 3169 4134 
L 1269 4134 
L 1269 2991 
Q 1406 3038 1543 3061 
Q 1681 3084 1819 3084 
Q 2600 3084 3056 2656 
Q 3513 2228 3513 1497 
Q 3513 744 3044 326 
Q 2575 -91 1722 -91 
Q 1428 -91 1123 -41 
Q 819 9 494 109 
L 494 744 
Q 775 591 1075 516 
Q 1375 441 1709 441 
Q 2250 441 2565 725 
Q 2881 1009 2881 1497 
Q 2881 1984 2565 2268 
Q 2250 2553 1709 2553 
Q 1456 2553 1204 2497 
Q 953 2441 691 2322 
L 691 4666 
z
" transform="scale(0.015625)"/>
       </defs>
       <use xlink:href="#DejaVuSans-35"/>
       <use xlink:href="#DejaVuSans-30" x="63.623047"/>
      </g>
     </g>
    </g>
    <g id="text_7">
     <!-- $k$ -->
     <g transform="translate(302.045 344.088125) scale(0.24 -0.24)">
      <defs>
       <path id="DejaVuSans-Oblique-6b" d="M 1172 4863 
L 1747 4863 
L 1197 2028 
L 3169 3500 
L 3916 3500 
L 1716 1825 
L 3322 0 
L 2625 0 
L 1131 1709 
L 800 0 
L 225 0 
L 1172 4863 
z
" transform="scale(0.015625)"/>
      </defs>
      <use xlink:href="#DejaVuSans-Oblique-6b" transform="translate(0 0.015625)"/>
     </g>
    </g>
   </g>
   <g id="matplotlib.axis_2">
    <g id="ytick_1">
     <g id="line2d_7">
      <defs>
       <path id="mdc7976ae01" d="M 0 0 
L -3.5 0 
" style="stroke: #000000; stroke-width: 0.8"/>
      </defs>
      <g>
       <use xlink:href="#mdc7976ae01" x="52.81" y="269.022975" style="stroke: #000000; stroke-width: 0.8"/>
      </g>
     </g>
     <g id="text_8">
      <!-- 0.2 -->
      <g transform="translate(10.823125 277.381256) scale(0.22 -0.22)">
       <defs>
        <path id="DejaVuSans-2e" d="M 684 794 
L 1344 794 
L 1344 0 
L 684 0 
L 684 794 
z
" transform="scale(0.015625)"/>
       </defs>
       <use xlink:href="#DejaVuSans-30"/>
       <use xlink:href="#DejaVuSans-2e" x="63.623047"/>
       <use xlink:href="#DejaVuSans-32" x="95.410156"/>
      </g>
     </g>
    </g>
    <g id="ytick_2">
     <g id="line2d_8">
      <g>
       <use xlink:href="#mdc7976ae01" x="52.81" y="230.075317" style="stroke: #000000; stroke-width: 0.8"/>
      </g>
     </g>
     <g id="text_9">
      <!-- 0.3 -->
      <g transform="translate(10.823125 238.433598) scale(0.22 -0.22)">
       <use xlink:href="#DejaVuSans-30"/>
       <use xlink:href="#DejaVuSans-2e" x="63.623047"/>
       <use xlink:href="#DejaVuSans-33" x="95.410156"/>
      </g>
     </g>
    </g>
    <g id="ytick_3">
     <g id="line2d_9">
      <g>
       <use xlink:href="#mdc7976ae01" x="52.81" y="191.127658" style="stroke: #000000; stroke-width: 0.8"/>
      </g>
     </g>
     <g id="text_10">
      <!-- 0.4 -->
      <g transform="translate(10.823125 199.48594) scale(0.22 -0.22)">
       <use xlink:href="#DejaVuSans-30"/>
       <use xlink:href="#DejaVuSans-2e" x="63.623047"/>
       <use xlink:href="#DejaVuSans-34" x="95.410156"/>
      </g>
     </g>
    </g>
    <g id="ytick_4">
     <g id="line2d_10">
      <g>
       <use xlink:href="#mdc7976ae01" x="52.81" y="152.18" style="stroke: #000000; stroke-width: 0.8"/>
      </g>
     </g>
     <g id="text_11">
      <!-- 0.5 -->
      <g transform="translate(10.823125 160.538281) scale(0.22 -0.22)">
       <use xlink:href="#DejaVuSans-30"/>
       <use xlink:href="#DejaVuSans-2e" x="63.623047"/>
       <use xlink:href="#DejaVuSans-35" x="95.410156"/>
      </g>
     </g>
    </g>
    <g id="ytick_5">
     <g id="line2d_11">
      <g>
       <use xlink:href="#mdc7976ae01" x="52.81" y="113.232342" style="stroke: #000000; stroke-width: 0.8"/>
      </g>
     </g>
     <g id="text_12">
      <!-- 0.6 -->
      <g transform="translate(10.823125 121.590623) scale(0.22 -0.22)">
       <defs>
        <path id="DejaVuSans-36" d="M 2113 2584 
Q 1688 2584 1439 2293 
Q 1191 2003 1191 1497 
Q 1191 994 1439 701 
Q 1688 409 2113 409 
Q 2538 409 2786 701 
Q 3034 994 3034 1497 
Q 3034 2003 2786 2293 
Q 2538 2584 2113 2584 
z
M 3366 4563 
L 3366 3988 
Q 3128 4100 2886 4159 
Q 2644 4219 2406 4219 
Q 1781 4219 1451 3797 
Q 1122 3375 1075 2522 
Q 1259 2794 1537 2939 
Q 1816 3084 2150 3084 
Q 2853 3084 3261 2657 
Q 3669 2231 3669 1497 
Q 3669 778 3244 343 
Q 2819 -91 2113 -91 
Q 1303 -91 875 529 
Q 447 1150 447 2328 
Q 447 3434 972 4092 
Q 1497 4750 2381 4750 
Q 2619 4750 2861 4703 
Q 3103 4656 3366 4563 
z
" transform="scale(0.015625)"/>
       </defs>
       <use xlink:href="#DejaVuSans-30"/>
       <use xlink:href="#DejaVuSans-2e" x="63.623047"/>
       <use xlink:href="#DejaVuSans-36" x="95.410156"/>
      </g>
     </g>
    </g>
    <g id="ytick_6">
     <g id="line2d_12">
      <g>
       <use xlink:href="#mdc7976ae01" x="52.81" y="74.284683" style="stroke: #000000; stroke-width: 0.8"/>
      </g>
     </g>
     <g id="text_13">
      <!-- 0.7 -->
      <g transform="translate(10.823125 82.642964) scale(0.22 -0.22)">
       <defs>
        <path id="DejaVuSans-37" d="M 525 4666 
L 3525 4666 
L 3525 4397 
L 1831 0 
L 1172 0 
L 2766 4134 
L 525 4134 
L 525 4666 
z
" transform="scale(0.015625)"/>
       </defs>
       <use xlink:href="#DejaVuSans-30"/>
       <use xlink:href="#DejaVuSans-2e" x="63.623047"/>
       <use xlink:href="#DejaVuSans-37" x="95.410156"/>
      </g>
     </g>
    </g>
    <g id="ytick_7">
     <g id="line2d_13">
      <g>
       <use xlink:href="#mdc7976ae01" x="52.81" y="35.337025" style="stroke: #000000; stroke-width: 0.8"/>
      </g>
     </g>
     <g id="text_14">
      <!-- 0.8 -->
      <g transform="translate(10.823125 43.695306) scale(0.22 -0.22)">
       <defs>
        <path id="DejaVuSans-38" d="M 2034 2216 
Q 1584 2216 1326 1975 
Q 1069 1734 1069 1313 
Q 1069 891 1326 650 
Q 1584 409 2034 409 
Q 2484 409 2743 651 
Q 3003 894 3003 1313 
Q 3003 1734 2745 1975 
Q 2488 2216 2034 2216 
z
M 1403 2484 
Q 997 2584 770 2862 
Q 544 3141 544 3541 
Q 544 4100 942 4425 
Q 1341 4750 2034 4750 
Q 2731 4750 3128 4425 
Q 3525 4100 3525 3541 
Q 3525 3141 3298 2862 
Q 3072 2584 2669 2484 
Q 3125 2378 3379 2068 
Q 3634 1759 3634 1313 
Q 3634 634 3220 271 
Q 2806 -91 2034 -91 
Q 1263 -91 848 271 
Q 434 634 434 1313 
Q 434 1759 690 2068 
Q 947 2378 1403 2484 
z
M 1172 3481 
Q 1172 3119 1398 2916 
Q 1625 2713 2034 2713 
Q 2441 2713 2670 2916 
Q 2900 3119 2900 3481 
Q 2900 3844 2670 4047 
Q 2441 4250 2034 4250 
Q 1625 4250 1398 4047 
Q 1172 3844 1172 3481 
z
" transform="scale(0.015625)"/>
       </defs>
       <use xlink:href="#DejaVuSans-30"/>
       <use xlink:href="#DejaVuSans-2e" x="63.623047"/>
       <use xlink:href="#DejaVuSans-38" x="95.410156"/>
      </g>
     </g>
    </g>
   </g>
   <g id="line2d_14">
    <path d="M 76.100455 152.18 
L 95.113071 152.18 
L 114.125686 152.18 
L 133.138302 191.127658 
L 152.150918 179.443361 
L 171.163534 179.443361 
L 190.17615 183.338127 
L 209.188766 202.811956 
L 228.201382 222.285785 
L 247.213998 210.601488 
L 266.226614 226.180551 
L 285.23923 230.075317 
L 304.251846 237.864848 
L 323.264462 261.233444 
L 342.277078 245.65438 
L 361.289694 245.65438 
L 380.30231 269.022975 
L 399.314926 253.443912 
L 418.327542 245.65438 
L 437.340158 280.707273 
L 456.352774 280.707273 
L 475.36539 272.917741 
L 494.378006 265.128209 
L 513.390622 276.812507 
L 532.403237 272.917741 
L 541.909545 265.128209 
" clip-path="url(#p99461f9c88)" style="fill: none; stroke: #ffc400; stroke-width: 1.5; stroke-linecap: square"/>
    <defs>
     <path id="m584da8aa3f" d="M 0 3 
C 0.795609 3 1.55874 2.683901 2.12132 2.12132 
C 2.683901 1.55874 3 0.795609 3 0 
C 3 -0.795609 2.683901 -1.55874 2.12132 -2.12132 
C 1.55874 -2.683901 0.795609 -3 0 -3 
C -0.795609 -3 -1.55874 -2.683901 -2.12132 -2.12132 
C -2.683901 -1.55874 -3 -0.795609 -3 0 
C -3 0.795609 -2.683901 1.55874 -2.12132 2.12132 
C -1.55874 2.683901 -0.795609 3 0 3 
z
" style="stroke: #ffc400"/>
    </defs>
    <g clip-path="url(#p99461f9c88)">
     <use xlink:href="#m584da8aa3f" x="76.100455" y="152.18" style="fill: #ffc400; stroke: #ffc400"/>
     <use xlink:href="#m584da8aa3f" x="95.113071" y="152.18" style="fill: #ffc400; stroke: #ffc400"/>
     <use xlink:href="#m584da8aa3f" x="114.125686" y="152.18" style="fill: #ffc400; stroke: #ffc400"/>
     <use xlink:href="#m584da8aa3f" x="133.138302" y="191.127658" style="fill: #ffc400; stroke: #ffc400"/>
     <use xlink:href="#m584da8aa3f" x="152.150918" y="179.443361" style="fill: #ffc400; stroke: #ffc400"/>
     <use xlink:href="#m584da8aa3f" x="171.163534" y="179.443361" style="fill: #ffc400; stroke: #ffc400"/>
     <use xlink:href="#m584da8aa3f" x="190.17615" y="183.338127" style="fill: #ffc400; stroke: #ffc400"/>
     <use xlink:href="#m584da8aa3f" x="209.188766" y="202.811956" style="fill: #ffc400; stroke: #ffc400"/>
     <use xlink:href="#m584da8aa3f" x="228.201382" y="222.285785" style="fill: #ffc400; stroke: #ffc400"/>
     <use xlink:href="#m584da8aa3f" x="247.213998" y="210.601488" style="fill: #ffc400; stroke: #ffc400"/>
     <use xlink:href="#m584da8aa3f" x="266.226614" y="226.180551" style="fill: #ffc400; stroke: #ffc400"/>
     <use xlink:href="#m584da8aa3f" x="285.23923" y="230.075317" style="fill: #ffc400; stroke: #ffc400"/>
     <use xlink:href="#m584da8aa3f" x="304.251846" y="237.864848" style="fill: #ffc400; stroke: #ffc400"/>
     <use xlink:href="#m584da8aa3f" x="323.264462" y="261.233444" style="fill: #ffc400; stroke: #ffc400"/>
     <use xlink:href="#m584da8aa3f" x="342.277078" y="245.65438" style="fill: #ffc400; stroke: #ffc400"/>
     <use xlink:href="#m584da8aa3f" x="361.289694" y="245.65438" style="fill: #ffc400; stroke: #ffc400"/>
     <use xlink:href="#m584da8aa3f" x="380.30231" y="269.022975" style="fill: #ffc400; stroke: #ffc400"/>
     <use xlink:href="#m584da8aa3f" x="399.314926" y="253.443912" style="fill: #ffc400; stroke: #ffc400"/>
     <use xlink:href="#m584da8aa3f" x="418.327542" y="245.65438" style="fill: #ffc400; stroke: #ffc400"/>
     <use xlink:href="#m584da8aa3f" x="437.340158" y="280.707273" style="fill: #ffc400; stroke: #ffc400"/>
     <use xlink:href="#m584da8aa3f" x="456.352774" y="280.707273" style="fill: #ffc400; stroke: #ffc400"/>
     <use xlink:href="#m584da8aa3f" x="475.36539" y="272.917741" style="fill: #ffc400; stroke: #ffc400"/>
     <use xlink:href="#m584da8aa3f" x="494.378006" y="265.128209" style="fill: #ffc400; stroke: #ffc400"/>
     <use xlink:href="#m584da8aa3f" x="513.390622" y="276.812507" style="fill: #ffc400; stroke: #ffc400"/>
     <use xlink:href="#m584da8aa3f" x="532.403237" y="272.917741" style="fill: #ffc400; stroke: #ffc400"/>
     <use xlink:href="#m584da8aa3f" x="541.909545" y="265.128209" style="fill: #ffc400; stroke: #ffc400"/>
    </g>
   </g>
   <g id="line2d_15">
    <path d="M 76.100455 152.18 
L 95.113071 152.18 
L 114.125686 152.18 
L 133.138302 113.232342 
L 152.150918 124.916639 
L 171.163534 124.916639 
L 190.17615 121.021873 
L 209.188766 101.548044 
L 228.201382 82.074215 
L 247.213998 93.758512 
L 266.226614 78.179449 
L 285.23923 74.284683 
L 304.251846 66.495152 
L 323.264462 43.126556 
L 342.277078 58.70562 
L 361.289694 58.70562 
L 380.30231 35.337025 
L 399.314926 50.916088 
L 418.327542 58.70562 
L 437.340158 23.652727 
L 456.352774 23.652727 
L 475.36539 31.442259 
L 494.378006 39.231791 
L 513.390622 27.547493 
L 532.403237 31.442259 
L 541.909545 39.231791 
" clip-path="url(#p99461f9c88)" style="fill: none; stroke: #8b2be2; stroke-width: 1.5; stroke-linecap: square"/>
    <defs>
     <path id="m9c97bc3cb7" d="M 0 3 
C 0.795609 3 1.55874 2.683901 2.12132 2.12132 
C 2.683901 1.55874 3 0.795609 3 0 
C 3 -0.795609 2.683901 -1.55874 2.12132 -2.12132 
C 1.55874 -2.683901 0.795609 -3 0 -3 
C -0.795609 -3 -1.55874 -2.683901 -2.12132 -2.12132 
C -2.683901 -1.55874 -3 -0.795609 -3 0 
C -3 0.795609 -2.683901 1.55874 -2.12132 2.12132 
C -1.55874 2.683901 -0.795609 3 0 3 
z
" style="stroke: #8b2be2"/>
    </defs>
    <g clip-path="url(#p99461f9c88)">
     <use xlink:href="#m9c97bc3cb7" x="76.100455" y="152.18" style="fill: #8b2be2; stroke: #8b2be2"/>
     <use xlink:href="#m9c97bc3cb7" x="95.113071" y="152.18" style="fill: #8b2be2; stroke: #8b2be2"/>
     <use xlink:href="#m9c97bc3cb7" x="114.125686" y="152.18" style="fill: #8b2be2; stroke: #8b2be2"/>
     <use xlink:href="#m9c97bc3cb7" x="133.138302" y="113.232342" style="fill: #8b2be2; stroke: #8b2be2"/>
     <use xlink:href="#m9c97bc3cb7" x="152.150918" y="124.916639" style="fill: #8b2be2; stroke: #8b2be2"/>
     <use xlink:href="#m9c97bc3cb7" x="171.163534" y="124.916639" style="fill: #8b2be2; stroke: #8b2be2"/>
     <use xlink:href="#m9c97bc3cb7" x="190.17615" y="121.021873" style="fill: #8b2be2; stroke: #8b2be2"/>
     <use xlink:href="#m9c97bc3cb7" x="209.188766" y="101.548044" style="fill: #8b2be2; stroke: #8b2be2"/>
     <use xlink:href="#m9c97bc3cb7" x="228.201382" y="82.074215" style="fill: #8b2be2; stroke: #8b2be2"/>
     <use xlink:href="#m9c97bc3cb7" x="247.213998" y="93.758512" style="fill: #8b2be2; stroke: #8b2be2"/>
     <use xlink:href="#m9c97bc3cb7" x="266.226614" y="78.179449" style="fill: #8b2be2; stroke: #8b2be2"/>
     <use xlink:href="#m9c97bc3cb7" x="285.23923" y="74.284683" style="fill: #8b2be2; stroke: #8b2be2"/>
     <use xlink:href="#m9c97bc3cb7" x="304.251846" y="66.495152" style="fill: #8b2be2; stroke: #8b2be2"/>
     <use xlink:href="#m9c97bc3cb7" x="323.264462" y="43.126556" style="fill: #8b2be2; stroke: #8b2be2"/>
     <use xlink:href="#m9c97bc3cb7" x="342.277078" y="58.70562" style="fill: #8b2be2; stroke: #8b2be2"/>
     <use xlink:href="#m9c97bc3cb7" x="361.289694" y="58.70562" style="fill: #8b2be2; stroke: #8b2be2"/>
     <use xlink:href="#m9c97bc3cb7" x="380.30231" y="35.337025" style="fill: #8b2be2; stroke: #8b2be2"/>
     <use xlink:href="#m9c97bc3cb7" x="399.314926" y="50.916088" style="fill: #8b2be2; stroke: #8b2be2"/>
     <use xlink:href="#m9c97bc3cb7" x="418.327542" y="58.70562" style="fill: #8b2be2; stroke: #8b2be2"/>
     <use xlink:href="#m9c97bc3cb7" x="437.340158" y="23.652727" style="fill: #8b2be2; stroke: #8b2be2"/>
     <use xlink:href="#m9c97bc3cb7" x="456.352774" y="23.652727" style="fill: #8b2be2; stroke: #8b2be2"/>
     <use xlink:href="#m9c97bc3cb7" x="475.36539" y="31.442259" style="fill: #8b2be2; stroke: #8b2be2"/>
     <use xlink:href="#m9c97bc3cb7" x="494.378006" y="39.231791" style="fill: #8b2be2; stroke: #8b2be2"/>
     <use xlink:href="#m9c97bc3cb7" x="513.390622" y="27.547493" style="fill: #8b2be2; stroke: #8b2be2"/>
     <use xlink:href="#m9c97bc3cb7" x="532.403237" y="31.442259" style="fill: #8b2be2; stroke: #8b2be2"/>
     <use xlink:href="#m9c97bc3cb7" x="541.909545" y="39.231791" style="fill: #8b2be2; stroke: #8b2be2"/>
    </g>
   </g>
   <g id="patch_3">
    <path d="M 52.81 293.56 
L 52.81 10.8 
" style="fill: none; stroke: #000000; stroke-width: 0.8; stroke-linejoin: miter; stroke-linecap: square"/>
   </g>
   <g id="patch_4">
    <path d="M 565.2 293.56 
L 565.2 10.8 
" style="fill: none; stroke: #000000; stroke-width: 0.8; stroke-linejoin: miter; stroke-linecap: square"/>
   </g>
   <g id="patch_5">
    <path d="M 52.81 293.56 
L 565.2 293.56 
" style="fill: none; stroke: #000000; stroke-width: 0.8; stroke-linejoin: miter; stroke-linecap: square"/>
   </g>
   <g id="patch_6">
    <path d="M 52.81 10.8 
L 565.2 10.8 
" style="fill: none; stroke: #000000; stroke-width: 0.8; stroke-linejoin: miter; stroke-linecap: square"/>
   </g>
  </g>
 </g>
 <defs>
  <clipPath id="p99461f9c88">
   <rect x="52.81" y="10.8" width="512.39" height="282.76"/>
  </clipPath>
 </defs>
</svg>
